<?xml version="1.0" encoding="UTF-8"?>
<!DOCTYPE svg PUBLIC "-//W3C//DTD SVG 1.1//EN" "http://www.w3.org/Graphics/SVG/1.1/DTD/svg11.dtd">
<!-- Creator: CorelDRAW X7 -->
<svg xmlns="http://www.w3.org/2000/svg" xml:space="preserve" width="24.3097mm" height="27.4244mm" version="1.1" style="shape-rendering:geometricPrecision; text-rendering:geometricPrecision; image-rendering:optimizeQuality; fill-rule:evenodd; clip-rule:evenodd"
viewBox="0 0 2202 2484"
 xmlns:xlink="http://www.w3.org/1999/xlink">
 <defs>
  <style type="text/css">
   <![CDATA[
    .str0 {stroke:#FEFEFE;stroke-width:93.6884;stroke-linecap:round;stroke-linejoin:round}
    .fil0 {fill:none}
    .fil3 {fill:#FEFEFE}
    .fil2 {fill:#FEFEFE}
    .fil1 {fill:#39356C}
    .fil4 {fill:#5EE045}
   ]]>
  </style>
 </defs>
 <g id="Capa_x0020_1">
  <metadata id="CorelCorpID_0Corel-Layer"/>
  <path class="fil0 str0" d="M219 158l1764 0c95,0 172,77 172,171l0 1765c0,94 -77,172 -172,172l-1764 0c-95,0 -172,-78 -172,-172l0 -1765c0,-94 77,-171 172,-171z"/>
  <g id="_2831609539712">
   <path class="fil1" d="M1556 428c-48,-27 -97,-52 -148,-73 -207,-85 -429,-93 -562,116 -202,317 -322,655 -344,1031 -18,311 33,614 101,916 22,100 171,81 167,-22 -4,-81 -19,-162 -31,-243 -19,-122 -41,-277 54,-375 261,-269 452,-430 444,-836 -1,-71 13,-140 61,-194 80,-88 233,-112 345,-118 106,-6 213,2 319,13l1 1c32,3 62,-11 79,-38 31,-50 7,-116 -51,-129 -143,-33 -288,-53 -435,-49z"/>
   <path class="fil2" d="M1543 482c-203,-119 -495,-228 -652,18 -197,309 -314,638 -335,1005 -18,307 32,604 99,902 8,37 63,30 62,-8 -4,-80 -19,-159 -31,-237 -21,-143 -41,-308 68,-421 250,-257 438,-410 430,-798 -2,-85 17,-167 74,-231 151,-167 508,-144 710,-121l0 0c39,3 48,-54 10,-62 -143,-34 -288,-53 -435,-47z"/>
   <path class="fil3" d="M684 1579c-105,91 -264,134 -392,184 -30,11 -51,38 -54,69 -6,57 44,104 101,92l2 0c303,-72 691,-202 844,-497 60,-116 77,-242 63,-371 -32,-291 -209,-485 -475,-595 -198,-81 -355,-197 -432,-405 -30,-79 -144,-73 -165,9 -111,434 64,797 404,1067 71,57 202,161 214,256 10,75 -58,146 -110,191z"/>
   <path class="fil4" d="M719 1619c-112,97 -272,141 -408,194 -36,13 -20,67 17,59l1 0c284,-67 664,-191 809,-470 55,-106 69,-222 57,-340 -30,-271 -193,-449 -442,-551 -213,-88 -380,-215 -462,-436 -12,-31 -55,-29 -63,3 -105,412 60,755 386,1013 84,67 218,176 233,290 13,97 -60,179 -128,238z"/>
   <path class="fil4" d="M740 1642c-116,100 -272,143 -418,200 0,0 0,0 0,0 546,-130 888,-349 842,-777 -24,-215 -139,-409 -423,-526 -235,-96 -398,-234 -479,-453 -1,-2 -3,-2 -4,0 -92,361 22,701 375,980 211,168 376,344 107,576z"/>
  </g>
  <path class="fil4" d="M1059 1735c87,-13 138,-61 146,-146 9,-90 152,-87 153,0 1,109 63,143 147,146 97,3 91,147 0,153 -94,7 -138,61 -147,147 -10,95 -153,94 -153,0 0,-91 -48,-151 -146,-147 -80,4 -87,-140 0,-153z"/>
  <path class="fil2" d="M1501 1464c88,-13 138,-61 146,-147 9,-90 152,-86 153,0 1,110 64,144 147,147 97,3 91,146 0,153 -94,7 -138,60 -147,146 -10,95 -153,94 -153,0 0,-90 -48,-150 -146,-146 -80,3 -86,-140 0,-153z"/>
 </g>
</svg>
