<?xml version="1.0" encoding="UTF-8"?>
<!DOCTYPE svg PUBLIC "-//W3C//DTD SVG 1.1//EN" "http://www.w3.org/Graphics/SVG/1.1/DTD/svg11.dtd">
<!-- Creator: CorelDRAW X7 -->
<svg xmlns="http://www.w3.org/2000/svg" xml:space="preserve" width="24.3097mm" height="27.4244mm" version="1.1" style="shape-rendering:geometricPrecision; text-rendering:geometricPrecision; image-rendering:optimizeQuality; fill-rule:evenodd; clip-rule:evenodd"
viewBox="0 0 925 1043"
 xmlns:xlink="http://www.w3.org/1999/xlink">
 <defs>
  <style type="text/css">
   <![CDATA[
    .str0 {stroke:#FEFEFE;stroke-width:39.3424;stroke-linecap:round;stroke-linejoin:round}
    .fil4 {fill:#FEFEFE}
    .fil1 {fill:#FEFEFE}
    .fil2 {fill:#39356C}
    .fil0 {fill:#39356C}
    .fil3 {fill:#5EE045}
   ]]>
  </style>
 </defs>
 <g id="Capa_x0020_1">
  <metadata id="CorelCorpID_0Corel-Layer"/>
  <path class="fil0 str0" d="M92 66l741 0c40,0 72,33 72,72l0 741c0,40 -32,72 -72,72l-741 0c-40,0 -72,-32 -72,-72l0 -741c0,-39 32,-72 72,-72z"/>
  <g id="_2831603383168">
   <path class="fil1" d="M653 180c-20,-12 -40,-22 -62,-31 -86,-35 -180,-39 -236,49 -84,133 -135,275 -144,433 -8,131 14,258 42,385 10,42 72,33 70,-10 -1,-34 -8,-68 -13,-102 -8,-51 -17,-116 23,-157 109,-113 190,-181 187,-352 -1,-29 5,-58 25,-81 33,-37 98,-47 145,-49 44,-3 90,0 134,5l0 0c14,2 26,-4 33,-16 14,-20 3,-48 -21,-53 -60,-15 -121,-23 -183,-21z"/>
   <path class="fil2" d="M648 202c-85,-49 -208,-95 -274,8 -83,130 -132,268 -141,422 -7,129 14,253 42,379 4,15 27,12 26,-4 -1,-33 -8,-66 -13,-99 -9,-60 -17,-129 29,-177 105,-108 183,-172 180,-335 -1,-36 7,-70 31,-97 64,-70 214,-61 298,-51l1 0c16,2 20,-22 4,-26 -60,-14 -121,-22 -183,-20z"/>
   <path class="fil1" d="M287 663c-44,38 -111,56 -165,77 -12,5 -21,16 -22,29 -2,24 18,44 42,39l1 0c128,-30 290,-85 355,-209 25,-48 32,-101 26,-155 -13,-123 -88,-204 -199,-250 -84,-35 -150,-83 -182,-170 -12,-34 -60,-31 -69,3 -47,182 27,335 170,449 29,23 84,67 90,107 4,31 -25,61 -47,80z"/>
   <path class="fil3" d="M302 680c-47,41 -114,59 -172,81 -14,6 -8,28 8,25l0 0c120,-28 279,-80 340,-197 23,-45 29,-93 24,-143 -13,-114 -81,-189 -186,-232 -89,-36 -159,-90 -194,-183 -5,-12 -23,-12 -26,2 -44,173 25,317 162,425 35,28 91,74 98,122 5,41 -26,75 -54,100z"/>
   <path class="fil3" d="M311 690c-49,42 -115,60 -176,83 0,0 0,0 0,0 229,-54 373,-146 354,-326 -10,-90 -59,-172 -178,-220 -99,-41 -167,-99 -201,-191 0,-1 -1,-1 -2,0 -38,152 10,294 158,412 88,70 158,144 45,242z"/>
  </g>
  <path class="fil3" d="M445 729c36,-6 58,-26 61,-62 4,-38 64,-36 64,0 1,46 27,60 62,62 41,1 38,61 0,64 -39,3 -58,25 -62,61 -4,40 -64,40 -64,0 0,-38 -20,-63 -61,-61 -34,1 -37,-59 0,-64z"/>
  <path class="fil4" d="M630 615c37,-6 58,-26 62,-62 3,-38 64,-36 64,0 0,46 27,61 61,62 41,1 39,61 0,64 -39,3 -57,25 -61,61 -4,40 -64,40 -64,0 0,-37 -21,-63 -62,-61 -33,1 -36,-59 0,-64z"/>
 </g>
</svg>
