<?xml version="1.0" encoding="UTF-8"?>
<!DOCTYPE svg PUBLIC "-//W3C//DTD SVG 1.1//EN" "http://www.w3.org/Graphics/SVG/1.1/DTD/svg11.dtd">
<!-- Creator: CorelDRAW X7 -->
<svg xmlns="http://www.w3.org/2000/svg" xml:space="preserve" width="91.8227mm" height="33.6724mm" version="1.1" style="shape-rendering:geometricPrecision; text-rendering:geometricPrecision; image-rendering:optimizeQuality; fill-rule:evenodd; clip-rule:evenodd"
viewBox="0 0 25179 9233"
 xmlns:xlink="http://www.w3.org/1999/xlink">
 <defs>
  <style type="text/css">
   <![CDATA[
    .fil2 {fill:#FEFEFE}
    .fil0 {fill:#39356C}
    .fil1 {fill:#5EE045}
    .fil4 {fill:#FEFEFE;fill-rule:nonzero}
    .fil3 {fill:#39356C;fill-rule:nonzero}
   ]]>
  </style>
 </defs>
 <g id="Capa_x0020_1">
  <metadata id="CorelCorpID_0Corel-Layer"/>
  <path class="fil0" d="M751 1847l23677 0c413,0 751,338 751,752l0 4189c0,413 -338,751 -751,751l-23677 0c-413,0 -751,-338 -751,-751l0 -4189c0,-414 338,-752 751,-752z"/>
  <path class="fil1" d="M751 2204l23677 0c217,0 394,177 394,395l0 4189c0,217 -177,394 -394,394l-23677 0c-217,0 -395,-177 -395,-394l0 -4189c0,-218 178,-395 395,-395z"/>
  <path class="fil2" d="M16499 1691c500,-34 1000,13 1494,91 411,65 329,663 -134,573 -622,-122 -1272,-136 -1881,58 -596,190 -834,693 -805,1292 26,528 -85,1012 -350,1469 -207,356 -488,661 -788,939 -796,740 -865,1715 -692,2732 73,434 -468,530 -605,155 -903,-2487 -664,-5049 918,-7219 268,-368 631,-638 1086,-716 649,-110 1281,204 1757,626z"/>
  <path class="fil0" d="M16428 1900c511,-45 1024,2 1534,82 142,23 129,211 -64,174 -648,-127 -1331,-143 -1982,64 -676,215 -979,788 -945,1495 48,1000 -434,1655 -1074,2250 -844,783 -942,1807 -754,2914 32,193 -162,194 -214,52 -834,-2297 -723,-4817 891,-7031 678,-930 1739,-812 2608,0z"/>
  <path class="fil2" d="M15128 4970c-315,1424 -2008,1904 -3237,2200 -385,92 -571,-463 -178,-591 475,-153 1148,-326 1499,-695 122,-128 204,-274 252,-444 134,-470 -125,-825 -500,-1081 -1465,-999 -2003,-2370 -1715,-4091 56,-335 510,-368 625,-31 272,797 952,1180 1678,1505 1404,629 1906,1739 1576,3228z"/>
  <path class="fil1" d="M14941 4928c-266,1203 -1602,1696 -3095,2055 -148,36 -234,-169 -74,-221 819,-264 1650,-471 1877,-1269 152,-535 -109,-973 -577,-1292 -1506,-1027 -1887,-2387 -1634,-3902 23,-133 201,-155 254,0 293,859 1009,1273 1781,1619 1293,578 1785,1579 1468,3010z"/>
  <path class="fil3" d="M1160 6223l1816 0c1144,0 1741,-518 1741,-1474 0,-989 -634,-1532 -1837,-1532l-1720 0 0 3006zm1516 -2347c668,0 997,280 997,856 0,597 -313,835 -997,835l-493 0 0 -1691 493 0zm3614 2397c1273,0 1933,-526 1933,-1532 0,-1023 -643,-1578 -1858,-1578 -1227,0 -1896,559 -1896,1544 0,1019 627,1566 1821,1566zm-777 -1528c0,-626 309,-973 819,-973 551,0 847,342 847,994 0,597 -284,902 -839,902 -547,0 -827,-309 -827,-923zm4896 -518l1061 0c-46,-697 -593,-1056 -1633,-1056 -1202,0 -1862,589 -1862,1611 0,927 643,1491 1775,1491 1144,0 1724,-355 1799,-1152l-1065 0c-54,350 -284,534 -659,534 -514,0 -802,-326 -802,-914 0,-614 297,-952 814,-952 326,0 518,146 572,438z"/>
  <path class="fil4" d="M17654 5979c0,90 -5,159 -17,207 -11,48 -26,81 -44,100 -18,20 -45,37 -81,52 -36,16 -78,29 -126,40 -47,11 -99,20 -156,26 -56,6 -112,9 -170,9 -152,0 -285,-20 -397,-58 -112,-39 -205,-98 -279,-179 -73,-80 -127,-181 -162,-304 -34,-123 -52,-268 -52,-435l0 -1397 -331 0c-38,0 -69,-24 -88,-72 -21,-48 -32,-128 -32,-241 0,-59 2,-110 8,-150 5,-41 13,-73 24,-97 9,-23 23,-40 38,-50 15,-11 34,-16 53,-16l328 0 0 -611c0,-19 5,-38 17,-55 11,-15 32,-29 61,-41 30,-11 70,-19 120,-25 51,-5 112,-7 186,-7 75,0 138,2 188,7 50,6 90,14 119,25 28,12 49,26 61,41 12,17 18,36 18,55l0 611 592 0c21,0 39,5 53,16 16,10 28,27 39,50 10,24 18,56 23,97 5,40 7,91 7,150 0,113 -10,193 -30,241 -21,48 -50,72 -89,72l-595 0 0 1282c0,149 23,260 70,335 47,74 131,111 251,111 40,0 77,-3 109,-10 33,-7 62,-16 87,-25 26,-9 47,-17 65,-24 16,-8 33,-11 47,-11 12,0 24,3 35,11 10,7 20,21 26,43 5,20 12,50 17,86 5,38 7,84 7,141zm2529 -1175c0,94 -21,163 -62,208 -42,45 -100,67 -174,67l-1661 0c0,116 14,221 42,316 27,94 71,174 130,240 61,65 138,116 233,150 95,34 208,52 340,52 135,0 253,-9 355,-29 101,-20 190,-41 264,-65 74,-24 136,-45 185,-65 49,-19 88,-29 119,-29 18,0 34,3 45,11 13,7 23,20 32,38 7,18 13,44 16,78 4,33 5,76 5,126 0,45 -1,83 -3,115 -3,31 -6,58 -10,80 -4,23 -9,42 -18,56 -8,16 -18,31 -32,45 -14,14 -49,34 -108,59 -60,25 -135,49 -227,73 -92,24 -196,45 -314,62 -118,18 -244,27 -379,27 -243,0 -455,-30 -637,-91 -182,-61 -334,-154 -458,-278 -122,-124 -212,-282 -273,-471 -59,-190 -90,-412 -90,-666 0,-243 32,-461 95,-656 63,-194 155,-359 276,-494 120,-136 266,-239 438,-310 173,-72 367,-108 583,-108 229,0 424,33 586,101 163,67 295,161 400,280 103,119 180,261 229,424 49,162 73,340 73,532l0 122zm-745 -219c6,-216 -38,-386 -130,-509 -93,-125 -236,-186 -430,-186 -98,0 -184,19 -256,55 -73,37 -134,86 -182,148 -48,63 -84,136 -109,221 -26,85 -41,175 -45,271l1152 0zm2836 890c0,154 -29,291 -88,410 -57,118 -140,216 -246,296 -106,80 -232,139 -377,179 -145,40 -301,59 -470,59 -103,0 -201,-7 -294,-23 -92,-15 -175,-35 -249,-59 -73,-23 -135,-47 -184,-72 -49,-25 -84,-48 -106,-70 -23,-22 -41,-55 -52,-101 -13,-45 -19,-113 -19,-203 0,-58 2,-105 6,-140 4,-36 11,-65 18,-86 8,-21 19,-36 31,-43 12,-7 27,-10 46,-10 22,0 55,12 99,38 44,26 98,55 164,85 65,31 141,60 228,86 86,28 185,41 295,41 69,0 131,-7 185,-22 54,-13 101,-34 141,-61 39,-26 69,-60 90,-102 20,-40 31,-87 31,-140 0,-62 -19,-114 -57,-158 -38,-44 -88,-82 -150,-115 -63,-32 -134,-62 -212,-92 -78,-28 -160,-59 -242,-95 -82,-34 -164,-74 -242,-119 -78,-44 -149,-99 -212,-164 -62,-65 -112,-144 -150,-235 -38,-92 -57,-203 -57,-331 0,-131 27,-249 78,-359 51,-109 124,-202 220,-280 97,-77 214,-137 352,-180 138,-43 293,-64 465,-64 87,0 169,6 250,18 81,12 155,28 220,46 65,19 121,37 165,59 45,21 78,40 98,55 19,15 33,30 41,45 8,16 14,34 18,56 4,21 8,48 11,79 4,31 5,71 5,118 0,55 -1,100 -5,135 -3,34 -8,62 -15,82 -7,21 -17,34 -29,42 -13,7 -28,10 -43,10 -19,0 -48,-10 -87,-32 -38,-21 -87,-44 -146,-68 -58,-24 -126,-47 -202,-68 -78,-22 -165,-32 -263,-32 -70,0 -131,7 -182,21 -51,14 -93,35 -126,61 -33,26 -58,58 -73,93 -17,36 -25,74 -25,114 0,64 20,117 58,160 39,42 90,80 154,112 62,33 135,64 216,92 80,28 162,60 245,93 82,33 165,73 245,118 80,45 153,100 216,165 64,66 115,143 153,234 39,90 59,198 59,322zm1653 504c0,90 -5,159 -16,207 -12,48 -26,81 -45,100 -18,20 -45,37 -80,52 -37,16 -79,29 -127,40 -47,11 -99,20 -155,26 -57,6 -113,9 -170,9 -153,0 -285,-20 -398,-58 -112,-39 -204,-98 -279,-179 -73,-80 -127,-181 -161,-304 -35,-123 -52,-268 -52,-435l0 -1397 -331 0c-39,0 -69,-24 -89,-72 -21,-48 -31,-128 -31,-241 0,-59 2,-110 7,-150 5,-41 14,-73 24,-97 9,-23 23,-40 39,-50 14,-11 33,-16 53,-16l328 0 0 -611c0,-19 5,-38 16,-55 12,-15 33,-29 62,-41 29,-11 70,-19 120,-25 50,-5 111,-7 186,-7 75,0 137,2 187,7 50,6 90,14 119,25 29,12 49,26 61,41 12,17 19,36 19,55l0 611 591 0c21,0 39,5 54,16 15,10 28,27 38,50 11,24 18,56 23,97 5,40 7,91 7,150 0,113 -10,193 -30,241 -21,48 -50,72 -89,72l-594 0 0 1282c0,149 23,260 70,335 47,74 130,111 250,111 41,0 77,-3 110,-10 32,-7 61,-16 86,-25 26,-9 47,-17 65,-24 17,-8 33,-11 47,-11 12,0 24,3 35,11 11,7 20,21 26,43 6,20 12,50 17,86 5,38 7,84 7,141z"/>
  <g id="_2831603368832">
   <path class="fil4" d="M4690 8694c0,10 0,18 -1,25 0,7 -1,13 -2,18 -1,5 -3,9 -5,13 -2,4 -5,8 -10,12 -4,4 -12,10 -25,17 -12,7 -27,14 -45,21 -18,6 -39,11 -62,16 -23,4 -48,6 -75,6 -52,0 -100,-8 -142,-24 -42,-16 -78,-41 -108,-73 -30,-32 -52,-72 -68,-120 -16,-49 -24,-105 -24,-169 0,-65 9,-123 26,-173 18,-51 42,-93 73,-128 31,-34 69,-60 112,-78 44,-18 92,-27 145,-27 21,0 41,2 61,6 20,3 38,8 55,14 17,5 32,12 45,20 14,7 23,14 29,19 5,5 9,10 11,13 2,4 3,8 4,14 1,6 2,12 3,20 1,7 1,16 1,27 0,12 -1,22 -1,30 -1,9 -3,15 -4,21 -2,5 -5,8 -7,11 -3,2 -7,3 -10,3 -6,0 -13,-3 -22,-10 -10,-7 -21,-15 -36,-23 -14,-9 -31,-16 -51,-23 -20,-7 -44,-11 -72,-11 -30,0 -57,7 -81,19 -24,13 -44,30 -61,53 -17,24 -29,52 -38,84 -9,33 -13,70 -13,111 0,45 5,84 14,117 9,33 22,60 40,81 17,22 37,38 62,48 24,11 51,16 82,16 27,0 51,-3 71,-10 20,-6 38,-14 52,-21 15,-8 26,-15 36,-22 9,-6 16,-9 21,-9 4,0 7,1 10,2 2,2 4,5 6,10 1,4 2,11 3,20 1,8 1,20 1,34zm894 -225c0,11 -1,21 -2,28 -1,8 -3,14 -5,18 -3,5 -5,8 -8,10 -4,2 -7,3 -11,3l-184 0 0 201c0,4 -1,8 -3,11 -2,3 -5,5 -10,7 -5,2 -11,4 -19,5 -8,2 -18,2 -30,2 -12,0 -22,0 -29,-2 -8,-1 -15,-3 -19,-5 -5,-2 -9,-4 -11,-7 -2,-3 -3,-7 -3,-11l0 -201 -183 0c-4,0 -7,-1 -10,-3 -3,-2 -6,-5 -8,-10 -3,-4 -4,-10 -6,-18 -1,-7 -2,-17 -2,-28 0,-10 1,-20 2,-27 1,-8 3,-14 5,-19 2,-4 5,-7 7,-10 3,-2 6,-3 10,-3l185 0 0 -201c0,-3 1,-7 3,-10 2,-4 6,-7 11,-9 4,-2 11,-4 19,-5 7,-1 17,-2 29,-2 12,0 22,1 30,2 8,1 14,3 19,5 5,2 8,5 10,9 2,3 3,7 3,10l0 201 186 0c3,0 6,1 9,3 3,3 6,6 8,10 2,5 4,11 5,19 1,7 2,17 2,27zm911 0c0,11 -1,21 -2,28 -1,8 -3,14 -5,18 -3,5 -6,8 -9,10 -3,2 -6,3 -10,3l-184 0 0 201c0,4 -1,8 -3,11 -2,3 -6,5 -10,7 -5,2 -11,4 -19,5 -8,2 -18,2 -30,2 -12,0 -22,0 -30,-2 -8,-1 -14,-3 -19,-5 -4,-2 -8,-4 -10,-7 -2,-3 -3,-7 -3,-11l0 -201 -184 0c-3,0 -7,-1 -10,-3 -2,-2 -5,-5 -7,-10 -3,-4 -5,-10 -6,-18 -2,-7 -2,-17 -2,-28 0,-10 0,-20 2,-27 1,-8 2,-14 5,-19 2,-4 4,-7 7,-10 3,-2 6,-3 10,-3l185 0 0 -201c0,-3 1,-7 3,-10 2,-4 6,-7 10,-9 5,-2 11,-4 19,-5 8,-1 18,-2 30,-2 12,0 22,1 30,2 8,1 14,3 19,5 4,2 8,5 10,9 2,3 3,7 3,10l0 201 186 0c3,0 6,1 9,3 3,3 6,6 8,10 2,5 4,11 5,19 1,7 2,17 2,27zm968 269c0,17 -1,31 -4,40 -2,9 -5,16 -8,19 -4,4 -9,8 -16,11 -7,3 -15,5 -24,7 -10,2 -20,4 -31,5 -11,2 -21,2 -33,2 -29,0 -55,-4 -77,-11 -21,-8 -39,-19 -54,-35 -14,-15 -24,-35 -31,-59 -7,-24 -10,-52 -10,-84l0 -271 -64 0c-8,0 -14,-5 -18,-14 -4,-9 -6,-25 -6,-47 0,-11 1,-21 2,-29 1,-8 2,-14 4,-19 2,-4 5,-8 8,-10 3,-2 6,-3 10,-3l64 0 0 -118c0,-4 1,-7 3,-11 2,-3 6,-5 12,-8 6,-2 13,-3 23,-4 10,-1 22,-2 36,-2 15,0 27,1 37,2 9,1 17,2 23,4 5,3 9,5 11,8 3,4 4,7 4,11l0 118 115 0c4,0 7,1 10,3 3,2 6,6 8,10 2,5 3,11 4,19 1,8 2,18 2,29 0,22 -2,38 -6,47 -4,9 -10,14 -17,14l-116 0 0 248c0,29 5,51 14,65 9,15 25,22 48,22 8,0 15,-1 22,-2 6,-1 11,-3 16,-5 5,-1 9,-3 13,-4 3,-2 6,-2 9,-2 2,0 5,0 7,2 2,1 4,4 5,8 1,4 2,10 3,17 1,7 2,16 2,27zm872 -228c0,18 -4,32 -13,40 -8,9 -19,13 -33,13l-322 0c0,23 2,43 8,62 5,18 14,33 25,46 12,13 27,23 45,29 19,7 40,10 66,10 26,0 49,-1 69,-5 20,-4 37,-8 51,-13 15,-4 26,-8 36,-12 10,-4 17,-6 23,-6 4,0 7,1 9,2 2,1 4,4 6,8 1,3 3,8 3,14 1,7 1,15 1,25 0,9 0,16 -1,22 0,6 0,12 -1,16 -1,4 -2,8 -4,11 -1,3 -3,6 -6,8 -3,3 -10,7 -21,12 -12,5 -26,9 -44,14 -18,5 -38,9 -61,12 -23,4 -47,5 -73,5 -48,0 -89,-6 -124,-17 -35,-12 -65,-30 -89,-54 -23,-24 -41,-55 -53,-92 -11,-36 -17,-80 -17,-129 0,-47 6,-89 18,-127 12,-38 30,-70 54,-96 23,-26 51,-46 85,-60 33,-14 71,-21 113,-21 44,0 82,7 113,20 32,13 58,31 78,54 20,23 35,51 44,82 10,32 15,66 15,103l0 24zm-145 -42c1,-42 -7,-75 -25,-99 -18,-24 -46,-36 -84,-36 -19,0 -35,3 -49,10 -14,8 -26,17 -35,29 -10,12 -17,27 -22,43 -5,17 -8,34 -8,53l223 0zm932 172c0,30 -6,57 -17,80 -11,23 -27,42 -48,57 -21,16 -45,27 -73,35 -28,8 -59,11 -91,11 -20,0 -39,-1 -57,-4 -18,-3 -34,-7 -49,-12 -14,-4 -26,-9 -35,-14 -10,-4 -17,-9 -21,-13 -4,-4 -8,-11 -10,-20 -3,-8 -4,-22 -4,-39 0,-11 1,-20 1,-27 1,-7 2,-13 4,-17 2,-4 4,-7 6,-8 2,-2 5,-2 9,-2 4,0 11,2 19,7 9,5 19,11 32,17 12,6 27,11 44,16 17,6 36,8 57,8 14,0 26,-1 36,-4 11,-3 20,-7 27,-12 8,-5 14,-11 18,-20 4,-7 6,-17 6,-27 0,-12 -4,-22 -11,-30 -8,-9 -17,-16 -29,-23 -12,-6 -26,-12 -41,-18 -15,-5 -31,-11 -47,-18 -16,-7 -32,-14 -47,-23 -15,-9 -29,-19 -41,-32 -12,-13 -22,-28 -29,-46 -8,-17 -11,-39 -11,-64 0,-25 5,-48 15,-69 10,-21 24,-40 42,-55 19,-15 42,-26 69,-35 26,-8 56,-12 90,-12 17,0 33,1 48,4 16,2 30,5 43,8 13,4 23,8 32,12 9,4 15,8 19,10 4,4 6,6 8,9 1,3 3,7 3,11 1,4 2,9 3,16 0,6 0,13 0,22 0,11 0,20 0,26 -1,7 -2,13 -3,16 -2,5 -4,7 -6,9 -2,1 -5,2 -8,2 -4,0 -10,-2 -17,-7 -8,-4 -17,-8 -28,-13 -12,-4 -25,-9 -40,-13 -15,-4 -32,-6 -51,-6 -13,0 -25,1 -35,4 -10,3 -18,7 -24,12 -7,5 -12,11 -15,18 -3,7 -4,14 -4,22 0,12 3,22 11,31 7,8 17,15 30,22 12,6 26,12 42,17 15,6 31,12 47,18 16,7 32,15 48,23 15,9 29,20 42,32 12,13 22,28 29,46 8,17 12,38 12,62zm702 98c0,17 -1,31 -3,40 -3,9 -5,16 -9,19 -4,4 -9,8 -16,11 -7,3 -15,5 -24,7 -9,2 -19,4 -30,5 -11,2 -22,2 -33,2 -30,0 -56,-4 -77,-11 -22,-8 -40,-19 -54,-35 -15,-15 -25,-35 -32,-59 -7,-24 -10,-52 -10,-84l0 -271 -64 0c-8,0 -13,-5 -17,-14 -4,-9 -6,-25 -6,-47 0,-11 0,-21 1,-29 1,-8 3,-14 5,-19 2,-4 4,-8 7,-10 3,-2 7,-3 10,-3l64 0 0 -118c0,-4 1,-7 3,-11 3,-3 7,-5 12,-8 6,-2 14,-3 24,-4 9,-1 21,-2 36,-2 14,0 26,1 36,2 10,1 17,2 23,4 6,3 10,5 12,8 2,4 3,7 3,11l0 118 115 0c4,0 8,1 11,3 3,2 5,6 7,10 2,5 3,11 4,19 1,8 2,18 2,29 0,22 -2,38 -6,47 -4,9 -10,14 -17,14l-116 0 0 248c0,29 5,51 14,65 9,15 25,22 49,22 7,0 15,-1 21,-2 6,-1 12,-3 17,-5 5,-1 9,-3 12,-4 3,-2 7,-2 9,-2 3,0 5,0 7,2 2,1 4,4 5,8 1,4 2,10 3,17 1,7 2,16 2,27zm531 52c0,4 -1,7 -3,10 -2,3 -7,6 -12,8 -6,2 -14,3 -23,4 -10,1 -22,2 -36,2 -15,0 -27,-1 -37,-2 -9,-1 -17,-2 -22,-4 -6,-2 -10,-5 -12,-8 -3,-3 -4,-6 -4,-10l0 -528c0,-4 1,-8 4,-11 2,-3 6,-5 12,-7 5,-3 13,-4 22,-5 10,-2 22,-2 37,-2 14,0 26,0 36,2 9,1 17,2 23,5 5,2 10,4 12,7 2,3 3,7 3,11l0 528zm13 -709c0,30 -7,51 -19,62 -12,12 -35,17 -68,17 -34,0 -57,-5 -68,-16 -12,-11 -18,-31 -18,-60 0,-30 6,-51 18,-63 12,-12 35,-17 69,-17 33,0 56,5 68,17 12,11 18,31 18,60zm933 709c0,4 -2,7 -4,10 -2,3 -6,6 -12,8 -6,2 -13,3 -23,4 -10,1 -22,2 -36,2 -15,0 -27,-1 -36,-2 -10,-1 -18,-2 -24,-4 -5,-2 -9,-5 -11,-8 -3,-3 -4,-6 -4,-10l0 -302c0,-26 -2,-46 -6,-60 -3,-15 -9,-28 -16,-38 -7,-11 -16,-19 -27,-24 -12,-6 -25,-9 -40,-9 -19,0 -38,7 -57,21 -19,14 -39,34 -60,60l0 352c0,4 -2,7 -4,10 -2,3 -6,6 -12,8 -6,2 -13,3 -23,4 -9,1 -21,2 -36,2 -15,0 -27,-1 -36,-2 -10,-1 -17,-2 -23,-4 -6,-2 -10,-5 -12,-8 -2,-3 -4,-6 -4,-10l0 -530c0,-3 1,-7 3,-10 2,-3 6,-5 11,-7 5,-2 12,-4 20,-5 8,-1 18,-1 30,-1 13,0 23,0 32,1 8,1 14,3 19,5 4,2 8,4 10,7 2,3 3,7 3,10l0 62c29,-32 59,-55 89,-71 30,-16 62,-24 95,-24 36,0 66,6 91,18 24,12 44,28 60,48 15,21 26,44 32,72 7,27 11,60 11,98l0 327zm913 -493c0,20 -2,34 -6,43 -5,9 -10,13 -16,13l-63 0c9,10 15,21 19,33 4,12 6,24 6,37 0,31 -6,58 -16,82 -10,24 -25,44 -44,61 -19,16 -42,28 -69,37 -27,8 -58,13 -91,13 -17,0 -33,-2 -48,-7 -16,-4 -28,-8 -36,-14 -5,5 -9,11 -13,18 -3,8 -5,15 -5,24 0,12 5,21 15,28 10,8 24,12 42,13l129 4c30,2 57,6 80,13 24,7 44,18 60,31 16,13 28,29 36,48 9,18 13,39 13,63 0,26 -6,51 -17,74 -12,23 -29,43 -52,60 -23,17 -51,30 -86,40 -35,10 -75,15 -121,15 -45,0 -84,-3 -116,-11 -31,-7 -58,-17 -78,-29 -20,-13 -35,-28 -44,-45 -10,-18 -14,-37 -14,-58 0,-13 1,-26 5,-38 3,-12 8,-23 14,-34 7,-11 15,-21 25,-31 9,-10 20,-19 32,-28 -17,-9 -30,-22 -39,-37 -10,-16 -14,-33 -14,-52 0,-23 5,-44 16,-64 10,-19 24,-36 41,-52 -14,-13 -24,-30 -33,-49 -8,-20 -12,-44 -12,-72 0,-31 5,-59 16,-83 11,-24 26,-45 45,-62 20,-16 43,-29 70,-38 27,-9 56,-14 89,-14 16,0 32,2 47,3 16,2 30,5 43,8l168 0c6,0 12,5 16,14 4,8 6,23 6,43zm-191 126c0,-29 -8,-51 -24,-67 -16,-15 -38,-23 -67,-23 -15,0 -28,2 -39,7 -11,5 -20,12 -27,20 -8,9 -13,19 -16,30 -4,11 -6,23 -6,35 0,27 8,48 24,64 16,16 38,23 66,23 15,0 28,-2 39,-7 11,-4 20,-11 27,-19 8,-9 13,-18 17,-29 4,-11 6,-22 6,-34zm35 422c0,-18 -7,-32 -22,-41 -14,-9 -33,-15 -58,-15l-107 -3c-10,7 -18,14 -24,21 -6,7 -11,14 -15,20 -4,6 -6,13 -7,18 -2,6 -2,13 -2,19 0,19 10,34 30,45 20,10 48,15 84,15 23,0 42,-2 57,-7 16,-4 28,-10 37,-18 10,-7 17,-16 21,-25 4,-9 6,-19 6,-29zm1946 -786c0,12 0,21 -1,28 -1,7 -2,12 -3,16 -2,4 -4,6 -6,7 -2,2 -4,3 -6,3 -3,0 -6,-1 -9,-3 -4,-1 -8,-2 -13,-4 -5,-2 -11,-3 -17,-4 -7,-2 -15,-2 -24,-2 -11,0 -20,1 -28,5 -7,3 -14,8 -19,16 -5,7 -9,16 -11,28 -2,12 -4,26 -4,43l0 48 97 0c4,0 7,1 10,3 3,2 6,6 8,10 2,5 3,11 4,19 1,8 2,18 2,29 0,22 -2,38 -6,47 -4,9 -10,14 -18,14l-97 0 0 428c0,4 -1,7 -3,10 -2,3 -6,6 -12,8 -6,2 -13,3 -23,4 -10,1 -22,2 -36,2 -15,0 -27,-1 -36,-2 -10,-1 -18,-2 -24,-4 -5,-2 -9,-5 -12,-8 -2,-3 -3,-6 -3,-10l0 -428 -66 0c-8,0 -13,-5 -17,-14 -4,-9 -6,-25 -6,-47 0,-11 1,-21 2,-29 1,-8 2,-14 4,-19 2,-4 4,-8 7,-10 3,-2 6,-3 10,-3l66 0 0 -44c0,-36 4,-68 11,-95 7,-27 18,-49 33,-67 16,-18 35,-32 58,-41 24,-9 52,-14 84,-14 15,0 30,2 44,4 14,3 24,6 32,8 8,4 14,6 16,9 3,2 5,6 7,11 2,5 3,11 4,19 1,8 1,18 1,29z"/>
   <path class="fil4" d="M14701 8310c0,14 0,26 -1,35 -1,9 -2,16 -3,21 -2,5 -4,9 -7,11 -2,2 -6,3 -10,3 -3,0 -6,-1 -10,-2 -4,-2 -9,-3 -14,-5 -5,-1 -10,-3 -16,-4 -6,-2 -12,-2 -19,-2 -9,0 -17,1 -25,5 -9,3 -17,8 -26,16 -9,7 -19,16 -28,28 -10,12 -20,26 -31,44l0 330c0,4 -2,7 -4,10 -2,3 -6,6 -12,8 -6,2 -14,3 -23,4 -9,1 -22,2 -36,2 -15,0 -27,-1 -36,-2 -10,-1 -17,-2 -23,-4 -6,-2 -10,-5 -12,-8 -3,-3 -4,-6 -4,-10l0 -530c0,-3 1,-7 3,-10 2,-3 6,-5 11,-7 5,-2 12,-4 20,-5 8,-1 18,-1 30,-1 13,0 23,0 32,1 8,1 14,3 19,5 4,2 8,4 10,7 2,3 3,7 3,10l0 66c14,-19 27,-36 39,-48 12,-13 24,-23 35,-31 11,-7 22,-13 33,-15 11,-4 22,-5 33,-5 5,0 11,0 17,1 6,0 12,1 18,3 7,1 12,3 17,5 5,1 8,3 11,5 2,2 3,4 4,7 1,2 2,5 3,10 1,4 1,10 2,18 0,9 0,20 0,34zm807 482c0,5 -2,9 -6,13 -4,3 -10,5 -19,7 -8,1 -21,2 -38,2 -18,0 -31,-1 -39,-2 -8,-2 -14,-4 -17,-7 -3,-4 -5,-8 -5,-13l0 -42c-22,23 -46,41 -74,54 -28,13 -59,19 -93,19 -28,0 -54,-3 -77,-11 -24,-7 -44,-18 -61,-32 -18,-15 -31,-33 -40,-54 -10,-21 -15,-46 -15,-74 0,-31 6,-58 18,-81 13,-23 31,-41 54,-56 24,-15 54,-26 90,-33 35,-7 76,-11 123,-11l52 0 0 -32c0,-16 -2,-31 -5,-44 -4,-12 -9,-22 -17,-31 -8,-8 -18,-14 -31,-18 -12,-4 -28,-6 -47,-6 -25,0 -47,3 -67,8 -19,6 -37,12 -52,19 -15,6 -27,13 -37,18 -10,6 -18,8 -25,8 -4,0 -8,-1 -11,-4 -4,-2 -7,-6 -9,-12 -2,-5 -3,-11 -5,-19 -1,-7 -1,-15 -1,-24 0,-13 1,-22 3,-29 1,-8 5,-14 11,-20 5,-5 15,-12 29,-18 14,-7 30,-14 48,-20 19,-6 39,-11 61,-14 22,-4 45,-6 68,-6 42,0 77,4 107,12 29,8 53,21 72,38 19,16 33,38 42,65 8,26 13,58 13,94l0 356zm-147 -227l-57 0c-24,0 -45,1 -62,5 -17,4 -30,9 -41,16 -11,7 -19,16 -23,26 -5,10 -8,21 -8,34 0,23 7,40 21,53 14,12 34,19 58,19 21,0 41,-6 58,-16 18,-11 36,-27 54,-47l0 -90zm1428 225c0,4 -1,7 -3,10 -3,3 -7,6 -12,8 -6,2 -13,3 -23,4 -9,1 -21,2 -36,2 -15,0 -28,-1 -37,-2 -10,-1 -17,-2 -23,-4 -6,-2 -10,-5 -12,-8 -2,-3 -3,-6 -3,-10l0 -314c0,-18 -2,-34 -5,-48 -3,-15 -9,-28 -16,-38 -6,-11 -15,-19 -25,-24 -11,-6 -23,-9 -38,-9 -18,0 -36,7 -54,21 -18,14 -38,34 -59,60l0 352c0,4 -1,7 -4,10 -2,3 -6,6 -12,8 -5,2 -13,3 -23,4 -9,1 -21,2 -35,2 -15,0 -27,-1 -37,-2 -9,-1 -17,-2 -22,-4 -6,-2 -10,-5 -13,-8 -2,-3 -3,-6 -3,-10l0 -314c0,-18 -2,-34 -5,-48 -4,-15 -9,-28 -15,-38 -7,-11 -16,-19 -26,-24 -11,-6 -24,-9 -38,-9 -18,0 -36,7 -54,21 -18,14 -38,34 -59,60l0 352c0,4 -1,7 -4,10 -2,3 -6,6 -12,8 -5,2 -13,3 -22,4 -10,1 -22,2 -37,2 -14,0 -26,-1 -36,-2 -9,-1 -17,-2 -23,-4 -5,-2 -9,-5 -12,-8 -2,-3 -3,-6 -3,-10l0 -530c0,-3 1,-7 3,-10 2,-3 5,-5 10,-7 5,-2 12,-4 20,-5 8,-1 18,-1 31,-1 12,0 23,0 31,1 8,1 15,3 19,5 5,2 8,4 10,7 2,3 3,7 3,10l0 62c29,-32 58,-55 88,-71 29,-16 59,-24 91,-24 22,0 41,2 59,7 17,4 32,11 46,19 14,9 25,19 35,31 10,12 19,25 25,39 16,-17 32,-31 47,-43 15,-12 30,-23 45,-30 15,-8 30,-14 44,-17 15,-4 30,-6 46,-6 35,0 65,6 89,18 24,12 43,28 58,48 15,21 25,44 32,72 6,27 9,56 9,86l0 339zm926 -280c0,18 -4,32 -12,40 -9,9 -20,13 -34,13l-322 0c0,23 2,43 8,62 5,18 14,33 25,46 12,13 27,23 45,29 19,7 41,10 66,10 26,0 49,-1 69,-5 20,-4 37,-8 51,-13 15,-4 27,-8 36,-12 10,-4 17,-6 23,-6 4,0 7,1 9,2 3,1 5,4 6,8 2,3 3,8 3,14 1,7 1,15 1,25 0,9 0,16 0,22 -1,6 -1,12 -2,16 -1,4 -2,8 -4,11 -1,3 -3,6 -6,8 -3,3 -9,7 -21,12 -12,5 -26,9 -44,14 -18,5 -38,9 -61,12 -23,4 -47,5 -73,5 -47,0 -89,-6 -124,-17 -35,-12 -65,-30 -89,-54 -23,-24 -41,-55 -53,-92 -11,-36 -17,-80 -17,-129 0,-47 6,-89 18,-127 13,-38 30,-70 54,-96 23,-26 51,-46 85,-60 33,-14 71,-21 113,-21 44,0 82,7 114,20 31,13 57,31 77,54 20,23 35,51 45,82 9,32 14,66 14,103l0 24zm-145 -42c1,-42 -7,-75 -25,-99 -18,-24 -46,-36 -83,-36 -19,0 -36,3 -50,10 -14,8 -26,17 -35,29 -10,12 -17,27 -22,43 -5,17 -7,34 -8,53l223 0zm1362 -209c0,5 -1,10 -2,16 -1,7 -3,16 -6,28l-141 479c-2,6 -5,12 -8,16 -3,4 -8,7 -14,10 -7,2 -16,4 -28,4 -12,1 -28,2 -48,2 -19,0 -35,-1 -47,-2 -12,-1 -22,-3 -29,-5 -7,-2 -12,-6 -15,-10 -3,-4 -6,-9 -7,-15l-89 -322 -2 -5 -1 5 -82 322c-1,6 -4,12 -6,16 -3,4 -8,7 -16,10 -7,2 -16,4 -29,4 -12,1 -28,2 -47,2 -20,0 -36,-1 -48,-2 -12,-1 -21,-3 -28,-5 -7,-2 -12,-6 -16,-10 -3,-4 -5,-9 -7,-15l-140 -479c-4,-12 -6,-21 -7,-27 -1,-7 -1,-12 -1,-17 0,-4 1,-7 3,-10 2,-3 6,-5 12,-7 6,-2 13,-3 23,-4 10,-1 22,-1 37,-1 15,0 28,0 38,1 10,1 18,2 23,4 6,2 9,5 12,8 2,4 3,8 5,12l105 389 1 7 2 -7 98 -389c1,-4 3,-8 6,-12 2,-3 6,-6 11,-8 5,-2 13,-3 22,-4 9,-1 21,-1 36,-1 15,0 26,0 36,1 9,1 16,3 21,4 6,2 9,4 11,8 3,3 4,6 5,10l107 392 1 6 2 -7 100 -389c1,-4 3,-8 5,-12 2,-3 6,-6 12,-8 5,-2 13,-3 22,-4 10,-1 22,-1 36,-1 15,0 27,0 36,1 10,1 17,2 22,4 6,2 9,4 11,7 2,3 3,6 3,10zm911 261c0,45 -6,86 -18,123 -12,37 -30,69 -54,96 -24,27 -54,48 -91,62 -36,15 -78,22 -127,22 -47,0 -88,-6 -123,-19 -35,-13 -64,-32 -87,-57 -22,-25 -39,-56 -51,-92 -11,-36 -16,-78 -16,-125 0,-44 6,-86 18,-123 12,-37 30,-69 54,-96 24,-27 55,-47 91,-62 36,-15 78,-22 127,-22 47,0 89,7 123,19 35,13 64,32 87,57 22,25 39,55 50,92 12,36 17,78 17,125zm-153 6c0,-26 -2,-50 -6,-72 -5,-22 -11,-41 -22,-58 -9,-16 -23,-28 -39,-38 -17,-9 -37,-13 -62,-13 -23,0 -42,4 -59,12 -16,8 -30,20 -41,36 -11,15 -19,34 -24,56 -6,22 -8,47 -8,75 0,26 2,50 6,72 5,22 12,41 22,57 9,17 22,29 39,38 17,9 38,13 62,13 23,0 43,-4 59,-12 17,-8 31,-20 41,-35 11,-16 19,-34 24,-56 5,-22 8,-47 8,-75zm903 -216c0,14 -1,26 -2,35 0,9 -2,16 -3,21 -2,5 -4,9 -6,11 -3,2 -6,3 -10,3 -3,0 -7,-1 -11,-2 -4,-2 -8,-3 -13,-5 -5,-1 -11,-3 -17,-4 -6,-2 -12,-2 -19,-2 -8,0 -17,1 -25,5 -8,3 -17,8 -26,16 -9,7 -18,16 -28,28 -10,12 -20,26 -31,44l0 330c0,4 -1,7 -4,10 -2,3 -6,6 -12,8 -6,2 -13,3 -23,4 -9,1 -21,2 -36,2 -14,0 -26,-1 -36,-2 -9,-1 -17,-2 -23,-4 -6,-2 -10,-5 -12,-8 -2,-3 -3,-6 -3,-10l0 -530c0,-3 1,-7 3,-10 1,-3 5,-5 10,-7 5,-2 12,-4 20,-5 8,-1 18,-1 30,-1 13,0 24,0 32,1 8,1 15,3 19,5 5,2 8,4 10,7 2,3 3,7 3,10l0 66c14,-19 27,-36 39,-48 12,-13 24,-23 35,-31 11,-7 22,-13 34,-15 10,-4 22,-5 33,-5 5,0 10,0 16,1 6,0 12,1 19,3 6,1 12,3 16,5 5,1 9,3 11,5 2,2 4,4 5,7 1,2 1,5 2,10 1,4 2,10 2,18 0,9 1,20 1,34zm874 481c0,3 -1,7 -3,10 -2,3 -6,5 -12,7 -6,2 -14,3 -24,4 -10,1 -22,2 -38,2 -16,0 -30,-1 -40,-2 -10,0 -18,-2 -25,-3 -6,-2 -11,-5 -15,-8 -3,-3 -7,-7 -9,-12l-176 -279 0 280c0,4 -2,7 -4,10 -2,3 -6,6 -12,8 -6,2 -14,3 -23,4 -9,1 -22,2 -36,2 -15,0 -27,-1 -36,-2 -10,-1 -17,-2 -23,-4 -6,-2 -10,-5 -12,-8 -3,-3 -4,-6 -4,-10l0 -780c0,-4 1,-8 4,-11 2,-3 6,-6 12,-8 6,-2 13,-4 23,-5 9,-1 21,-2 36,-2 14,0 27,1 36,2 9,1 17,3 23,5 6,2 10,5 12,8 2,3 4,7 4,11l0 464 156 -211c3,-4 7,-8 11,-12 4,-3 9,-6 16,-8 6,-2 14,-4 24,-5 10,-1 22,-1 37,-1 14,0 27,0 37,1 10,1 18,3 24,5 6,2 11,4 13,7 2,3 3,7 3,11 0,6 -1,12 -4,19 -3,7 -8,14 -13,22l-155 175 179 277c5,8 9,15 11,21 2,5 3,11 3,16z"/>
  </g>
 </g>
</svg>
