<?xml version="1.0" encoding="UTF-8"?>
<!DOCTYPE svg PUBLIC "-//W3C//DTD SVG 1.1//EN" "http://www.w3.org/Graphics/SVG/1.1/DTD/svg11.dtd">
<!-- Creator: CorelDRAW X7 -->
<svg xmlns="http://www.w3.org/2000/svg" xml:space="preserve" width="115.26mm" height="48.9477mm" version="1.1" style="shape-rendering:geometricPrecision; text-rendering:geometricPrecision; image-rendering:optimizeQuality; fill-rule:evenodd; clip-rule:evenodd"
viewBox="0 0 5857 2487"
 xmlns:xlink="http://www.w3.org/1999/xlink">
 <defs>
  <style type="text/css">
   <![CDATA[
    .fil1 {fill:#FEFEFE}
    .fil0 {fill:#39356C}
    .fil2 {fill:#5EE045}
    .fil3 {fill:#FEFEFE;fill-rule:nonzero}
    .fil4 {fill:#5EE045;fill-rule:nonzero}
   ]]>
  </style>
 </defs>
 <g id="Capa_x0020_1">
  <metadata id="CorelCorpID_0Corel-Layer"/>
  <path class="fil0" d="M248 0l5361 0c136,0 248,112 248,248l0 1991c0,137 -112,248 -248,248l-5361 0c-136,0 -248,-111 -248,-248l0 -1991c0,-136 112,-248 248,-248z"/>
  <path class="fil1" d="M708 674l4387 0c77,0 140,62 140,139l0 776c0,77 -63,139 -140,139l-4387 0c-77,0 -140,-62 -140,-139l0 -776c0,-77 63,-139 140,-139z"/>
  <path class="fil0" d="M708 740l4387 0c41,0 73,33 73,73l0 776c0,40 -32,73 -73,73l-4387 0c-41,0 -74,-33 -74,-73l0 -776c0,-40 33,-73 74,-73z"/>
  <path class="fil1" d="M3626 645c93,-7 185,2 277,17 76,12 61,122 -25,106 -115,-23 -236,-25 -349,10 -110,36 -154,129 -149,240 5,98 -15,187 -65,272 -38,66 -90,123 -146,174 -147,137 -160,318 -128,506 14,81 -87,99 -112,29 -167,-461 -123,-935 170,-1338 50,-68 117,-118 201,-132 121,-21 238,37 326,116z"/>
  <path class="fil0" d="M3613 683c95,-8 190,1 284,16 26,4 24,39 -12,32 -120,-24 -246,-27 -367,12 -125,40 -182,146 -175,277 9,185 -81,307 -199,417 -157,145 -175,335 -140,540 6,35 -30,36 -40,9 -154,-425 -134,-892 166,-1303 125,-172 322,-150 483,0z"/>
  <path class="fil1" d="M3372 1252c-58,264 -372,353 -600,408 -71,17 -106,-86 -33,-109 88,-29 213,-61 278,-129 22,-24 38,-51 47,-83 24,-87 -24,-152 -93,-200 -272,-185 -371,-439 -318,-758 10,-62 95,-68 116,-6 50,148 176,219 311,279 260,117 353,322 292,598z"/>
  <path class="fil2" d="M3337 1245c-49,222 -297,314 -573,380 -28,7 -44,-31 -14,-41 152,-49 306,-87 348,-235 28,-99 -20,-180 -107,-239 -279,-190 -350,-442 -303,-723 4,-25 37,-29 47,0 54,159 187,236 330,300 240,107 331,292 272,558z"/>
  <path class="fil3" d="M783 1484l337 0c212,0 323,-95 323,-273 0,-183 -118,-284 -341,-284l-319 0 0 557zm281 -434c124,0 185,52 185,158 0,111 -58,155 -185,155l-91 0 0 -313 91 0zm670 444c236,0 358,-98 358,-284 0,-190 -119,-293 -344,-293 -228,0 -351,104 -351,287 0,188 116,290 337,290zm-144 -283c0,-116 57,-181 152,-181 102,0 157,64 157,184 0,111 -53,168 -156,168 -101,0 -153,-58 -153,-171zm907 -96l197 0c-9,-130 -110,-196 -303,-196 -222,0 -345,109 -345,299 0,171 120,276 329,276 212,0 320,-66 334,-214l-198 0c-10,65 -52,99 -122,99 -95,0 -148,-60 -148,-169 0,-114 54,-177 150,-177 61,0 96,28 106,82z"/>
  <path class="fil4" d="M3840 1439c0,17 -1,30 -3,39 -2,8 -5,15 -8,18 -4,4 -9,7 -15,10 -7,3 -15,5 -24,7 -8,2 -18,4 -28,5 -11,1 -21,2 -32,2 -28,0 -53,-4 -74,-11 -20,-7 -38,-18 -51,-33 -14,-15 -24,-34 -30,-57 -7,-22 -10,-49 -10,-80l0 -259 -61 0c-7,0 -13,-4 -17,-13 -4,-9 -6,-24 -6,-45 0,-11 1,-20 2,-28 1,-7 2,-13 4,-18 2,-4 5,-7 7,-9 3,-2 7,-3 10,-3l61 0 0 -113c0,-4 1,-7 3,-10 2,-3 6,-6 12,-8 5,-2 12,-4 22,-5 9,-1 20,-1 34,-1 14,0 26,0 35,1 9,1 17,3 22,5 5,2 9,5 11,8 3,3 4,6 4,10l0 113 109 0c4,0 8,1 10,3 3,2 5,5 7,9 2,5 4,11 5,18 1,8 1,17 1,28 0,21 -2,36 -6,45 -3,9 -9,13 -16,13l-110 0 0 237c0,28 4,49 13,63 8,13 24,20 46,20 8,0 14,0 20,-2 6,-1 12,-3 16,-4 5,-2 9,-3 12,-5 4,-1 7,-2 9,-2 2,0 5,1 7,2 2,2 3,4 5,8 1,4 2,9 3,16 1,7 1,16 1,26zm469 -217c0,17 -4,30 -12,38 -8,8 -18,13 -32,13l-308 0c0,21 3,40 8,58 5,17 13,32 24,44 11,13 26,22 43,28 18,7 39,10 63,10 25,0 47,-2 66,-5 19,-4 35,-8 49,-12 14,-5 25,-9 34,-12 9,-4 17,-6 22,-6 4,0 7,1 9,2 2,1 4,4 5,7 2,4 3,8 4,15 0,6 0,14 0,23 0,8 0,15 0,21 -1,6 -1,11 -2,15 -1,4 -2,8 -3,11 -2,3 -4,5 -6,8 -3,2 -9,6 -20,11 -11,4 -25,9 -42,13 -17,5 -37,9 -59,12 -21,3 -45,5 -70,5 -45,0 -84,-6 -118,-17 -34,-11 -62,-29 -85,-52 -22,-23 -39,-52 -50,-87 -11,-35 -17,-76 -17,-123 0,-45 6,-86 18,-122 11,-36 28,-66 51,-91 22,-26 49,-45 81,-58 32,-13 68,-20 108,-20 42,0 79,6 109,19 30,12 54,30 74,52 19,22 33,48 42,78 9,30 14,63 14,99l0 23zm-138 -41c1,-40 -7,-72 -25,-94 -17,-23 -43,-35 -79,-35 -18,0 -34,4 -48,10 -13,7 -24,16 -33,28 -9,11 -16,25 -21,41 -4,16 -7,32 -8,50l214 0zm525 165c0,29 -5,54 -16,76 -11,22 -26,40 -46,55 -19,15 -43,26 -70,33 -26,7 -55,11 -87,11 -19,0 -37,-1 -54,-4 -17,-3 -33,-7 -46,-11 -14,-5 -25,-9 -34,-14 -9,-4 -16,-9 -20,-13 -4,-4 -8,-10 -10,-18 -2,-9 -3,-21 -3,-38 0,-11 0,-19 1,-26 1,-7 2,-12 3,-16 2,-4 4,-6 6,-8 2,-1 5,-2 9,-2 4,0 10,3 18,7 8,5 18,10 30,16 12,6 26,11 42,16 16,5 35,8 55,8 13,0 25,-2 34,-4 10,-3 19,-7 26,-12 8,-5 13,-11 17,-19 4,-7 6,-16 6,-26 0,-11 -4,-21 -11,-29 -7,-8 -16,-15 -27,-21 -12,-6 -25,-12 -40,-17 -14,-5 -29,-11 -44,-18 -16,-6 -31,-14 -45,-22 -15,-8 -28,-18 -40,-30 -11,-12 -20,-27 -27,-44 -7,-17 -11,-37 -11,-61 0,-24 5,-46 14,-67 10,-20 23,-37 41,-52 18,-14 40,-25 65,-33 26,-8 55,-12 87,-12 16,0 31,1 46,3 15,3 29,6 41,9 12,3 22,7 30,11 9,4 15,7 18,10 4,3 7,6 8,9 1,2 3,6 3,10 1,4 2,9 3,15 0,5 0,13 0,21 0,11 0,19 0,25 -1,7 -2,12 -3,16 -2,3 -3,6 -6,7 -2,2 -5,2 -8,2 -3,0 -9,-2 -16,-6 -7,-4 -16,-8 -27,-12 -11,-5 -23,-9 -37,-13 -15,-4 -31,-6 -49,-6 -13,0 -24,1 -34,4 -9,3 -17,7 -23,11 -6,5 -11,11 -14,18 -3,6 -4,13 -4,21 0,12 3,21 11,29 7,8 16,15 28,21 12,6 25,12 40,17 15,5 30,11 45,17 16,7 31,14 46,22 15,9 28,19 40,31 12,12 21,26 28,43 7,17 11,37 11,60zm307 93c0,17 -1,30 -4,39 -2,8 -4,15 -8,18 -3,4 -8,7 -15,10 -6,3 -14,5 -23,7 -9,2 -18,4 -29,5 -10,1 -21,2 -31,2 -29,0 -53,-4 -74,-11 -21,-7 -38,-18 -52,-33 -13,-15 -23,-34 -30,-57 -6,-22 -9,-49 -9,-80l0 -259 -62 0c-7,0 -12,-4 -16,-13 -4,-9 -6,-24 -6,-45 0,-11 0,-20 1,-28 1,-7 3,-13 5,-18 2,-4 4,-7 7,-9 3,-2 6,-3 10,-3l61 0 0 -113c0,-4 1,-7 3,-10 2,-3 6,-6 11,-8 6,-2 13,-4 22,-5 10,-1 21,-1 35,-1 14,0 25,0 35,1 9,1 16,3 22,5 5,2 9,5 11,8 2,3 3,6 3,10l0 113 110 0c4,0 7,1 10,3 3,2 5,5 7,9 2,5 3,11 4,18 1,8 2,17 2,28 0,21 -2,36 -6,45 -4,9 -9,13 -16,13l-111 0 0 237c0,28 5,49 13,63 9,13 24,20 47,20 7,0 14,0 20,-2 6,-1 11,-3 16,-4 5,-2 9,-3 12,-5 3,-1 6,-2 9,-2 2,0 4,1 6,2 2,2 4,4 5,8 1,4 2,9 3,16 1,7 2,16 2,26z"/>
  <g id="_2831609529792">
   <path class="fil3" d="M1438 1942c0,2 0,4 -1,5 0,1 0,3 0,3 0,1 -1,2 -1,3 0,0 -1,1 -2,2 0,1 -2,2 -4,3 -3,2 -5,3 -9,4 -3,1 -7,2 -11,3 -4,1 -9,1 -14,1 -10,0 -19,-1 -26,-4 -8,-3 -15,-8 -20,-14 -6,-6 -10,-13 -13,-22 -3,-9 -4,-19 -4,-31 0,-12 1,-23 4,-32 4,-10 8,-18 14,-24 6,-6 13,-11 21,-15 8,-3 17,-5 26,-5 4,0 8,1 12,1 4,1 7,2 10,3 3,1 6,2 8,4 3,1 5,2 6,3 1,1 1,2 2,3 0,0 0,1 0,2 1,1 1,3 1,4 0,1 0,3 0,5 0,2 0,4 0,6 0,1 0,2 -1,3 0,1 -1,2 -1,2 -1,1 -1,1 -2,1 -1,0 -2,-1 -4,-2 -2,-1 -4,-2 -7,-4 -2,-2 -5,-3 -9,-4 -4,-2 -8,-2 -13,-2 -6,0 -11,1 -15,3 -5,3 -9,6 -12,10 -3,4 -5,10 -7,16 -1,6 -2,13 -2,20 0,8 1,16 2,22 2,6 5,11 8,15 3,4 7,7 11,9 5,2 10,3 15,3 6,0 10,-1 14,-2 3,-1 7,-3 9,-4 3,-2 5,-3 7,-4 2,-1 3,-2 4,-2 1,0 1,0 2,1 0,0 0,0 1,1 0,1 0,2 0,4 1,2 1,4 1,6zm165 -41c0,2 0,4 0,5 0,1 -1,2 -1,3 -1,1 -1,2 -2,2 0,1 -1,1 -1,1l-35 0 0 37c0,1 0,1 0,2 -1,0 -1,1 -2,1 -1,1 -2,1 -4,1 -1,0 -3,1 -5,1 -2,0 -4,-1 -6,-1 -1,0 -2,0 -3,-1 -1,0 -2,-1 -2,-1 0,-1 -1,-1 -1,-2l0 -37 -34 0c0,0 -1,0 -1,-1 -1,0 -1,-1 -2,-2 0,-1 -1,-2 -1,-3 0,-1 0,-3 0,-5 0,-2 0,-4 0,-5 0,-2 1,-3 1,-4 0,-1 1,-1 1,-2 1,0 1,0 2,0l34 0 0 -37c0,-1 1,-2 1,-2 0,-1 1,-2 2,-2 1,0 2,-1 3,-1 2,0 4,0 6,0 2,0 4,0 5,0 2,0 3,1 4,1 1,0 1,1 2,2 0,0 0,1 0,2l0 37 35 0c0,0 1,0 2,0 0,1 1,1 1,2 0,1 1,2 1,4 0,1 0,3 0,5zm169 0c0,2 0,4 0,5 -1,1 -1,2 -1,3 -1,1 -1,2 -2,2 0,1 -1,1 -2,1l-34 0 0 37c0,1 0,1 0,2 -1,0 -1,1 -2,1 -1,1 -2,1 -4,1 -1,0 -3,1 -5,1 -3,0 -4,-1 -6,-1 -1,0 -2,0 -3,-1 -1,0 -2,-1 -2,-1 -1,-1 -1,-1 -1,-2l0 -37 -34 0c-1,0 -1,0 -2,-1 0,0 -1,-1 -1,-2 -1,-1 -1,-2 -1,-3 0,-1 -1,-3 -1,-5 0,-2 1,-4 1,-5 0,-2 0,-3 1,-4 0,-1 1,-1 1,-2 1,0 1,0 2,0l34 0 0 -37c0,-1 0,-2 1,-2 0,-1 1,-2 2,-2 1,0 2,-1 3,-1 2,0 3,0 6,0 2,0 4,0 5,0 2,0 3,1 4,1 1,0 1,1 2,2 0,0 0,1 0,2l0 37 35 0c0,0 1,0 1,0 1,1 1,1 2,2 0,1 0,2 1,4 0,1 0,3 0,5zm179 50c0,3 0,5 0,7 -1,2 -1,3 -2,4 0,0 -1,1 -3,1 -1,1 -3,2 -4,2 -2,0 -4,1 -6,1 -2,0 -4,0 -6,0 -5,0 -10,-1 -14,-2 -4,-1 -8,-3 -10,-6 -3,-3 -5,-7 -6,-11 -1,-5 -2,-10 -2,-16l0 -50 -12 0c-1,0 -2,-1 -3,-3 -1,-1 -1,-4 -1,-8 0,-2 0,-4 0,-6 0,-1 1,-2 1,-3 0,-1 1,-2 1,-2 1,0 2,-1 2,-1l12 0 0 -22c0,0 0,-1 1,-2 0,0 1,-1 2,-1 1,0 2,-1 4,-1 2,0 4,0 7,0 3,0 5,0 7,0 1,0 3,1 4,1 1,0 2,1 2,1 0,1 1,2 1,2l0 22 21 0c1,0 1,1 2,1 0,0 1,1 1,2 1,1 1,2 1,3 0,2 0,4 0,6 0,4 0,7 -1,8 0,2 -2,3 -3,3l-21 0 0 46c0,5 1,9 2,12 2,3 5,4 9,4 2,0 3,0 4,0 1,-1 2,-1 3,-1 1,-1 2,-1 3,-1 0,0 1,-1 1,-1 1,0 1,1 2,1 0,0 0,1 1,1 0,1 0,2 0,4 0,1 0,3 0,5zm162 -43c0,4 -1,6 -2,8 -2,1 -4,2 -7,2l-59 0c0,4 0,8 1,12 1,3 3,6 5,8 2,3 5,4 8,6 4,1 8,1 13,1 4,0 9,0 12,-1 4,0 7,-1 10,-2 2,-1 5,-2 6,-2 2,-1 4,-1 5,-1 0,0 1,0 1,0 1,0 1,1 2,1 0,1 0,2 0,3 0,1 0,3 0,5 0,1 0,3 0,4 0,1 0,2 0,3 0,1 -1,1 -1,2 0,0 -1,1 -1,1 0,1 -2,2 -4,3 -2,0 -5,1 -8,2 -3,1 -7,2 -11,2 -5,1 -9,1 -14,1 -9,0 -16,-1 -23,-3 -6,-2 -12,-5 -16,-10 -5,-4 -8,-10 -10,-17 -2,-7 -3,-15 -3,-24 0,-8 1,-16 3,-23 2,-7 6,-13 10,-18 4,-5 10,-9 16,-11 6,-3 13,-4 21,-4 8,0 15,1 21,4 6,2 10,5 14,10 4,4 7,9 8,15 2,6 3,12 3,19l0 4zm-27 -8c0,-7 -1,-13 -4,-18 -4,-4 -9,-7 -16,-7 -3,0 -7,1 -9,2 -3,2 -5,4 -7,6 -1,2 -3,5 -4,8 -1,3 -1,6 -1,9l41 0zm173 32c0,6 -1,11 -3,15 -2,4 -5,8 -9,11 -4,3 -9,5 -14,6 -5,2 -11,2 -17,2 -3,0 -7,0 -10,0 -4,-1 -6,-2 -9,-3 -3,0 -5,-1 -7,-2 -2,-1 -3,-2 -4,-3 0,0 -1,-2 -1,-3 -1,-2 -1,-4 -1,-8 0,-2 0,-3 0,-5 0,-1 0,-2 1,-3 0,0 0,-1 1,-1 0,-1 1,-1 2,-1 0,0 2,1 3,2 2,1 4,2 6,3 2,1 5,2 8,3 3,1 7,1 11,1 2,0 4,0 6,0 2,-1 4,-2 5,-3 2,-1 3,-2 4,-3 0,-2 1,-3 1,-5 0,-3 -1,-4 -2,-6 -2,-2 -3,-3 -6,-4 -2,-1 -4,-2 -7,-3 -3,-1 -6,-3 -9,-4 -3,-1 -6,-2 -9,-4 -2,-2 -5,-4 -7,-6 -2,-2 -4,-5 -6,-8 -1,-4 -2,-8 -2,-12 0,-5 1,-9 3,-13 2,-4 5,-8 8,-10 4,-3 8,-5 13,-7 5,-1 10,-2 16,-2 4,0 6,0 9,1 3,0 6,1 8,1 3,1 5,2 6,2 2,1 3,2 4,2 0,1 1,1 1,2 0,0 1,1 1,2 0,1 0,2 0,3 0,1 0,2 0,4 0,2 0,4 0,5 0,1 0,2 0,3 -1,1 -1,1 -1,1 -1,1 -1,1 -2,1 -1,0 -2,-1 -3,-1 -1,-1 -3,-2 -5,-3 -2,-1 -5,-2 -8,-2 -2,-1 -5,-2 -9,-2 -2,0 -5,1 -6,1 -2,1 -4,2 -5,2 -1,1 -2,3 -3,4 0,1 -1,2 -1,4 0,2 1,4 3,6 1,1 3,3 5,4 2,1 5,2 8,3 3,1 6,2 9,3 3,2 6,3 8,5 3,1 6,3 8,5 2,3 4,6 6,9 1,3 2,7 2,11zm130 19c0,3 0,5 -1,7 0,2 -1,3 -1,4 -1,0 -2,1 -3,1 -1,1 -3,2 -5,2 -1,0 -3,1 -5,1 -2,0 -4,0 -6,0 -6,0 -11,-1 -15,-2 -4,-1 -7,-3 -10,-6 -2,-3 -4,-7 -6,-11 -1,-5 -1,-10 -1,-16l0 -50 -12 0c-2,0 -3,-1 -3,-3 -1,-1 -2,-4 -2,-8 0,-2 0,-4 1,-6 0,-1 0,-2 1,-3 0,-1 0,-2 1,-2 0,0 1,-1 2,-1l12 0 0 -22c0,0 0,-1 0,-2 1,0 1,-1 2,-1 1,0 3,-1 5,-1 2,0 4,0 6,0 3,0 5,0 7,0 2,0 3,1 4,1 1,0 2,1 3,1 0,1 0,2 0,2l0 22 22 0c0,0 1,1 1,1 1,0 1,1 2,2 0,1 1,2 1,3 0,2 0,4 0,6 0,4 0,7 -1,8 -1,2 -2,3 -3,3l-22 0 0 46c0,5 1,9 3,12 2,3 5,4 9,4 1,0 3,0 4,0 1,-1 2,-1 3,-1 1,-1 2,-1 2,-1 1,0 1,-1 2,-1 0,0 1,1 1,1 1,0 1,1 1,1 0,1 1,2 1,4 0,1 0,3 0,5zm98 9c0,1 0,2 0,2 -1,1 -1,1 -2,2 -2,0 -3,0 -5,0 -1,1 -4,1 -6,1 -3,0 -5,0 -7,-1 -2,0 -3,0 -4,0 -1,-1 -2,-1 -3,-2 0,0 0,-1 0,-2l0 -98c0,0 0,-1 0,-2 1,0 2,-1 3,-1 1,0 2,-1 4,-1 2,0 4,0 7,0 2,0 5,0 6,0 2,0 3,1 5,1 1,0 1,1 2,1 0,1 0,2 0,2l0 98zm3 -131c0,5 -1,9 -4,11 -2,2 -6,4 -12,4 -7,0 -11,-1 -13,-4 -2,-2 -3,-5 -3,-11 0,-5 1,-9 3,-11 2,-2 7,-4 13,-4 6,0 10,2 12,4 3,2 4,5 4,11zm173 131c0,1 -1,2 -1,2 0,1 -1,1 -2,2 -1,0 -3,0 -5,0 -1,1 -4,1 -6,1 -3,0 -5,0 -7,-1 -2,0 -3,0 -4,0 -1,-1 -2,-1 -2,-2 -1,0 -1,-1 -1,-2l0 -56c0,-4 0,-8 -1,-11 -1,-3 -2,-5 -3,-7 -1,-2 -3,-3 -5,-4 -2,-1 -5,-2 -8,-2 -3,0 -7,1 -10,4 -4,2 -7,6 -11,11l0 65c0,1 -1,2 -1,2 0,1 -1,1 -2,2 -1,0 -3,0 -4,0 -2,1 -4,1 -7,1 -3,0 -5,0 -7,-1 -2,0 -3,0 -4,0 -1,-1 -2,-1 -2,-2 -1,0 -1,-1 -1,-2l0 -98c0,-1 0,-1 1,-2 0,0 1,-1 1,-1 1,-1 3,-1 4,-1 2,0 4,0 6,0 2,0 4,0 6,0 1,0 2,0 3,1 1,0 2,1 2,1 0,1 1,1 1,2l0 11c5,-5 11,-10 16,-13 6,-3 12,-4 18,-4 6,0 12,1 17,3 4,2 8,5 11,9 2,4 4,8 6,13 1,5 2,12 2,19l0 60zm169 -91c0,3 0,6 -1,8 -1,1 -2,2 -3,2l-12 0c2,2 3,4 4,6 0,3 1,5 1,7 0,6 -1,11 -3,15 -2,5 -5,9 -8,12 -4,3 -8,5 -13,7 -5,1 -11,2 -17,2 -3,0 -6,0 -9,-1 -3,-1 -5,-2 -7,-3 0,1 -1,2 -2,4 -1,1 -1,2 -1,4 0,2 1,4 3,5 2,2 4,2 8,2l24 1c5,0 10,1 14,3 5,1 8,3 11,5 3,3 6,6 7,9 2,4 3,8 3,12 0,5 -1,9 -4,14 -2,4 -5,8 -9,11 -4,3 -10,5 -16,7 -7,2 -14,3 -23,3 -8,0 -15,-1 -21,-2 -6,-1 -11,-3 -14,-5 -4,-3 -7,-6 -9,-9 -1,-3 -2,-7 -2,-11 0,-2 0,-4 1,-7 0,-2 1,-4 2,-6 2,-2 3,-4 5,-6 2,-1 4,-3 6,-5 -3,-2 -6,-4 -7,-7 -2,-3 -3,-6 -3,-9 0,-5 1,-9 3,-12 2,-4 4,-7 8,-10 -3,-2 -5,-5 -6,-9 -2,-4 -3,-8 -3,-13 0,-6 1,-11 3,-16 2,-4 5,-8 9,-11 3,-3 7,-6 12,-7 5,-2 11,-3 17,-3 3,0 6,1 9,1 3,0 5,1 8,1l31 0c1,0 2,1 3,3 1,1 1,4 1,8zm-36 23c0,-5 -1,-9 -4,-12 -3,-3 -7,-5 -12,-5 -3,0 -5,1 -8,2 -2,1 -3,2 -5,4 -1,1 -2,3 -3,5 0,2 -1,4 -1,7 0,5 2,9 5,11 3,3 7,5 12,5 3,0 5,-1 7,-2 2,0 4,-2 5,-3 2,-2 3,-3 3,-5 1,-3 1,-5 1,-7zm7 78c0,-3 -1,-5 -4,-7 -3,-2 -6,-3 -11,-3l-20 -1c-1,2 -3,3 -4,4 -1,2 -2,3 -3,4 -1,1 -1,2 -1,3 0,2 -1,3 -1,4 0,4 2,6 6,8 4,2 9,3 16,3 4,0 7,0 10,-1 3,-1 5,-2 7,-4 2,-1 3,-2 4,-4 1,-2 1,-4 1,-6zm361 -145c0,2 0,4 -1,5 0,1 0,2 0,3 -1,1 -1,1 -1,1 -1,1 -1,1 -1,1 -1,0 -2,0 -2,-1 -1,0 -1,0 -2,-1 -1,0 -2,0 -4,0 -1,-1 -2,-1 -4,-1 -2,0 -4,1 -5,1 -2,1 -3,2 -4,3 -1,2 -1,3 -2,5 0,3 0,5 0,8l0 9 18 0c0,0 1,1 1,1 1,0 1,1 2,2 0,1 0,2 1,3 0,2 0,4 0,6 0,4 -1,7 -1,8 -1,2 -2,3 -3,3l-18 0 0 79c0,1 -1,2 -1,2 -1,1 -1,1 -2,2 -1,0 -3,0 -5,0 -1,1 -4,1 -6,1 -3,0 -5,0 -7,-1 -2,0 -3,0 -4,0 -1,-1 -2,-1 -3,-2 0,0 0,-1 0,-2l0 -79 -12 0c-2,0 -3,-1 -4,-3 0,-1 -1,-4 -1,-8 0,-2 1,-4 1,-6 0,-1 0,-2 0,-3 1,-1 1,-2 2,-2 0,0 1,-1 2,-1l12 0 0 -8c0,-7 1,-12 2,-17 1,-5 3,-10 6,-13 3,-3 7,-6 11,-7 4,-2 9,-3 15,-3 3,0 6,0 8,1 3,0 5,1 6,1 2,1 3,1 3,2 1,0 1,1 2,2 0,1 0,2 0,3 1,2 1,4 1,6z"/>
   <path class="fil3" d="M3293 1871c0,3 0,5 0,7 -1,1 -1,3 -1,4 0,1 -1,1 -1,2 -1,0 -1,0 -2,0 -1,0 -1,0 -2,0 -1,0 -2,-1 -3,-1 0,0 -1,-1 -3,-1 -1,0 -2,0 -3,0 -2,0 -3,0 -5,1 -1,0 -3,1 -5,3 -1,1 -3,3 -5,5 -2,2 -3,5 -6,8l0 61c0,1 0,2 0,2 -1,1 -1,1 -2,2 -1,0 -3,0 -5,0 -1,1 -4,1 -6,1 -3,0 -5,0 -7,-1 -2,0 -3,0 -4,0 -1,-1 -2,-1 -3,-2 0,0 0,-1 0,-2l0 -98c0,-1 0,-1 0,-2 1,0 1,-1 2,-1 1,-1 2,-1 4,-1 1,0 3,0 6,0 2,0 4,0 5,0 2,0 3,0 4,1 1,0 2,1 2,1 0,1 0,1 0,2l0 12c3,-3 5,-6 8,-9 2,-2 4,-4 6,-5 2,-2 4,-3 6,-3 2,-1 4,-1 7,-1 0,0 1,0 3,0 1,0 2,0 3,1 1,0 2,0 3,0 1,1 2,1 2,2 0,0 1,0 1,1 0,0 0,1 0,2 1,0 1,1 1,3 0,2 0,4 0,6zm149 90c0,1 0,1 -1,2 -1,1 -2,1 -3,1 -2,0 -4,1 -7,1 -4,0 -6,-1 -8,-1 -1,0 -2,0 -3,-1 0,-1 -1,-1 -1,-2l0 -8c-4,4 -8,7 -13,10 -6,2 -11,3 -18,3 -5,0 -10,0 -14,-2 -4,-1 -8,-3 -11,-6 -3,-2 -6,-6 -8,-10 -1,-4 -2,-8 -2,-13 0,-6 1,-11 3,-15 2,-5 6,-8 10,-11 4,-3 10,-5 17,-6 6,-1 14,-2 22,-2l10 0 0 -6c0,-3 0,-6 -1,-8 0,-2 -2,-4 -3,-6 -1,-1 -3,-2 -6,-3 -2,-1 -5,-1 -8,-1 -5,0 -9,0 -13,1 -3,1 -7,3 -9,4 -3,1 -6,2 -7,3 -2,1 -4,2 -5,2 -1,0 -1,-1 -2,-1 -1,-1 -1,-1 -2,-2 0,-1 0,-2 -1,-4 0,-1 0,-3 0,-4 0,-3 0,-4 1,-6 0,-1 1,-2 2,-3 1,-1 3,-3 5,-4 3,-1 6,-2 9,-3 4,-1 7,-2 11,-3 4,-1 9,-1 13,-1 8,0 14,1 20,2 5,2 10,4 13,7 4,3 6,7 8,12 1,5 2,11 2,18l0 66zm-27 -43l-10 0c-5,0 -9,1 -12,1 -3,1 -6,2 -8,3 -2,2 -3,3 -4,5 -1,2 -1,4 -1,7 0,4 1,7 4,9 2,3 6,4 10,4 4,0 8,-1 11,-3 3,-2 7,-5 10,-9l0 -17zm265 42c0,1 0,2 -1,2 0,1 -1,1 -2,2 -1,0 -3,0 -4,0 -2,1 -4,1 -7,1 -3,0 -5,0 -7,-1 -2,0 -3,0 -4,0 -1,-1 -2,-1 -2,-2 -1,0 -1,-1 -1,-2l0 -58c0,-3 0,-6 -1,-9 0,-3 -1,-5 -3,-7 -1,-2 -3,-3 -5,-4 -1,-1 -4,-2 -6,-2 -4,0 -7,1 -10,4 -4,2 -7,6 -11,11l0 65c0,1 -1,2 -1,2 0,1 -1,1 -2,2 -1,0 -3,0 -5,0 -1,1 -4,1 -6,1 -3,0 -5,0 -7,-1 -2,0 -3,0 -4,0 -1,-1 -2,-1 -2,-2 -1,0 -1,-1 -1,-2l0 -58c0,-3 0,-6 -1,-9 -1,-3 -2,-5 -3,-7 -1,-2 -3,-3 -5,-4 -2,-1 -4,-2 -7,-2 -3,0 -6,1 -10,4 -3,2 -7,6 -11,11l0 65c0,1 0,2 0,2 -1,1 -1,1 -2,2 -1,0 -3,0 -5,0 -1,1 -4,1 -6,1 -3,0 -5,0 -7,-1 -2,0 -3,0 -4,0 -1,-1 -2,-1 -3,-2 0,0 0,-1 0,-2l0 -98c0,-1 0,-1 0,-2 1,0 1,-1 2,-1 1,-1 2,-1 4,-1 1,0 3,0 6,0 2,0 4,0 5,0 2,0 3,0 4,1 1,0 1,1 2,1 0,1 0,1 0,2l0 11c6,-5 11,-10 17,-13 5,-3 11,-4 17,-4 4,0 7,0 10,1 4,1 7,2 9,4 3,1 5,3 7,5 1,3 3,5 4,8 3,-3 6,-6 9,-8 3,-3 5,-4 8,-6 3,-1 6,-2 8,-3 3,-1 6,-1 9,-1 6,0 12,1 16,3 5,2 8,5 11,9 3,4 5,8 6,13 1,5 2,11 2,16l0 63zm171 -52c0,4 0,6 -2,8 -1,1 -4,2 -6,2l-60 0c0,4 1,8 2,12 1,3 2,6 4,8 2,3 5,4 9,6 3,1 7,1 12,1 5,0 9,0 13,-1 3,0 6,-1 9,-2 3,-1 5,-2 7,-2 2,-1 3,-1 4,-1 1,0 1,0 2,0 0,0 0,1 1,1 0,1 0,2 0,3 1,1 1,3 1,5 0,1 0,3 -1,4 0,1 0,2 0,3 0,1 0,1 -1,2 0,0 0,1 -1,1 0,1 -1,2 -4,3 -2,0 -4,1 -8,2 -3,1 -7,2 -11,2 -4,1 -9,1 -14,1 -8,0 -16,-1 -23,-3 -6,-2 -12,-5 -16,-10 -4,-4 -8,-10 -10,-17 -2,-7 -3,-15 -3,-24 0,-8 1,-16 3,-23 3,-7 6,-13 10,-18 5,-5 10,-9 16,-11 6,-3 13,-4 21,-4 8,0 15,1 21,4 6,2 11,5 14,10 4,4 7,9 9,15 1,6 2,12 2,19l0 4zm-27 -8c1,-7 -1,-13 -4,-18 -4,-4 -9,-7 -16,-7 -3,0 -6,1 -9,2 -2,2 -5,4 -6,6 -2,2 -3,5 -4,8 -1,3 -2,6 -2,9l41 0zm253 -38c0,1 0,2 0,3 -1,1 -1,3 -2,5l-26 89c0,1 -1,2 -1,3 -1,0 -2,1 -3,2 -1,0 -3,0 -5,0 -2,1 -5,1 -9,1 -3,0 -6,0 -9,-1 -2,0 -4,0 -5,-1 -1,0 -2,-1 -3,-1 0,-1 -1,-2 -1,-3l-17 -60 0 -1 0 1 -15 60c-1,1 -1,2 -2,3 0,0 -1,1 -2,2 -2,0 -3,0 -6,0 -2,1 -5,1 -8,1 -4,0 -7,0 -9,-1 -3,0 -4,0 -6,-1 -1,0 -2,-1 -2,-1 -1,-1 -1,-2 -2,-3l-26 -89c0,-2 -1,-4 -1,-5 0,-1 0,-2 0,-3 0,-1 0,-1 0,-2 1,-1 1,-1 3,-1 1,-1 2,-1 4,-1 2,0 4,0 7,0 2,0 5,0 7,0 2,0 3,0 4,1 1,0 2,1 2,1 0,1 1,2 1,2l20 72 0 2 0 -2 18 -72c1,0 1,-1 1,-2 1,0 1,-1 2,-1 1,-1 3,-1 4,-1 2,0 4,0 7,0 3,0 5,0 7,0 1,0 3,0 4,1 1,0 1,1 2,1 0,1 1,1 1,2l19 73 1 1 0 -2 19 -72c0,0 0,-1 1,-2 0,0 1,-1 2,-1 1,-1 2,-1 4,-1 2,0 4,0 7,0 2,0 4,0 6,0 2,0 3,0 4,1 1,0 2,0 2,1 1,1 1,1 1,2zm169 48c0,9 -1,16 -4,23 -2,7 -5,13 -10,18 -4,5 -10,9 -16,11 -7,3 -15,4 -24,4 -9,0 -16,-1 -23,-3 -6,-3 -12,-6 -16,-11 -4,-4 -7,-10 -9,-17 -2,-7 -3,-14 -3,-23 0,-8 1,-16 3,-23 2,-7 5,-13 10,-18 4,-4 10,-8 17,-11 6,-3 14,-4 23,-4 9,0 17,1 23,3 7,3 12,6 16,11 4,5 8,10 10,17 2,7 3,14 3,23zm-29 1c0,-5 0,-9 -1,-13 -1,-4 -2,-8 -4,-11 -2,-3 -4,-5 -7,-7 -3,-1 -7,-2 -12,-2 -4,0 -7,0 -10,2 -4,1 -6,4 -8,7 -2,2 -4,6 -5,10 -1,4 -1,9 -1,14 0,5 0,9 1,13 1,4 2,8 4,11 2,3 4,5 7,7 3,2 7,2 12,2 4,0 8,0 11,-2 3,-1 5,-4 7,-6 2,-3 4,-7 5,-11 1,-4 1,-9 1,-14zm168 -40c0,3 0,5 -1,7 0,1 0,3 0,4 -1,1 -1,1 -1,2 -1,0 -2,0 -2,0 -1,0 -2,0 -2,0 -1,0 -2,-1 -3,-1 -1,0 -2,-1 -3,-1 -1,0 -2,0 -3,0 -2,0 -3,0 -5,1 -2,0 -3,1 -5,3 -1,1 -3,3 -5,5 -2,2 -4,5 -6,8l0 61c0,1 0,2 0,2 -1,1 -2,1 -3,2 -1,0 -2,0 -4,0 -2,1 -4,1 -7,1 -2,0 -5,0 -6,-1 -2,0 -3,0 -5,0 -1,-1 -1,-1 -2,-2 0,0 0,-1 0,-2l0 -98c0,-1 0,-1 0,-2 0,0 1,-1 2,-1 1,-1 2,-1 4,-1 1,0 3,0 5,0 3,0 5,0 6,0 2,0 3,0 4,1 1,0 1,1 2,1 0,1 0,1 0,2l0 12c3,-3 5,-6 7,-9 3,-2 5,-4 7,-5 2,-2 4,-3 6,-3 2,-1 4,-1 6,-1 1,0 2,0 3,0 1,0 3,0 4,1 1,0 2,0 3,0 1,1 1,1 2,2 0,0 0,0 1,1 0,0 0,1 0,2 0,0 0,1 0,3 1,2 1,4 1,6zm162 89c0,1 -1,2 -1,2 0,1 -1,1 -2,2 -1,0 -3,0 -5,0 -1,1 -4,1 -7,1 -3,0 -5,0 -7,-1 -2,0 -3,0 -5,0 -1,-1 -2,-1 -2,-2 -1,0 -2,-1 -2,-2l-33 -52 0 52c0,1 0,2 -1,2 0,1 -1,1 -2,2 -1,0 -2,0 -4,0 -2,1 -4,1 -7,1 -2,0 -5,0 -6,-1 -2,0 -4,0 -5,0 -1,-1 -1,-1 -2,-2 0,0 -1,-1 -1,-2l0 -144c0,-1 1,-2 1,-2 1,-1 1,-1 2,-2 1,0 3,-1 5,-1 1,0 4,0 6,0 3,0 5,0 7,0 2,0 3,1 4,1 1,1 2,1 2,2 1,0 1,1 1,2l0 86 29 -39c1,-1 1,-2 2,-3 1,0 2,-1 3,-1 1,-1 3,-1 5,-1 1,0 4,0 6,0 3,0 5,0 7,0 2,0 4,0 5,1 1,0 2,1 2,1 1,1 1,1 1,2 0,1 0,2 -1,4 -1,1 -1,2 -2,4l-29 32 33 52c1,1 2,2 2,3 0,1 1,2 1,3z"/>
  </g>
 </g>
</svg>
