<?xml version="1.0" encoding="UTF-8"?>
<!DOCTYPE svg PUBLIC "-//W3C//DTD SVG 1.1//EN" "http://www.w3.org/Graphics/SVG/1.1/DTD/svg11.dtd">
<!-- Creator: CorelDRAW X7 -->
<svg xmlns="http://www.w3.org/2000/svg" xml:space="preserve" width="91.8227mm" height="33.6724mm" version="1.1" style="shape-rendering:geometricPrecision; text-rendering:geometricPrecision; image-rendering:optimizeQuality; fill-rule:evenodd; clip-rule:evenodd"
viewBox="0 0 9275 3401"
 xmlns:xlink="http://www.w3.org/1999/xlink">
 <defs>
  <style type="text/css">
   <![CDATA[
    .fil1 {fill:#FEFEFE}
    .fil2 {fill:#39356C}
    .fil3 {fill:#5EE045}
    .fil4 {fill:#FEFEFE;fill-rule:nonzero}
    .fil6 {fill:#A9ABAE;fill-rule:nonzero}
    .fil5 {fill:#5EE045;fill-rule:nonzero}
    .fil0 {fill:url(#id0)}
   ]]>
  </style>
  <radialGradient id="id0" gradientUnits="userSpaceOnUse" gradientTransform="matrix(0.5 -0 -0 0.339043 2319 1143)" cx="4637.37" cy="1728.69" r="4637.38" fx="4637.37" fy="1728.69">
   <stop offset="0" style="stop-opacity:1; stop-color:#00AFEF"/>
   <stop offset="1" style="stop-opacity:1; stop-color:#39356C"/>
  </radialGradient>
 </defs>
 <g id="Capa_x0020_1">
  <metadata id="CorelCorpID_0Corel-Layer"/>
  <path class="fil0" d="M277 681l8721 0c152,0 277,124 277,276l0 1543c0,152 -125,277 -277,277l-8721 0c-153,0 -277,-125 -277,-277l0 -1543c0,-152 124,-276 277,-276z"/>
  <path class="fil1" d="M6078 623c184,-13 368,5 550,33 151,24 121,245 -50,211 -229,-44 -468,-50 -692,22 -220,70 -307,255 -297,476 9,194 -31,373 -129,541 -76,131 -180,243 -290,346 -293,272 -319,632 -255,1006 27,160 -173,195 -223,57 -333,-916 -245,-1859 338,-2659 99,-136 233,-235 400,-264 239,-40 472,76 648,231z"/>
  <path class="fil2" d="M6051 700c189,-17 377,0 565,30 53,8 48,78 -23,64 -239,-47 -491,-53 -730,24 -249,79 -361,290 -349,550 18,369 -159,610 -395,829 -311,289 -347,666 -278,1074 12,71 -59,71 -79,19 -307,-846 -266,-1775 329,-2590 249,-343 640,-299 960,0z"/>
  <path class="fil1" d="M5573 1831c-116,524 -740,701 -1193,810 -142,34 -210,-171 -65,-217 174,-57 422,-121 552,-257 45,-47 75,-101 93,-163 49,-173 -47,-304 -185,-398 -539,-368 -738,-873 -631,-1507 20,-124 187,-136 230,-12 100,294 351,435 618,555 517,231 702,640 581,1189z"/>
  <path class="fil3" d="M5504 1815c-98,443 -591,625 -1141,757 -54,13 -86,-62 -27,-81 302,-98 608,-174 692,-468 56,-197 -40,-358 -213,-476 -554,-378 -695,-879 -602,-1437 9,-49 74,-57 94,0 108,316 371,469 656,596 476,213 657,582 541,1109z"/>
  <path class="fil4" d="M427 2292l669 0c422,0 642,-190 642,-543 0,-364 -234,-564 -677,-564l-634 0 0 1107zm559 -864c246,0 367,103 367,315 0,220 -115,308 -367,308l-182 0 0 -623 182 0zm1331 883c469,0 712,-194 712,-565 0,-377 -237,-581 -684,-581 -453,0 -699,206 -699,569 0,375 231,577 671,577zm-286 -563c0,-231 114,-359 301,-359 203,0 312,127 312,366 0,220 -104,333 -309,333 -201,0 -304,-114 -304,-340zm1803 -191l391 0c-17,-257 -218,-389 -601,-389 -443,0 -686,217 -686,594 0,341 237,549 653,549 422,0 635,-131 663,-425l-392 0c-20,129 -105,197 -243,197 -189,0 -295,-120 -295,-337 0,-226 109,-350 300,-350 120,0 190,53 210,161z"/>
  <path class="fil5" d="M6503 2202c0,33 -2,59 -6,77 -4,17 -10,29 -17,36 -6,8 -16,14 -29,20 -14,5 -29,10 -47,14 -17,4 -36,8 -57,10 -21,2 -42,3 -63,3 -56,0 -105,-7 -146,-21 -41,-14 -76,-36 -103,-66 -27,-30 -47,-67 -59,-112 -13,-45 -20,-99 -20,-160l0 -515 -122 0c-14,0 -25,-9 -32,-26 -8,-18 -12,-48 -12,-89 0,-22 1,-40 3,-55 2,-15 5,-27 9,-36 3,-9 8,-15 14,-19 5,-4 12,-5 20,-5l120 0 0 -225c0,-8 2,-15 6,-21 5,-5 12,-10 23,-15 11,-4 26,-7 44,-9 19,-2 42,-3 69,-3 27,0 51,1 69,3 18,2 33,5 44,9 10,5 18,10 22,15 5,6 7,13 7,21l0 225 218 0c8,0 14,1 20,5 5,4 10,10 14,19 4,9 6,21 8,36 2,15 3,33 3,55 0,41 -4,71 -11,89 -8,17 -19,26 -33,26l-219 0 0 472c0,55 8,96 26,124 17,27 48,41 92,41 15,0 28,-1 40,-4 12,-3 23,-6 32,-9 10,-3 18,-6 24,-9 6,-3 12,-4 17,-4 5,0 9,1 14,4 3,3 7,8 9,16 2,7 4,18 6,32 2,13 3,30 3,51zm932 -432c0,34 -8,60 -24,76 -15,17 -36,25 -63,25l-612 0c0,43 5,81 15,116 10,35 26,64 48,89 22,24 51,42 86,55 35,13 76,19 125,19 50,0 93,-3 131,-11 37,-7 70,-15 97,-23 27,-9 50,-17 68,-24 18,-8 33,-11 44,-11 7,0 13,1 17,4 4,2 8,7 11,14 3,7 5,16 7,28 1,13 1,29 1,47 0,16 0,31 -1,42 -1,12 -2,22 -4,30 -1,8 -3,15 -6,21 -3,5 -7,11 -12,16 -5,5 -18,12 -40,22 -22,9 -50,18 -83,27 -34,8 -73,16 -116,23 -43,6 -90,10 -140,10 -89,0 -167,-12 -234,-34 -67,-23 -123,-57 -169,-102 -45,-46 -78,-104 -101,-174 -21,-70 -33,-152 -33,-245 0,-90 12,-170 35,-242 23,-71 57,-132 102,-182 44,-50 98,-88 161,-114 64,-27 136,-40 215,-40 84,0 156,12 216,37 60,25 109,60 147,103 38,44 67,97 85,157 18,60 27,125 27,196l0 45zm-275 -81c2,-80 -14,-142 -48,-188 -34,-45 -87,-68 -158,-68 -36,0 -68,7 -95,20 -26,14 -49,32 -66,55 -18,23 -32,50 -41,81 -9,31 -15,64 -16,100l424 0zm1045 328c0,57 -11,107 -33,151 -21,43 -51,79 -90,109 -40,29 -86,51 -139,66 -54,14 -111,22 -173,22 -38,0 -74,-3 -108,-9 -35,-6 -65,-13 -92,-22 -27,-8 -50,-17 -68,-26 -18,-10 -31,-18 -39,-26 -9,-8 -15,-20 -19,-37 -5,-17 -7,-42 -7,-75 0,-21 0,-39 2,-52 2,-13 4,-24 7,-31 3,-8 6,-13 11,-16 4,-3 10,-4 17,-4 8,0 20,5 36,14 17,10 37,20 61,31 24,12 52,23 84,32 32,10 68,15 108,15 26,0 49,-2 68,-8 20,-5 38,-12 52,-22 15,-10 26,-22 34,-38 7,-15 11,-32 11,-52 0,-22 -7,-41 -21,-58 -14,-16 -33,-30 -55,-42 -23,-12 -49,-23 -78,-34 -29,-10 -59,-22 -89,-35 -31,-12 -61,-27 -90,-44 -28,-16 -55,-36 -78,-60 -22,-24 -41,-53 -55,-87 -14,-34 -21,-74 -21,-122 0,-48 10,-91 29,-132 19,-40 45,-74 81,-103 36,-28 79,-51 129,-66 51,-16 108,-24 172,-24 32,0 62,2 92,7 30,4 57,10 81,17 24,7 44,13 61,22 16,7 28,14 36,20 7,5 12,11 15,16 3,6 5,13 7,21 1,7 3,17 4,29 1,12 1,26 1,43 0,21 0,37 -1,50 -1,13 -3,23 -6,30 -3,8 -6,13 -11,16 -4,2 -10,4 -15,4 -7,0 -18,-4 -32,-12 -15,-8 -33,-16 -54,-25 -22,-9 -47,-18 -75,-25 -28,-8 -61,-12 -97,-12 -25,0 -48,3 -67,8 -18,5 -34,13 -46,22 -12,10 -21,21 -27,34 -6,13 -9,28 -9,42 0,24 7,43 21,59 15,16 33,30 57,42 23,12 50,23 79,33 30,11 60,22 91,35 30,12 60,27 90,43 30,17 57,37 80,61 23,24 42,53 56,86 14,33 22,73 22,119zm609 185c0,33 -2,59 -6,77 -5,17 -10,29 -17,36 -6,8 -16,14 -30,20 -13,5 -28,10 -46,14 -17,4 -37,8 -57,10 -21,2 -42,3 -63,3 -56,0 -105,-7 -146,-21 -42,-14 -76,-36 -103,-66 -27,-30 -47,-67 -60,-112 -12,-45 -19,-99 -19,-160l0 -515 -122 0c-14,0 -25,-9 -32,-26 -8,-18 -12,-48 -12,-89 0,-22 1,-40 3,-55 2,-15 5,-27 9,-36 3,-9 8,-15 14,-19 5,-4 12,-5 19,-5l121 0 0 -225c0,-8 2,-15 6,-21 5,-5 12,-10 23,-15 11,-4 26,-7 44,-9 19,-2 41,-3 69,-3 27,0 50,1 69,3 18,2 33,5 44,9 10,5 18,10 22,15 5,6 7,13 7,21l0 225 218 0c7,0 14,1 19,5 6,4 11,10 15,19 3,9 6,21 8,36 2,15 3,33 3,55 0,41 -4,71 -11,89 -8,17 -19,26 -33,26l-219 0 0 472c0,55 8,96 26,124 17,27 48,41 92,41 15,0 28,-1 40,-4 12,-3 23,-6 32,-9 10,-3 17,-6 24,-9 6,-3 12,-4 17,-4 5,0 9,1 13,4 4,3 8,8 10,16 2,7 4,18 6,32 2,13 3,30 3,51z"/>
  <g id="_2831613986752">
   <path class="fil6" d="M1728 3202c0,4 0,7 -1,10 0,2 0,5 -1,6 0,2 -1,4 -1,5 -1,1 -2,3 -4,5 -1,1 -5,3 -9,6 -5,2 -10,5 -17,7 -7,3 -14,5 -23,6 -8,2 -17,3 -27,3 -20,0 -37,-3 -53,-9 -15,-6 -28,-15 -39,-27 -11,-12 -20,-27 -26,-44 -5,-18 -8,-39 -8,-62 0,-24 3,-46 9,-64 7,-19 16,-35 27,-47 12,-13 26,-23 42,-29 16,-7 33,-10 53,-10 8,0 15,1 22,2 8,1 14,3 21,5 6,2 11,5 16,7 5,3 9,6 11,8 2,2 3,3 4,5 0,1 1,3 1,5 1,2 1,4 1,7 1,3 1,6 1,10 0,4 0,8 -1,11 0,3 0,6 -1,7 -1,2 -2,4 -3,5 -1,0 -2,1 -3,1 -2,0 -5,-1 -9,-4 -3,-2 -7,-5 -13,-8 -5,-4 -11,-6 -19,-9 -7,-2 -16,-4 -26,-4 -11,0 -21,3 -30,7 -9,5 -16,11 -22,20 -6,8 -11,19 -14,31 -3,12 -5,25 -5,41 0,16 2,30 5,43 4,12 8,22 15,30 6,7 14,13 23,17 9,4 19,6 30,6 10,0 19,-1 26,-4 8,-2 14,-5 19,-8 6,-2 10,-5 13,-7 4,-3 6,-4 8,-4 2,0 3,0 4,1 1,1 1,2 2,3 0,2 1,5 1,8 1,3 1,7 1,12zm329 -82c0,4 0,7 -1,10 0,3 -1,5 -2,7 -1,1 -2,3 -3,3 -1,1 -2,1 -4,1l-68 0 0 74c0,2 0,3 -1,4 0,1 -2,2 -3,3 -2,1 -4,1 -7,2 -3,0 -7,1 -11,1 -5,0 -8,-1 -11,-1 -3,-1 -5,-1 -7,-2 -2,-1 -3,-2 -4,-3 -1,-1 -1,-2 -1,-4l0 -74 -68 0c-1,0 -2,0 -3,-1 -1,0 -2,-2 -3,-3 -1,-2 -2,-4 -2,-7 -1,-3 -1,-6 -1,-10 0,-4 0,-8 1,-10 0,-3 1,-6 1,-7 1,-2 2,-3 3,-4 1,-1 2,-1 4,-1l68 0 0 -74c0,-1 0,-3 1,-4 1,-1 2,-2 4,-3 2,-1 4,-2 7,-2 3,0 6,-1 11,-1 4,0 8,1 11,1 3,0 5,1 7,2 1,1 3,2 3,3 1,1 1,3 1,4l0 74 69 0c1,0 2,0 4,1 1,1 2,2 2,4 1,1 2,4 2,7 1,2 1,6 1,10zm335 0c0,4 0,7 0,10 -1,3 -1,5 -2,7 -1,1 -2,3 -3,3 -2,1 -3,1 -4,1l-68 0 0 74c0,2 0,3 -1,4 -1,1 -2,2 -4,3 -2,1 -4,1 -7,2 -3,0 -6,1 -11,1 -4,0 -8,-1 -11,-1 -3,-1 -5,-1 -7,-2 -1,-1 -3,-2 -3,-3 -1,-1 -2,-2 -2,-4l0 -74 -67 0c-2,0 -3,0 -4,-1 -1,0 -2,-2 -3,-3 -1,-2 -1,-4 -2,-7 0,-3 -1,-6 -1,-10 0,-4 1,-8 1,-10 0,-3 1,-6 2,-7 1,-2 2,-3 3,-4 1,-1 2,-1 3,-1l68 0 0 -74c0,-1 1,-3 2,-4 0,-1 2,-2 3,-3 2,-1 4,-2 7,-2 3,0 7,-1 11,-1 5,0 8,1 11,1 3,0 5,1 7,2 2,1 3,2 4,3 1,1 1,3 1,4l0 74 69 0c1,0 2,0 3,1 1,1 2,2 3,4 1,1 1,4 2,7 0,2 0,6 0,10zm357 99c0,6 -1,11 -1,14 -1,4 -2,6 -4,8 -1,1 -3,2 -5,3 -3,1 -6,2 -9,3 -4,1 -7,2 -11,2 -4,0 -8,1 -13,1 -10,0 -20,-2 -28,-5 -8,-2 -15,-7 -20,-12 -5,-6 -9,-13 -11,-22 -3,-9 -4,-19 -4,-31l0 -100 -24 0c-3,0 -5,-2 -6,-5 -2,-3 -2,-9 -2,-17 0,-4 0,-8 0,-11 1,-3 1,-5 2,-7 1,-2 2,-3 3,-3 1,-1 2,-2 3,-2l24 0 0 -43c0,-2 0,-3 1,-4 1,-1 2,-2 4,-3 3,-1 5,-1 9,-2 4,0 8,0 13,0 6,0 10,0 14,0 3,1 6,1 8,2 2,1 4,2 5,3 0,1 1,2 1,4l0 43 42 0c2,0 3,1 4,2 1,0 2,1 3,3 0,2 1,4 1,7 1,3 1,7 1,11 0,8 -1,14 -2,17 -2,3 -4,5 -7,5l-42 0 0 92c0,10 2,18 5,24 3,5 9,8 18,8 3,0 5,-1 8,-1 2,-1 4,-1 6,-2 2,-1 3,-1 4,-2 2,0 3,0 4,0 1,0 1,0 2,0 1,1 2,2 2,3 1,2 1,4 1,7 1,2 1,6 1,10zm321 -84c0,6 -1,11 -4,15 -3,3 -7,4 -13,4l-118 0c0,9 1,16 3,23 1,7 5,12 9,17 4,5 10,8 16,11 7,2 15,4 25,4 9,0 18,-1 25,-3 7,-1 14,-2 19,-4 5,-2 10,-3 13,-5 4,-1 7,-2 9,-2 1,0 2,0 3,1 1,0 2,1 2,3 1,1 1,3 1,5 1,2 1,6 1,9 0,3 0,6 -1,8 0,3 0,5 0,6 -1,2 -1,3 -1,4 -1,1 -2,2 -3,3 -1,1 -3,3 -8,4 -4,2 -9,4 -16,6 -6,1 -14,3 -22,4 -9,1 -18,2 -27,2 -18,0 -33,-2 -46,-6 -13,-5 -24,-11 -32,-20 -9,-9 -16,-20 -20,-34 -4,-13 -6,-29 -6,-48 0,-17 2,-32 6,-46 5,-14 11,-26 20,-36 9,-9 19,-17 31,-22 13,-5 27,-8 42,-8 16,0 30,3 42,8 12,4 21,11 28,20 8,8 13,18 17,30 3,12 5,24 5,38l0 9zm-53 -16c0,-15 -3,-28 -9,-36 -7,-9 -17,-14 -31,-14 -7,0 -13,2 -18,4 -6,3 -10,6 -13,11 -4,4 -6,10 -8,16 -2,6 -3,12 -3,19l82 0zm343 64c0,11 -2,20 -6,29 -4,8 -10,15 -18,21 -7,6 -16,10 -27,13 -10,3 -21,4 -33,4 -8,0 -15,0 -21,-2 -7,-1 -13,-2 -18,-4 -5,-1 -10,-3 -13,-5 -4,-2 -6,-3 -8,-5 -2,-1 -3,-4 -4,-7 -1,-3 -1,-8 -1,-15 0,-4 0,-7 0,-10 1,-2 1,-4 2,-6 0,-1 1,-2 2,-3 1,0 2,-1 3,-1 2,0 4,1 7,3 3,2 7,4 12,6 5,2 10,5 16,6 6,2 14,3 21,3 5,0 10,0 14,-1 3,-1 7,-3 10,-5 2,-2 5,-4 6,-7 2,-3 2,-6 2,-10 0,-4 -1,-8 -4,-11 -2,-3 -6,-6 -10,-8 -5,-3 -10,-5 -16,-7 -5,-2 -11,-4 -17,-7 -6,-2 -12,-5 -17,-8 -6,-3 -11,-7 -15,-12 -5,-5 -8,-10 -11,-17 -3,-6 -4,-14 -4,-23 0,-10 2,-18 5,-26 4,-8 9,-15 16,-20 7,-6 15,-10 25,-13 10,-3 21,-5 34,-5 6,0 12,1 17,2 6,1 11,2 16,3 5,1 9,3 12,4 3,2 5,3 7,4 1,1 2,2 3,3 0,2 1,3 1,4 0,2 1,4 1,6 0,2 0,5 0,8 0,4 0,8 0,10 0,3 -1,5 -1,6 -1,1 -1,2 -2,3 -1,0 -2,1 -3,1 -2,0 -4,-1 -6,-3 -3,-1 -7,-3 -11,-4 -4,-2 -9,-4 -14,-5 -6,-2 -12,-3 -19,-3 -5,0 -10,1 -13,2 -4,1 -7,2 -9,4 -2,2 -4,4 -5,7 -2,2 -2,5 -2,8 0,5 1,8 4,11 3,4 6,6 11,9 4,2 10,4 15,6 6,2 12,4 18,7 6,2 12,5 17,8 6,3 11,7 16,12 4,5 8,10 11,17 3,6 4,14 4,23zm259 36c0,6 -1,11 -2,14 0,4 -1,6 -3,8 -1,1 -3,2 -5,3 -3,1 -6,2 -10,3 -3,1 -7,2 -11,2 -4,0 -8,1 -12,1 -11,0 -20,-2 -28,-5 -8,-2 -15,-7 -20,-12 -5,-6 -9,-13 -12,-22 -2,-9 -3,-19 -3,-31l0 -100 -24 0c-3,0 -5,-2 -6,-5 -2,-3 -3,-9 -3,-17 0,-4 1,-8 1,-11 0,-3 1,-5 2,-7 0,-2 1,-3 2,-3 1,-1 3,-2 4,-2l24 0 0 -43c0,-2 0,-3 1,-4 1,-1 2,-2 4,-3 2,-1 5,-1 9,-2 3,0 8,0 13,0 5,0 10,0 13,0 4,1 7,1 9,2 2,1 3,2 4,3 1,1 2,2 2,4l0 43 42 0c1,0 3,1 4,2 1,0 2,1 2,3 1,2 2,4 2,7 1,3 1,7 1,11 0,8 -1,14 -3,17 -1,3 -3,5 -6,5l-42 0 0 92c0,10 1,18 5,24 3,5 9,8 18,8 2,0 5,-1 7,-1 3,-1 5,-1 7,-2 1,-1 3,-1 4,-2 1,0 3,0 4,0 0,0 1,0 2,0 1,1 1,2 2,3 0,2 1,4 1,7 1,2 1,6 1,10zm195 19c0,1 0,2 -1,4 -1,1 -2,2 -4,2 -2,1 -5,2 -9,2 -3,0 -8,1 -13,1 -5,0 -10,-1 -13,-1 -4,0 -7,-1 -9,-2 -2,0 -3,-1 -4,-2 -1,-2 -2,-3 -2,-4l0 -195c0,-1 1,-2 2,-4 1,-1 2,-2 4,-2 2,-1 5,-2 9,-2 3,-1 8,-1 13,-1 5,0 10,0 13,1 4,0 7,1 9,2 2,0 3,1 4,2 1,2 1,3 1,4l0 195zm5 -261c0,11 -2,18 -7,23 -4,4 -13,6 -25,6 -12,0 -21,-2 -25,-6 -4,-4 -7,-12 -7,-22 0,-11 3,-19 7,-23 5,-5 13,-7 25,-7 13,0 21,2 25,6 5,5 7,12 7,23zm344 261c0,1 -1,2 -2,4 -1,1 -2,2 -4,2 -2,1 -5,2 -9,2 -3,0 -8,1 -13,1 -5,0 -10,-1 -13,-1 -4,0 -7,-1 -9,-2 -2,0 -3,-1 -4,-2 -1,-2 -1,-3 -1,-4l0 -111c0,-10 -1,-17 -3,-23 -1,-5 -3,-10 -5,-14 -3,-3 -7,-6 -11,-9 -4,-2 -9,-3 -14,-3 -7,0 -14,3 -21,8 -7,5 -15,13 -22,22l0 130c0,1 -1,2 -2,4 -1,1 -2,2 -4,2 -2,1 -5,2 -9,2 -3,0 -8,1 -13,1 -5,0 -10,-1 -13,-1 -4,0 -7,-1 -9,-2 -2,0 -3,-1 -4,-2 -1,-2 -2,-3 -2,-4l0 -195c0,-2 1,-3 2,-4 0,-1 2,-2 3,-3 2,0 5,-1 8,-1 3,-1 7,-1 11,-1 5,0 9,0 12,1 3,0 5,1 7,1 1,1 3,2 3,3 1,1 1,2 1,4l0 22c11,-11 22,-20 33,-26 11,-6 23,-9 35,-9 13,0 25,3 34,7 9,4 16,10 22,18 5,7 9,16 12,26 2,10 4,22 4,36l0 121zm336 -182c0,7 -1,13 -2,16 -2,3 -4,5 -6,5l-23 0c3,4 5,7 7,12 1,4 2,9 2,14 0,11 -2,21 -6,30 -4,9 -9,16 -16,22 -7,6 -16,11 -26,14 -10,3 -21,5 -33,5 -6,0 -12,-1 -18,-3 -6,-1 -10,-3 -13,-5 -2,2 -3,4 -5,7 -1,2 -2,5 -2,9 0,4 2,7 6,10 3,3 9,4 15,4l48 2c11,1 21,2 29,5 9,3 16,6 22,11 6,5 11,11 14,18 3,7 5,14 5,23 0,10 -3,19 -7,27 -4,9 -10,16 -19,23 -8,6 -19,11 -32,14 -12,4 -27,6 -44,6 -17,0 -31,-2 -43,-4 -11,-3 -21,-6 -29,-11 -7,-5 -13,-10 -16,-17 -3,-6 -5,-13 -5,-21 0,-5 0,-9 2,-14 1,-4 3,-8 5,-12 3,-4 6,-8 9,-12 4,-3 8,-7 12,-10 -6,-4 -11,-8 -14,-14 -4,-6 -6,-12 -6,-19 0,-8 2,-16 6,-23 4,-7 9,-14 16,-20 -6,-5 -10,-11 -13,-18 -3,-7 -4,-16 -4,-26 0,-12 2,-22 6,-31 4,-9 9,-16 17,-23 7,-6 15,-10 25,-14 10,-3 21,-5 33,-5 6,0 12,1 17,1 6,1 11,2 16,3l62 0c2,0 4,2 6,5 1,3 2,9 2,16zm-70 47c0,-11 -3,-19 -9,-25 -6,-6 -14,-9 -25,-9 -5,0 -10,1 -14,3 -4,2 -7,4 -10,8 -3,3 -5,6 -6,10 -2,5 -2,9 -2,13 0,10 3,18 9,24 5,6 13,9 24,9 5,0 10,-1 14,-3 4,-2 8,-4 10,-7 3,-3 5,-7 7,-11 1,-4 2,-8 2,-12zm12 155c0,-6 -2,-12 -7,-15 -6,-3 -13,-5 -22,-6l-39 -1c-4,3 -7,6 -9,8 -2,3 -4,5 -6,8 -1,2 -2,4 -2,6 -1,2 -1,5 -1,7 0,7 4,13 11,17 7,3 18,5 31,5 8,0 15,-1 21,-2 6,-2 10,-4 14,-7 3,-3 6,-6 7,-9 2,-4 2,-7 2,-11zm718 -289c0,4 -1,7 -1,10 0,2 -1,4 -1,6 -1,1 -1,2 -2,3 -1,0 -2,0 -3,0 -1,0 -2,0 -3,0 -1,-1 -3,-2 -5,-2 -1,-1 -4,-1 -6,-2 -2,0 -5,0 -9,0 -4,0 -7,0 -10,1 -3,2 -5,4 -7,6 -2,3 -3,6 -4,11 -1,4 -1,9 -1,15l0 18 35 0c2,0 3,1 4,2 1,0 2,1 3,3 0,2 1,4 1,7 1,3 1,7 1,11 0,8 -1,14 -2,17 -2,3 -4,5 -7,5l-35 0 0 158c0,1 -1,2 -2,4 -1,1 -2,2 -4,2 -2,1 -5,2 -9,2 -3,0 -8,1 -13,1 -5,0 -10,-1 -13,-1 -4,0 -7,-1 -9,-2 -2,0 -3,-1 -4,-2 -1,-2 -1,-3 -1,-4l0 -158 -25 0c-3,0 -5,-2 -6,-5 -1,-3 -2,-9 -2,-17 0,-4 0,-8 0,-11 1,-3 1,-5 2,-7 1,-2 2,-3 3,-3 1,-1 2,-2 3,-2l25 0 0 -16c0,-13 1,-25 4,-35 2,-10 6,-18 12,-25 6,-6 13,-11 21,-15 9,-3 19,-5 31,-5 6,0 11,1 16,2 5,1 9,2 12,3 3,1 5,2 6,3 1,1 2,2 3,4 0,2 1,4 1,7 0,3 1,6 1,11z"/>
   <path class="fil6" d="M5415 3061c0,5 0,10 0,13 0,3 -1,6 -1,8 -1,2 -2,3 -3,4 -1,0 -2,1 -3,1 -2,0 -3,-1 -4,-1 -2,-1 -3,-1 -5,-2 -2,0 -4,-1 -6,-1 -2,-1 -5,-1 -7,-1 -4,0 -7,1 -10,2 -3,1 -6,3 -9,6 -3,2 -7,6 -10,10 -4,4 -8,10 -12,16l0 122c0,1 0,2 -1,4 -1,1 -3,2 -5,2 -2,1 -5,2 -8,2 -4,0 -8,1 -13,1 -6,0 -10,-1 -14,-1 -3,0 -6,-1 -8,-2 -2,0 -4,-1 -5,-2 -1,-2 -1,-3 -1,-4l0 -195c0,-2 0,-3 1,-4 1,-1 2,-2 4,-3 2,0 4,-1 7,-1 3,-1 7,-1 12,-1 4,0 8,0 11,1 3,0 6,1 7,1 2,1 3,2 4,3 1,1 1,2 1,4l0 24c5,-7 10,-13 14,-18 5,-5 9,-8 13,-11 4,-3 8,-5 13,-6 4,-1 8,-2 12,-2 2,0 4,1 6,1 2,0 4,0 7,1 2,0 4,1 6,2 2,0 3,1 4,2 0,0 1,1 1,2 1,1 1,2 1,4 1,1 1,4 1,7 0,3 0,7 0,12zm297 177c0,2 0,4 -2,5 -1,1 -4,2 -7,3 -3,0 -8,1 -14,1 -6,0 -11,-1 -14,-1 -3,-1 -5,-2 -6,-3 -2,-1 -2,-3 -2,-5l0 -15c-8,9 -17,15 -28,20 -10,5 -21,7 -34,7 -10,0 -20,-1 -28,-4 -9,-3 -16,-7 -23,-12 -6,-5 -11,-12 -14,-20 -4,-8 -6,-17 -6,-27 0,-12 3,-21 7,-30 4,-8 11,-15 20,-21 9,-5 20,-9 33,-12 13,-2 28,-4 45,-4l19 0 0 -11c0,-7 0,-12 -2,-16 -1,-5 -3,-9 -6,-12 -3,-3 -6,-5 -11,-7 -5,-1 -11,-2 -18,-2 -9,0 -17,1 -24,3 -7,2 -14,4 -19,7 -6,2 -10,5 -14,7 -4,2 -7,3 -9,3 -2,0 -3,-1 -4,-2 -2,-1 -3,-2 -3,-4 -1,-2 -2,-4 -2,-7 -1,-3 -1,-6 -1,-9 0,-5 0,-8 1,-11 1,-3 2,-5 4,-7 2,-2 6,-4 11,-7 5,-3 11,-5 18,-7 7,-2 14,-4 22,-5 8,-2 17,-3 25,-3 16,0 29,2 40,5 10,3 19,8 26,14 7,6 12,14 16,24 3,9 4,21 4,34l0 131zm-54 -83l-21 0c-9,0 -16,1 -22,2 -7,1 -12,3 -16,6 -4,2 -6,5 -8,9 -2,4 -3,8 -3,13 0,8 3,15 8,19 5,5 12,7 21,7 8,0 15,-2 21,-6 7,-4 13,-9 20,-17l0 -33zm526 83c0,1 0,2 -1,4 -1,1 -2,2 -4,2 -2,1 -5,2 -9,2 -3,0 -8,1 -13,1 -6,0 -10,-1 -14,-1 -3,0 -6,-1 -8,-2 -2,0 -4,-1 -4,-2 -1,-2 -2,-3 -2,-4l0 -116c0,-6 0,-12 -2,-18 -1,-5 -3,-10 -5,-14 -3,-3 -6,-6 -10,-9 -4,-2 -8,-3 -14,-3 -6,0 -13,3 -19,8 -7,5 -14,13 -22,22l0 130c0,1 -1,2 -1,4 -1,1 -3,2 -5,2 -2,1 -5,2 -8,2 -4,0 -8,1 -13,1 -6,0 -10,-1 -14,-1 -3,0 -6,-1 -8,-2 -2,0 -4,-1 -5,-2 -1,-2 -1,-3 -1,-4l0 -116c0,-6 -1,-12 -2,-18 -1,-5 -3,-10 -6,-14 -2,-3 -5,-6 -9,-9 -4,-2 -9,-3 -14,-3 -7,0 -13,3 -20,8 -7,5 -14,13 -22,22l0 130c0,1 0,2 -1,4 -1,1 -2,2 -4,2 -3,1 -5,2 -9,2 -3,0 -8,1 -13,1 -5,0 -10,-1 -13,-1 -4,0 -7,-1 -9,-2 -2,0 -3,-1 -4,-2 -1,-2 -2,-3 -2,-4l0 -195c0,-2 1,-3 2,-4 0,-1 2,-2 3,-3 2,0 5,-1 8,-1 3,-1 6,-1 11,-1 5,0 8,0 11,1 4,0 6,1 8,1 1,1 2,2 3,3 1,1 1,2 1,4l0 22c11,-11 22,-20 33,-26 10,-6 21,-9 33,-9 8,0 15,1 22,3 6,2 12,4 17,7 5,3 9,7 13,11 4,5 7,10 9,15 6,-6 12,-12 17,-16 6,-5 11,-8 17,-11 5,-3 11,-5 16,-6 6,-2 11,-3 17,-3 13,0 24,3 33,7 9,4 16,10 21,18 6,7 10,16 12,26 2,10 3,21 3,32l0 125zm341 -103c0,6 -1,11 -4,15 -3,3 -7,4 -13,4l-118 0c0,9 1,16 3,23 2,7 5,12 9,17 4,5 10,8 17,11 6,2 15,4 24,4 10,0 18,-1 25,-3 8,-1 14,-2 19,-4 5,-2 10,-3 13,-5 4,-1 7,-2 9,-2 1,0 2,0 3,1 1,0 2,1 2,3 1,1 1,3 2,5 0,2 0,6 0,9 0,3 0,6 0,8 0,3 -1,5 -1,6 0,2 -1,3 -1,4 -1,1 -2,2 -3,3 -1,1 -3,3 -7,4 -5,2 -10,4 -17,6 -6,1 -14,3 -22,4 -8,1 -17,2 -27,2 -17,0 -33,-2 -46,-6 -13,-5 -23,-11 -32,-20 -9,-9 -15,-20 -20,-34 -4,-13 -6,-29 -6,-48 0,-17 2,-32 7,-46 4,-14 11,-26 19,-36 9,-9 19,-17 32,-22 12,-5 26,-8 41,-8 17,0 31,3 42,8 12,4 21,11 29,20 7,8 13,18 16,30 4,12 5,24 5,38l0 9zm-53 -16c1,-15 -3,-28 -9,-36 -7,-9 -17,-14 -31,-14 -7,0 -13,2 -18,4 -5,3 -10,6 -13,11 -4,4 -6,10 -8,16 -2,6 -3,12 -3,19l82 0zm502 -77c0,2 -1,4 -1,6 0,3 -1,6 -2,10l-52 177c-1,2 -2,4 -3,6 -1,1 -3,2 -5,3 -3,1 -6,2 -11,2 -4,0 -10,1 -17,1 -7,0 -13,-1 -18,-1 -4,0 -8,-1 -10,-2 -3,-1 -5,-2 -6,-4 -1,-1 -2,-3 -2,-5l-33 -119 -1 -2 0 2 -30 119c-1,2 -2,4 -3,6 -1,1 -3,2 -5,3 -3,1 -7,2 -11,2 -5,0 -11,1 -18,1 -7,0 -13,-1 -17,-1 -5,0 -8,-1 -11,-2 -2,-1 -4,-2 -5,-4 -2,-1 -2,-3 -3,-5l-52 -177c-1,-4 -2,-7 -2,-10 -1,-2 -1,-4 -1,-6 0,-1 1,-2 2,-3 0,-2 2,-2 4,-3 2,-1 5,-1 8,-2 4,0 8,0 14,0 6,0 10,0 14,0 4,1 7,1 9,2 2,1 3,2 4,3 1,1 1,3 2,4l39 144 0 2 0 -2 37 -144c0,-1 1,-3 2,-4 1,-1 2,-2 4,-3 2,-1 5,-1 8,-2 3,0 8,0 13,0 6,0 10,0 13,1 4,0 6,0 8,1 2,1 4,2 4,3 1,1 2,2 2,4l39 144 1 2 1 -2 37 -144c0,-1 1,-3 1,-4 1,-1 3,-2 5,-3 2,-1 5,-1 8,-2 4,0 8,0 13,0 6,0 10,0 14,0 3,1 6,1 8,2 2,1 3,1 4,3 0,1 1,2 1,3zm335 96c0,17 -2,32 -6,46 -5,13 -11,25 -20,35 -9,10 -20,18 -34,23 -13,5 -29,8 -47,8 -17,0 -32,-2 -45,-7 -13,-5 -23,-12 -32,-21 -8,-9 -14,-20 -19,-34 -4,-13 -6,-29 -6,-46 0,-16 3,-32 7,-45 4,-14 11,-26 20,-36 9,-9 20,-17 33,-22 14,-6 29,-9 47,-9 18,0 33,3 46,8 12,4 23,11 31,20 9,10 15,21 19,34 4,14 6,29 6,46zm-56 3c0,-10 -1,-19 -2,-27 -2,-8 -5,-15 -8,-21 -4,-6 -9,-11 -15,-14 -6,-3 -14,-5 -23,-5 -8,0 -15,1 -21,4 -6,3 -11,8 -15,13 -4,6 -7,13 -9,21 -2,8 -3,17 -3,28 0,9 1,18 2,26 2,9 4,16 8,21 3,6 8,11 15,14 6,4 13,5 22,5 9,0 16,-1 22,-4 6,-3 11,-7 15,-13 4,-6 7,-13 9,-21 2,-8 3,-17 3,-27zm332 -80c0,5 0,10 0,13 0,3 -1,6 -1,8 -1,2 -2,3 -3,4 -1,0 -2,1 -3,1 -1,0 -3,-1 -4,-1 -2,-1 -3,-1 -5,-2 -2,0 -4,-1 -6,-1 -2,-1 -5,-1 -7,-1 -3,0 -7,1 -10,2 -3,1 -6,3 -9,6 -3,2 -7,6 -10,10 -4,4 -8,10 -12,16l0 122c0,1 0,2 -1,4 -1,1 -3,2 -5,2 -2,1 -5,2 -8,2 -4,0 -8,1 -13,1 -6,0 -10,-1 -14,-1 -3,0 -6,-1 -8,-2 -2,0 -4,-1 -5,-2 0,-2 -1,-3 -1,-4l0 -195c0,-2 0,-3 1,-4 1,-1 2,-2 4,-3 2,0 4,-1 7,-1 3,-1 7,-1 12,-1 4,0 8,0 11,1 3,0 6,1 7,1 2,1 3,2 4,3 1,1 1,2 1,4l0 24c5,-7 10,-13 14,-18 5,-5 9,-8 13,-11 4,-3 9,-5 13,-6 4,-1 8,-2 12,-2 2,0 4,1 6,1 2,0 4,0 7,1 2,0 4,1 6,2 2,0 3,1 4,2 1,0 1,1 1,2 1,1 1,2 1,4 1,1 1,4 1,7 0,3 0,7 0,12zm322 177c0,1 0,3 -1,4 -1,1 -2,2 -4,2 -2,1 -5,2 -9,2 -3,0 -8,1 -14,1 -6,0 -11,-1 -15,-1 -3,0 -6,-1 -9,-1 -2,-1 -4,-2 -5,-3 -2,-1 -3,-3 -4,-5l-65 -102 0 103c0,1 0,2 -1,4 -1,1 -2,2 -4,2 -3,1 -5,2 -9,2 -3,0 -8,1 -13,1 -6,0 -10,-1 -14,-1 -3,0 -6,-1 -8,-2 -2,0 -4,-1 -4,-2 -1,-2 -2,-3 -2,-4l0 -288c0,-1 1,-2 2,-4 0,-1 2,-2 4,-2 2,-1 5,-2 8,-2 4,-1 8,-1 14,-1 5,0 10,0 13,1 4,0 6,1 9,2 2,0 3,1 4,2 1,2 1,3 1,4l0 172 58 -78c1,-2 2,-3 4,-5 1,-1 3,-2 6,-3 2,0 5,-1 9,-1 3,-1 8,-1 13,-1 6,0 10,0 14,1 4,0 7,1 9,1 2,1 4,2 5,3 0,1 1,2 1,4 0,2 -1,5 -2,7 -1,2 -3,5 -5,8l-57 65 66 102c2,3 3,5 4,7 1,2 1,4 1,6z"/>
  </g>
 </g>
</svg>
