<?xml version="1.0" encoding="UTF-8"?>
<!DOCTYPE svg PUBLIC "-//W3C//DTD SVG 1.1//EN" "http://www.w3.org/Graphics/SVG/1.1/DTD/svg11.dtd">
<!-- Creator: CorelDRAW X7 -->
<svg xmlns="http://www.w3.org/2000/svg" xml:space="preserve" width="91.8227mm" height="33.6724mm" version="1.1" style="shape-rendering:geometricPrecision; text-rendering:geometricPrecision; image-rendering:optimizeQuality; fill-rule:evenodd; clip-rule:evenodd"
viewBox="0 0 4124 1512"
 xmlns:xlink="http://www.w3.org/1999/xlink">
 <defs>
  <style type="text/css">
   <![CDATA[
    .fil0 {fill:#FEFEFE}
    .fil1 {fill:#39356C}
    .fil2 {fill:#5EE045}
    .fil3 {fill:#FEFEFE;fill-rule:nonzero}
    .fil4 {fill:#5EE045;fill-rule:nonzero}
   ]]>
  </style>
 </defs>
 <g id="Capa_x0020_1">
  <metadata id="CorelCorpID_0Corel-Layer"/>
  <path class="fil0" d="M123 303l3878 0c68,0 123,55 123,123l0 686c0,67 -55,123 -123,123l-3878 0c-68,0 -123,-56 -123,-123l0 -686c0,-68 55,-123 123,-123z"/>
  <path class="fil1" d="M123 361l3878 0c36,0 65,29 65,65l0 686c0,35 -29,64 -65,64l-3878 0c-36,0 -65,-29 -65,-64l0 -686c0,-36 29,-65 65,-65z"/>
  <path class="fil0" d="M2702 277c82,-6 164,2 245,15 67,10 54,109 -22,94 -102,-20 -208,-23 -308,9 -98,31 -137,114 -132,212 4,86 -14,166 -57,240 -34,59 -80,109 -129,154 -131,121 -142,281 -114,448 12,71 -76,87 -99,25 -148,-407 -108,-827 151,-1182 44,-61 103,-105 178,-118 106,-18 209,34 287,103z"/>
  <path class="fil1" d="M2691 311c83,-7 167,0 251,14 23,3 21,34 -11,28 -106,-21 -218,-23 -324,11 -111,35 -161,129 -155,244 8,164 -71,272 -176,369 -138,128 -154,296 -123,477 5,32 -27,32 -35,9 -137,-376 -119,-789 146,-1152 111,-152 284,-133 427,0z"/>
  <path class="fil0" d="M2478 814c-52,233 -329,312 -530,360 -63,15 -94,-76 -30,-96 78,-25 188,-54 246,-114 20,-21 33,-45 41,-73 22,-77 -20,-135 -82,-177 -240,-164 -328,-388 -281,-670 10,-55 84,-60 103,-5 44,130 156,193 275,246 230,103 312,285 258,529z"/>
  <path class="fil2" d="M2447 807c-43,197 -262,278 -507,337 -24,6 -38,-28 -12,-36 134,-44 270,-78 308,-208 24,-88 -18,-160 -95,-212 -247,-168 -309,-391 -268,-639 4,-22 33,-25 42,0 48,141 165,208 292,265 211,95 292,259 240,493z"/>
  <path class="fil3" d="M190 1019l297 0c188,0 286,-85 286,-241 0,-162 -104,-251 -301,-251l-282 0 0 492zm248 -384c110,0 164,46 164,140 0,98 -52,137 -164,137l-80 0 0 -277 80 0zm592 392c209,0 317,-86 317,-251 0,-167 -105,-258 -304,-258 -202,0 -311,92 -311,253 0,167 103,256 298,256zm-127 -250c0,-102 51,-159 134,-159 90,0 139,56 139,163 0,97 -47,147 -138,147 -89,0 -135,-50 -135,-151zm802 -85l174 0c-8,-114 -97,-173 -268,-173 -197,0 -305,97 -305,264 0,152 106,244 291,244 187,0 282,-58 295,-188l-175 0c-9,57 -46,87 -108,87 -84,0 -131,-53 -131,-150 0,-100 48,-155 133,-155 54,0 85,23 94,71z"/>
  <path class="fil4" d="M2892 979c0,15 -1,26 -3,34 -2,8 -4,13 -8,17 -2,3 -7,6 -13,8 -6,3 -13,5 -20,7 -8,1 -17,3 -26,4 -9,1 -18,1 -28,1 -25,0 -46,-3 -65,-9 -18,-6 -33,-16 -45,-29 -12,-14 -21,-30 -27,-50 -6,-20 -9,-44 -9,-71l0 -229 -54 0c-6,0 -11,-4 -14,-12 -4,-8 -5,-21 -5,-40 0,-9 0,-17 1,-24 1,-7 2,-12 4,-16 1,-4 4,-7 6,-8 3,-2 6,-3 9,-3l53 0 0 -100c0,-3 1,-6 3,-9 2,-2 6,-5 10,-7 5,-1 12,-3 20,-4 8,-1 18,-1 30,-1 13,0 23,0 31,1 8,1 15,3 20,4 4,2 8,5 10,7 2,3 3,6 3,9l0 100 97 0c3,0 6,1 8,3 3,1 5,4 7,8 1,4 2,9 3,16 1,7 2,15 2,24 0,19 -2,32 -5,40 -4,8 -9,12 -15,12l-97 0 0 210c0,24 3,42 11,54 8,13 21,19 41,19 7,0 13,-1 18,-2 5,-1 10,-2 14,-4 5,-1 8,-3 11,-4 3,-1 5,-2 8,-2 2,0 3,1 5,2 2,1 4,3 5,7 0,3 1,8 2,14 1,6 2,14 2,23zm414 -192c0,15 -4,27 -10,34 -7,7 -17,11 -29,11l-272 0c0,19 2,36 7,52 4,15 12,28 21,39 10,11 23,19 38,25 16,5 34,8 56,8 22,0 41,-1 58,-5 17,-3 31,-6 43,-10 13,-4 23,-8 31,-11 8,-3 14,-5 19,-5 3,0 6,1 8,2 2,1 3,3 5,6 1,3 2,8 3,13 0,5 0,12 0,21 0,7 0,13 0,18 -1,6 -1,10 -2,14 0,3 -1,6 -3,9 -1,2 -3,5 -5,7 -2,2 -8,6 -18,10 -10,4 -22,8 -37,12 -15,4 -32,7 -51,10 -20,3 -40,4 -62,4 -40,0 -75,-5 -105,-15 -30,-10 -54,-25 -75,-45 -20,-20 -35,-46 -44,-77 -10,-31 -15,-68 -15,-109 0,-40 5,-76 15,-108 11,-32 26,-59 46,-81 19,-22 43,-39 71,-51 29,-11 60,-17 96,-17 37,0 69,5 96,16 26,11 48,27 65,46 17,20 30,43 38,70 8,26 12,55 12,87l0 20zm-122 -36c1,-35 -6,-63 -22,-83 -15,-21 -38,-31 -70,-31 -16,0 -30,3 -42,9 -12,6 -22,14 -30,24 -8,11 -14,23 -18,37 -4,14 -6,28 -7,44l189 0zm464 146c0,25 -5,47 -14,67 -10,19 -23,35 -40,48 -18,13 -38,23 -62,30 -24,6 -50,9 -77,9 -17,0 -33,-1 -48,-3 -15,-3 -29,-6 -41,-10 -12,-4 -22,-8 -30,-12 -8,-4 -14,-8 -18,-11 -3,-4 -6,-9 -8,-17 -2,-7 -3,-18 -3,-33 0,-10 0,-17 1,-23 0,-6 1,-11 3,-14 1,-4 3,-6 5,-7 2,-1 4,-2 7,-2 4,0 9,2 17,6 7,5 16,9 26,14 11,5 23,10 38,14 14,5 30,7 48,7 11,0 22,-1 30,-3 9,-3 17,-6 23,-11 7,-4 12,-9 15,-16 3,-7 5,-14 5,-23 0,-10 -3,-19 -9,-26 -6,-7 -15,-13 -25,-19 -10,-5 -22,-10 -34,-15 -13,-4 -27,-10 -40,-15 -14,-6 -27,-13 -40,-20 -13,-7 -24,-16 -34,-27 -10,-10 -19,-23 -25,-38 -6,-15 -9,-33 -9,-55 0,-21 4,-40 12,-58 9,-18 21,-33 36,-46 16,-13 36,-23 58,-30 23,-7 48,-10 76,-10 15,0 28,1 41,3 14,2 26,4 36,7 11,3 20,6 27,10 8,3 13,7 16,9 4,3 6,5 7,7 1,3 2,6 3,10 1,3 1,7 2,13 0,5 1,11 1,19 0,9 -1,16 -1,22 -1,6 -1,10 -3,13 -1,4 -2,6 -4,7 -2,1 -5,2 -7,2 -4,0 -8,-2 -15,-5 -6,-4 -14,-8 -24,-11 -9,-4 -20,-8 -33,-12 -12,-3 -27,-5 -43,-5 -11,0 -21,1 -30,4 -8,2 -15,5 -20,10 -5,4 -10,9 -12,15 -3,6 -4,12 -4,18 0,11 3,20 9,27 7,7 15,13 25,18 11,5 23,10 36,15 13,5 26,10 40,15 13,6 27,12 40,20 13,7 25,16 36,27 10,10 18,23 25,38 6,15 9,32 9,53zm271 82c0,15 -1,26 -3,34 -2,8 -4,13 -7,17 -3,3 -7,6 -13,8 -6,3 -13,5 -21,7 -8,1 -16,3 -25,4 -10,1 -19,1 -28,1 -25,0 -47,-3 -65,-9 -19,-6 -34,-16 -46,-29 -12,-14 -21,-30 -26,-50 -6,-20 -9,-44 -9,-71l0 -229 -54 0c-7,0 -11,-4 -15,-12 -3,-8 -5,-21 -5,-40 0,-9 1,-17 1,-24 1,-7 3,-12 4,-16 2,-4 4,-7 7,-8 2,-2 5,-3 8,-3l54 0 0 -100c0,-3 1,-6 3,-9 2,-2 5,-5 10,-7 5,-1 11,-3 19,-4 9,-1 19,-1 31,-1 12,0 22,0 31,1 8,1 14,3 19,4 5,2 8,5 10,7 2,3 3,6 3,9l0 100 97 0c3,0 6,1 9,3 2,1 4,4 6,8 2,4 3,9 4,16 1,7 1,15 1,24 0,19 -2,32 -5,40 -3,8 -8,12 -14,12l-98 0 0 210c0,24 4,42 12,54 7,13 21,19 41,19 6,0 12,-1 18,-2 5,-1 10,-2 14,-4 4,-1 7,-3 10,-4 3,-1 6,-2 8,-2 2,0 4,1 6,2 2,1 3,3 4,7 1,3 2,8 3,14 1,6 1,14 1,23z"/>
  <g id="_2831409760400">
   <path class="fil3" d="M768 1424c0,2 0,3 0,4 0,1 0,2 0,3 -1,1 -1,2 -1,2 0,1 -1,1 -2,2 0,1 -2,2 -4,3 -2,1 -4,2 -7,3 -3,1 -7,2 -10,3 -4,1 -8,1 -13,1 -8,0 -16,-1 -23,-4 -7,-3 -13,-7 -18,-12 -4,-5 -8,-12 -11,-20 -2,-8 -4,-17 -4,-27 0,-11 2,-20 5,-29 2,-8 6,-15 12,-21 5,-5 11,-9 18,-12 7,-3 15,-5 24,-5 3,0 6,1 10,1 3,1 6,2 9,2 2,1 5,2 7,4 2,1 4,2 5,3 1,1 1,2 1,2 1,1 1,1 1,2 0,1 1,2 1,4 0,1 0,2 0,4 0,2 0,4 0,5 -1,1 -1,2 -1,3 0,1 -1,2 -1,2 -1,1 -1,1 -2,1 -1,0 -2,-1 -3,-2 -2,-1 -4,-2 -6,-4 -3,-1 -5,-2 -9,-4 -3,-1 -7,-1 -11,-1 -5,0 -10,1 -14,3 -4,2 -7,5 -10,9 -2,3 -4,8 -6,13 -1,6 -2,12 -2,18 0,8 1,14 2,20 2,5 4,9 7,13 3,3 6,6 10,8 4,1 8,2 13,2 5,0 9,0 12,-1 3,-1 6,-3 9,-4 2,-1 4,-2 5,-3 2,-1 3,-2 4,-2 1,0 1,0 1,1 1,0 1,0 1,1 1,1 1,2 1,3 0,2 0,4 0,6zm147 -37c0,2 -1,4 -1,5 0,1 0,2 -1,3 0,0 0,1 -1,1 0,1 -1,1 -2,1l-30 0 0 33c0,0 0,1 0,1 -1,1 -1,1 -2,2 -1,0 -2,0 -3,1 -1,0 -3,0 -5,0 -2,0 -3,0 -5,0 -1,-1 -2,-1 -3,-1 -1,-1 -1,-1 -2,-2 0,0 0,-1 0,-1l0 -33 -30 0c-1,0 -1,0 -2,-1 0,0 -1,-1 -1,-1 0,-1 -1,-2 -1,-3 0,-1 0,-3 0,-5 0,-2 0,-3 0,-4 0,-2 0,-3 1,-3 0,-1 1,-2 1,-2 0,0 1,0 2,0l30 0 0 -33c0,-1 0,-2 0,-2 1,-1 1,-1 2,-2 1,0 2,0 3,0 2,-1 3,-1 5,-1 2,0 4,0 5,1 1,0 2,0 3,0 1,1 1,1 2,2 0,0 0,1 0,2l0 33 31 0c0,0 1,0 1,0 1,0 1,1 1,2 1,0 1,1 1,3 0,1 1,2 1,4zm149 0c0,2 0,4 -1,5 0,1 0,2 0,3 -1,0 -1,1 -2,1 0,1 -1,1 -1,1l-31 0 0 33c0,0 0,1 0,1 0,1 -1,1 -2,2 -1,0 -2,0 -3,1 -1,0 -3,0 -5,0 -2,0 -3,0 -5,0 -1,-1 -2,-1 -3,-1 0,-1 -1,-1 -1,-2 -1,0 -1,-1 -1,-1l0 -33 -30 0c-1,0 -1,0 -2,-1 0,0 0,-1 -1,-1 0,-1 -1,-2 -1,-3 0,-1 0,-3 0,-5 0,-2 0,-3 0,-4 0,-2 1,-3 1,-3 0,-1 1,-2 1,-2 1,0 1,0 2,0l30 0 0 -33c0,-1 0,-2 1,-2 0,-1 1,-1 1,-2 1,0 2,0 3,0 2,-1 3,-1 5,-1 2,0 4,0 5,1 1,0 2,0 3,0 1,1 2,1 2,2 0,0 0,1 0,2l0 33 31 0c0,0 1,0 1,0 1,0 1,1 2,2 0,0 0,1 0,3 1,1 1,2 1,4zm158 44c0,3 0,5 0,7 -1,1 -1,2 -2,3 0,1 -1,1 -2,2 -1,0 -3,1 -4,1 -2,0 -3,0 -5,1 -2,0 -4,0 -6,0 -4,0 -9,-1 -12,-2 -4,-1 -7,-3 -9,-6 -2,-2 -4,-5 -5,-9 -1,-4 -2,-9 -2,-14l0 -44 -10 0c-2,0 -3,-1 -3,-3 -1,-1 -1,-4 -1,-7 0,-2 0,-4 0,-5 0,-1 0,-2 1,-3 0,-1 1,-1 1,-2 1,0 1,0 2,0l10 0 0 -20c0,0 0,-1 1,-1 0,-1 1,-1 2,-2 1,0 2,0 3,-1 2,0 4,0 6,0 3,0 5,0 6,0 2,1 3,1 4,1 1,1 2,1 2,2 0,0 1,1 1,1l0 20 18 0c1,0 2,0 2,0 1,1 1,1 1,2 1,1 1,2 1,3 0,1 0,3 0,5 0,3 0,6 -1,7 0,2 -1,3 -2,3l-19 0 0 40c0,5 0,9 2,11 1,2 4,3 8,3 1,0 2,0 3,0 1,0 2,0 3,-1 1,0 2,0 2,0 1,-1 1,-1 2,-1 0,0 0,0 1,1 0,0 0,0 1,1 0,1 0,2 0,3 0,1 0,2 0,4zm143 -37c0,3 -1,5 -2,6 -1,2 -3,3 -5,3l-53 0c0,3 0,7 1,10 1,3 2,5 4,7 2,2 5,4 8,5 3,1 6,2 11,2 4,0 8,-1 11,-1 3,-1 6,-2 8,-2 3,-1 4,-2 6,-2 2,-1 3,-1 4,-1 0,0 1,0 1,0 1,0 1,1 1,1 1,1 1,2 1,3 0,1 0,2 0,4 0,1 0,2 0,3 0,1 0,2 0,3 -1,1 -1,1 -1,2 0,0 -1,1 -1,1 0,1 -2,1 -3,2 -2,1 -5,2 -8,2 -3,1 -6,2 -10,2 -3,1 -7,1 -12,1 -7,0 -14,-1 -20,-3 -6,-2 -11,-5 -14,-9 -4,-4 -7,-9 -9,-15 -2,-6 -3,-13 -3,-21 0,-7 1,-14 3,-21 2,-6 5,-11 9,-15 4,-5 8,-8 14,-10 5,-2 11,-3 18,-3 7,0 14,1 19,3 5,2 9,5 13,9 3,3 5,8 7,13 1,5 2,11 2,17l0 4zm-24 -7c1,-7 -1,-12 -4,-16 -3,-4 -7,-6 -13,-6 -3,0 -6,0 -8,2 -3,1 -5,2 -6,4 -2,2 -3,5 -4,7 -1,3 -1,6 -1,9l36 0zm153 28c0,5 -1,9 -3,13 -2,4 -4,7 -8,10 -3,2 -7,4 -12,5 -4,2 -9,2 -14,2 -4,0 -7,0 -10,-1 -3,0 -5,-1 -8,-1 -2,-1 -4,-2 -6,-3 -1,-1 -2,-1 -3,-2 -1,-1 -1,-2 -2,-3 0,-2 0,-4 0,-7 0,-1 0,-3 0,-4 0,-1 0,-2 1,-3 0,0 0,-1 1,-1 0,0 0,0 1,0 1,0 2,0 3,1 2,1 3,1 5,2 2,1 5,2 8,3 2,1 5,1 9,1 2,0 4,0 6,0 2,-1 3,-1 4,-2 2,-1 3,-2 3,-3 1,-2 1,-3 1,-5 0,-2 0,-3 -2,-5 -1,-1 -2,-3 -4,-4 -2,-1 -5,-2 -7,-2 -3,-1 -5,-2 -8,-3 -2,-2 -5,-3 -8,-4 -2,-2 -4,-3 -6,-5 -2,-3 -4,-5 -5,-8 -1,-3 -2,-6 -2,-10 0,-5 1,-8 3,-12 1,-3 4,-6 7,-9 3,-2 6,-4 11,-5 4,-2 9,-2 15,-2 2,0 5,0 8,0 2,0 4,1 7,2 2,0 3,1 5,1 1,1 2,2 3,2 0,1 1,1 1,2 0,0 1,1 1,1 0,1 0,2 0,3 0,1 0,2 0,4 0,1 0,3 0,4 0,1 0,2 0,3 -1,0 -1,1 -1,1 -1,0 -1,0 -2,0 0,0 -1,0 -2,-1 -2,-1 -3,-1 -5,-2 -2,-1 -4,-2 -6,-2 -3,-1 -6,-1 -9,-1 -2,0 -4,0 -6,0 -1,1 -3,2 -4,2 -1,1 -1,2 -2,3 0,2 -1,3 -1,4 0,2 1,4 2,5 1,1 3,3 5,4 2,1 4,2 7,3 2,0 5,1 8,3 2,1 5,2 7,3 3,2 5,3 7,5 2,3 4,5 5,8 1,3 2,6 2,10zm115 16c0,3 0,5 0,7 -1,1 -1,2 -2,3 0,1 -1,1 -2,2 -2,0 -3,1 -4,1 -2,0 -4,0 -5,1 -2,0 -4,0 -6,0 -5,0 -9,-1 -12,-2 -4,-1 -7,-3 -9,-6 -3,-2 -4,-5 -5,-9 -2,-4 -2,-9 -2,-14l0 -44 -11 0c-1,0 -2,-1 -2,-3 -1,-1 -1,-4 -1,-7 0,-2 0,-4 0,-5 0,-1 0,-2 1,-3 0,-1 0,-1 1,-2 0,0 1,0 1,0l11 0 0 -20c0,0 0,-1 0,-1 1,-1 1,-1 2,-2 1,0 3,0 4,-1 2,0 4,0 6,0 2,0 4,0 6,0 2,1 3,1 4,1 1,1 1,1 2,2 0,0 0,1 0,1l0 20 19 0c1,0 1,0 2,0 0,1 1,1 1,2 0,1 1,2 1,3 0,1 0,3 0,5 0,3 0,6 -1,7 -1,2 -2,3 -3,3l-19 0 0 40c0,5 1,9 3,11 1,2 4,3 8,3 1,0 2,0 3,0 1,0 2,0 3,-1 1,0 1,0 2,0 0,-1 1,-1 1,-1 1,0 1,0 1,1 1,0 1,0 1,1 0,1 1,2 1,3 0,1 0,2 0,4zm87 9c0,0 0,1 0,1 -1,1 -2,1 -2,2 -1,0 -3,0 -4,0 -2,1 -4,1 -6,1 -3,0 -5,0 -6,-1 -2,0 -3,0 -4,0 -1,-1 -1,-1 -2,-2 0,0 0,-1 0,-1l0 -87c0,0 0,-1 0,-2 1,0 1,0 2,-1 1,0 2,0 4,-1 1,0 3,0 6,0 2,0 4,0 6,0 1,1 3,1 4,1 0,1 1,1 2,1 0,1 0,2 0,2l0 87zm2 -116c0,4 -1,8 -3,10 -2,2 -6,3 -11,3 -6,0 -9,-1 -11,-3 -2,-2 -3,-5 -3,-10 0,-5 1,-8 3,-10 2,-2 6,-3 11,-3 6,0 9,1 11,3 2,2 3,5 3,10zm153 116c0,0 0,1 -1,1 0,1 -1,1 -2,2 -1,0 -2,0 -3,0 -2,1 -4,1 -6,1 -3,0 -5,0 -6,-1 -2,0 -3,0 -4,0 -1,-1 -2,-1 -2,-2 0,0 -1,-1 -1,-1l0 -50c0,-4 0,-7 0,-10 -1,-2 -2,-4 -3,-6 -1,-2 -3,-3 -5,-4 -2,-1 -4,-1 -6,-1 -3,0 -6,1 -10,3 -3,2 -6,6 -9,10l0 58c0,0 -1,1 -1,1 0,1 -1,1 -2,2 -1,0 -2,0 -4,0 -1,1 -3,1 -6,1 -2,0 -4,0 -6,-1 -1,0 -2,0 -3,0 -1,-1 -2,-1 -2,-2 -1,0 -1,-1 -1,-1l0 -87c0,-1 0,-1 1,-2 0,0 1,-1 1,-1 1,0 2,-1 4,-1 1,0 3,0 5,0 2,0 3,0 5,0 1,0 2,1 3,1 1,0 1,1 2,1 0,1 0,1 0,2l0 10c5,-5 10,-9 15,-12 5,-2 10,-3 15,-3 6,0 11,0 15,2 4,2 7,5 10,8 2,4 4,8 5,12 1,5 2,10 2,16l0 54zm150 -81c0,3 -1,5 -2,7 0,1 -1,2 -2,2l-10 0c1,2 2,4 3,5 0,2 1,5 1,7 0,5 -1,9 -3,13 -2,4 -4,7 -7,10 -3,3 -7,5 -11,6 -5,1 -10,2 -15,2 -3,0 -6,0 -8,-1 -3,-1 -5,-1 -6,-2 -1,1 -2,2 -2,3 -1,1 -1,2 -1,4 0,2 1,3 2,4 2,2 4,2 7,2l21 1c5,0 10,1 14,2 3,1 7,3 9,5 3,2 5,5 6,8 2,3 2,7 2,10 0,5 -1,9 -2,12 -2,4 -5,8 -9,10 -4,3 -8,5 -14,7 -6,2 -12,2 -20,2 -7,0 -14,0 -19,-1 -5,-2 -9,-3 -13,-5 -3,-2 -5,-5 -7,-8 -1,-3 -2,-6 -2,-9 0,-2 0,-4 1,-6 0,-2 1,-4 2,-6 1,-2 2,-3 4,-5 2,-2 3,-3 5,-5 -2,-1 -5,-3 -6,-6 -2,-2 -2,-5 -2,-8 0,-4 1,-7 2,-10 2,-4 4,-6 7,-9 -2,-2 -4,-5 -5,-8 -2,-3 -2,-7 -2,-12 0,-5 0,-10 2,-14 2,-4 5,-7 8,-10 3,-2 7,-4 11,-6 4,-1 9,-2 15,-2 2,0 5,0 7,0 3,1 5,1 7,2l28 0c1,0 2,0 3,2 0,1 1,4 1,7zm-32 21c0,-5 -1,-9 -4,-11 -2,-3 -6,-4 -11,-4 -2,0 -4,0 -6,1 -2,1 -3,2 -5,3 -1,2 -2,3 -2,5 -1,2 -1,4 -1,6 0,4 1,8 4,10 2,3 6,4 11,4 2,0 4,0 6,-1 2,-1 3,-2 5,-3 1,-1 2,-3 2,-5 1,-2 1,-3 1,-5zm6 69c0,-3 -1,-5 -4,-7 -2,-2 -5,-2 -9,-2l-18 -1c-1,1 -3,2 -4,4 -1,1 -1,2 -2,3 -1,1 -1,2 -1,3 0,1 -1,2 -1,3 0,3 2,5 5,7 4,2 8,3 14,3 4,0 7,-1 10,-1 2,-1 4,-2 6,-3 1,-2 2,-3 3,-5 1,-1 1,-3 1,-4zm319 -129c0,2 0,3 0,5 -1,1 -1,2 -1,2 0,1 -1,1 -1,1 0,1 -1,1 -1,1 0,0 -1,0 -1,-1 -1,0 -2,0 -3,0 0,-1 -1,-1 -2,-1 -1,0 -3,0 -4,0 -2,0 -3,0 -5,0 -1,1 -2,2 -3,3 -1,1 -1,3 -2,5 0,2 0,4 0,7l0 8 16 0c0,0 1,0 1,0 1,1 1,1 1,2 1,1 1,2 1,3 0,1 0,3 0,5 0,3 0,6 -1,7 0,2 -1,3 -2,3l-16 0 0 70c0,0 -1,1 -1,1 0,1 -1,1 -2,2 -1,0 -2,0 -4,0 -1,1 -3,1 -6,1 -2,0 -4,0 -5,-1 -2,0 -3,0 -4,0 -1,-1 -2,-1 -2,-2 -1,0 -1,-1 -1,-1l0 -70 -11 0c-1,0 -2,-1 -2,-3 -1,-1 -1,-4 -1,-7 0,-2 0,-4 0,-5 0,-1 0,-2 1,-3 0,-1 0,-1 1,-2 0,0 1,0 1,0l11 0 0 -8c0,-6 1,-11 2,-15 1,-5 3,-8 5,-11 3,-3 6,-5 10,-7 4,-1 8,-2 14,-2 2,0 5,0 7,1 2,0 4,0 5,1 1,0 2,1 3,1 0,1 1,1 1,2 0,1 0,2 1,3 0,2 0,3 0,5z"/>
   <path class="fil3" d="M2408 1361c0,2 0,4 0,6 0,1 -1,2 -1,3 0,1 0,2 -1,2 0,0 -1,1 -2,1 0,0 -1,-1 -1,-1 -1,0 -2,0 -2,-1 -1,0 -2,0 -3,0 -1,-1 -2,-1 -3,-1 -2,0 -3,1 -4,1 -2,1 -3,2 -5,3 -1,1 -3,3 -4,4 -2,2 -3,5 -5,8l0 54c0,0 -1,1 -1,1 0,1 -1,1 -2,2 -1,0 -2,0 -4,0 -1,1 -3,1 -6,1 -2,0 -4,0 -5,-1 -2,0 -3,0 -4,0 -1,-1 -2,-1 -2,-2 -1,0 -1,-1 -1,-1l0 -87c0,-1 0,-1 1,-2 0,0 1,-1 1,-1 1,0 2,-1 4,-1 1,0 3,0 5,0 2,0 3,0 5,0 1,0 2,1 3,1 1,0 1,1 2,1 0,1 0,1 0,2l0 11c2,-3 5,-6 6,-8 3,-2 4,-4 6,-5 2,-1 4,-2 6,-3 1,0 3,0 5,0 1,0 2,0 3,0 1,0 2,0 3,0 1,0 2,1 3,1 0,0 1,0 1,1 1,0 1,1 1,1 0,0 0,1 1,2 0,0 0,1 0,3 0,1 0,3 0,5zm132 79c0,1 0,2 -1,2 -1,1 -2,1 -3,1 -1,0 -3,1 -6,1 -3,0 -5,-1 -7,-1 -1,0 -2,0 -2,-1 -1,0 -1,-1 -1,-2l0 -7c-4,4 -8,7 -12,9 -5,2 -10,3 -16,3 -4,0 -8,0 -12,-2 -4,-1 -7,-3 -10,-5 -3,-2 -5,-5 -7,-9 -1,-3 -2,-7 -2,-12 0,-5 1,-9 3,-13 2,-4 5,-7 9,-9 4,-3 8,-5 14,-6 6,-1 13,-2 20,-2l9 0 0 -5c0,-2 0,-5 -1,-7 0,-2 -1,-4 -3,-5 -1,-1 -3,-2 -5,-3 -2,-1 -4,-1 -7,-1 -5,0 -8,0 -11,1 -4,1 -6,2 -9,3 -2,1 -4,3 -6,3 -2,1 -3,2 -4,2 -1,0 -1,0 -2,-1 0,0 -1,-1 -1,-2 -1,-1 -1,-2 -1,-3 0,-1 0,-3 0,-4 0,-2 0,-4 0,-5 0,-1 1,-2 2,-3 1,-1 2,-2 5,-3 2,-1 5,-2 8,-3 3,-1 6,-2 10,-3 3,0 7,0 11,0 7,0 12,0 17,1 5,2 9,4 12,7 3,2 5,6 7,10 1,5 2,10 2,16l0 58zm-24 -37l-9 0c-4,0 -8,0 -10,1 -3,0 -6,1 -7,2 -2,1 -3,3 -4,5 -1,1 -1,3 -1,5 0,4 1,7 3,9 2,2 6,3 10,3 3,0 6,-1 9,-3 3,-2 6,-4 9,-7l0 -15zm234 37c0,0 0,1 -1,1 0,1 -1,1 -2,2 -1,0 -2,0 -3,0 -2,1 -4,1 -6,1 -3,0 -5,0 -6,-1 -2,0 -3,0 -4,0 -1,-1 -2,-1 -2,-2 0,0 -1,-1 -1,-1l0 -52c0,-3 0,-5 0,-8 -1,-2 -2,-4 -3,-6 -1,-2 -2,-3 -4,-4 -2,-1 -4,-1 -6,-1 -3,0 -6,1 -9,3 -3,2 -6,6 -10,10l0 58c0,0 0,1 0,1 -1,1 -1,1 -2,2 -1,0 -3,0 -4,0 -2,1 -4,1 -6,1 -2,0 -4,0 -6,-1 -1,0 -3,0 -4,0 -1,-1 -1,-1 -2,-2 0,0 0,-1 0,-1l0 -52c0,-3 -1,-5 -1,-8 -1,-2 -1,-4 -3,-6 -1,-2 -2,-3 -4,-4 -2,-1 -4,-1 -6,-1 -3,0 -6,1 -9,3 -3,2 -6,6 -9,10l0 58c0,0 -1,1 -1,1 0,1 -1,1 -2,2 -1,0 -2,0 -4,0 -1,1 -3,1 -6,1 -2,0 -4,0 -6,-1 -1,0 -2,0 -3,0 -1,-1 -2,-1 -2,-2 -1,0 -1,-1 -1,-1l0 -87c0,-1 0,-1 1,-2 0,0 0,-1 1,-1 1,0 2,-1 4,-1 1,0 3,0 5,0 2,0 3,0 5,0 1,0 2,1 3,1 1,0 1,1 1,1 1,1 1,1 1,2l0 10c5,-5 9,-9 14,-12 5,-2 10,-3 15,-3 4,0 7,0 10,1 3,0 5,1 7,3 3,1 5,3 6,5 2,2 3,4 4,6 3,-3 5,-5 8,-7 2,-2 5,-4 7,-5 3,-1 5,-2 8,-3 2,0 4,0 7,0 6,0 11,0 15,2 4,2 7,5 9,8 3,4 4,8 5,12 1,5 2,9 2,14l0 56zm151 -46c0,3 0,5 -2,6 -1,2 -3,3 -5,3l-53 0c0,3 1,7 2,10 0,3 2,5 4,7 2,2 4,4 7,5 3,1 7,2 11,2 4,0 8,-1 11,-1 3,-1 6,-2 9,-2 2,-1 4,-2 5,-2 2,-1 3,-1 4,-1 1,0 1,0 2,0 0,0 0,1 1,1 0,1 0,2 0,3 0,1 0,2 0,4 0,1 0,2 0,3 0,1 0,2 0,3 0,1 0,1 -1,2 0,0 0,1 -1,1 0,1 -1,1 -3,2 -2,1 -4,2 -7,2 -3,1 -7,2 -10,2 -4,1 -8,1 -12,1 -8,0 -15,-1 -21,-3 -5,-2 -10,-5 -14,-9 -4,-4 -7,-9 -9,-15 -2,-6 -3,-13 -3,-21 0,-7 1,-14 3,-21 2,-6 5,-11 9,-15 4,-5 9,-8 14,-10 6,-2 12,-3 19,-3 7,0 13,1 18,3 5,2 10,5 13,9 3,3 6,8 7,13 2,5 2,11 2,17l0 4zm-23 -7c0,-7 -1,-12 -4,-16 -3,-4 -8,-6 -14,-6 -3,0 -6,0 -8,2 -2,1 -4,2 -6,4 -1,2 -3,5 -3,7 -1,3 -2,6 -2,9l37 0zm223 -34c0,1 0,1 0,2 -1,1 -1,3 -1,5l-24 78c0,1 0,2 -1,3 0,1 -1,1 -2,2 -1,0 -3,0 -5,0 -2,1 -4,1 -8,1 -3,0 -5,0 -7,-1 -2,0 -4,0 -5,0 -1,-1 -2,-1 -3,-2 0,-1 0,-2 -1,-3l-14 -52 -1 -1 0 1 -13 52c0,1 -1,2 -1,3 -1,1 -2,1 -3,2 -1,0 -2,0 -4,0 -2,1 -5,1 -8,1 -3,0 -6,0 -8,-1 -2,0 -4,0 -5,0 -1,-1 -2,-1 -2,-2 -1,-1 -1,-2 -1,-3l-23 -78c-1,-2 -1,-3 -1,-5 -1,-1 -1,-1 -1,-2 0,-1 0,-1 1,-2 0,0 1,-1 2,-1 1,0 2,-1 4,-1 1,0 3,0 6,0 2,0 4,0 6,0 1,0 3,1 4,1 1,0 1,1 2,1 0,1 0,2 0,2l18 64 0 1 0 -1 16 -64c0,0 1,-1 1,-2 0,0 1,-1 2,-1 1,0 2,-1 4,-1 1,0 3,0 5,0 3,0 5,0 6,0 2,0 3,1 4,1 1,0 1,1 2,1 0,1 0,1 0,2l18 64 0 1 0 -1 17 -64c0,0 0,-1 1,-2 0,0 1,-1 2,-1 0,0 2,-1 3,-1 2,0 4,0 6,0 3,0 4,0 6,0 2,0 3,1 4,1 0,0 1,1 1,1 1,1 1,1 1,2zm149 42c0,8 -1,15 -3,21 -2,6 -5,11 -9,15 -4,5 -9,8 -15,11 -6,2 -12,3 -20,3 -8,0 -15,-1 -21,-3 -5,-2 -10,-5 -14,-9 -3,-4 -6,-9 -8,-15 -2,-6 -3,-13 -3,-21 0,-7 1,-14 3,-20 2,-6 5,-11 9,-16 4,-4 9,-7 15,-10 6,-2 13,-3 21,-3 7,0 14,1 20,3 6,2 10,5 14,9 4,4 7,9 8,15 2,6 3,13 3,20zm-25 1c0,-4 0,-8 -1,-11 -1,-4 -2,-7 -4,-10 -1,-2 -3,-4 -6,-6 -3,-1 -6,-2 -10,-2 -4,0 -7,0 -10,2 -2,1 -5,3 -6,6 -2,2 -4,5 -4,9 -1,3 -2,8 -2,12 0,4 1,8 1,12 1,4 2,7 4,9 1,3 4,5 6,6 3,2 6,3 10,3 4,0 7,-1 10,-2 3,-2 5,-4 7,-6 2,-3 3,-6 4,-9 1,-4 1,-8 1,-13zm148 -35c0,2 0,4 0,6 0,1 -1,2 -1,3 0,1 -1,2 -1,2 0,0 -1,1 -2,1 0,0 -1,-1 -1,-1 -1,0 -2,0 -3,-1 0,0 -1,0 -2,0 -1,-1 -2,-1 -3,-1 -2,0 -3,1 -4,1 -2,1 -3,2 -5,3 -1,1 -3,3 -4,4 -2,2 -4,5 -5,8l0 54c0,0 -1,1 -1,1 0,1 -1,1 -2,2 -1,0 -2,0 -4,0 -1,1 -3,1 -6,1 -2,0 -4,0 -6,-1 -1,0 -2,0 -3,0 -1,-1 -2,-1 -2,-2 -1,0 -1,-1 -1,-1l0 -87c0,-1 0,-1 1,-2 0,0 1,-1 1,-1 1,0 2,-1 4,-1 1,0 3,0 5,0 2,0 3,0 5,0 1,0 2,1 3,1 1,0 1,1 2,1 0,1 0,1 0,2l0 11c2,-3 4,-6 6,-8 2,-2 4,-4 6,-5 2,-1 4,-2 6,-3 1,0 3,0 5,0 1,0 2,0 3,0 1,0 2,0 3,0 1,0 2,1 3,1 0,0 1,0 1,1 1,0 1,1 1,1 0,0 0,1 0,2 1,0 1,1 1,3 0,1 0,3 0,5zm143 79c0,0 0,1 0,1 -1,1 -1,1 -2,2 -1,0 -3,0 -4,0 -2,1 -4,1 -7,1 -2,0 -4,0 -6,-1 -2,0 -3,0 -4,0 -1,-1 -2,-1 -3,-1 0,-1 -1,-2 -1,-2l-29 -46 0 46c0,0 0,1 -1,1 0,1 -1,1 -2,2 -1,0 -2,0 -3,0 -2,1 -4,1 -6,1 -3,0 -5,0 -6,-1 -2,0 -3,0 -4,0 -1,-1 -2,-1 -2,-2 0,0 0,-1 0,-1l0 -128c0,-1 0,-1 0,-2 0,0 1,-1 2,-1 1,-1 2,-1 4,-1 1,0 3,0 6,0 2,0 4,0 6,0 1,0 2,0 3,1 1,0 2,1 2,1 1,1 1,1 1,2l0 76 26 -35c0,0 1,-1 1,-2 1,0 2,-1 3,-1 1,0 2,-1 4,-1 2,0 4,0 6,0 2,0 4,0 6,0 2,0 3,1 4,1 1,0 2,1 2,1 0,1 1,1 1,2 0,1 -1,2 -1,3 -1,1 -1,2 -2,4l-26 28 30 46c1,1 1,2 2,3 0,1 0,2 0,3z"/>
  </g>
 </g>
</svg>
