<?xml version="1.0" encoding="UTF-8"?>
<!DOCTYPE svg PUBLIC "-//W3C//DTD SVG 1.1//EN" "http://www.w3.org/Graphics/SVG/1.1/DTD/svg11.dtd">
<!-- Creator: CorelDRAW X7 -->
<svg xmlns="http://www.w3.org/2000/svg" xml:space="preserve" width="117.138mm" height="48.9477mm" version="1.1" style="shape-rendering:geometricPrecision; text-rendering:geometricPrecision; image-rendering:optimizeQuality; fill-rule:evenodd; clip-rule:evenodd"
viewBox="0 0 192927 80617"
 xmlns:xlink="http://www.w3.org/1999/xlink">
 <defs>
  <style type="text/css">
   <![CDATA[
    .fil2 {fill:#FEFEFE}
    .fil1 {fill:#39356C}
    .fil0 {fill:#5EE045}
    .fil4 {fill:#FEFEFE;fill-rule:nonzero}
    .fil3 {fill:#39356C;fill-rule:nonzero}
   ]]>
  </style>
 </defs>
 <g id="Capa_x0020_1">
  <metadata id="CorelCorpID_0Corel-Layer"/>
  <path class="fil0" d="M6991 0l178944 0c3846,0 6992,3146 6992,6991l0 66635c0,3845 -3146,6991 -6992,6991l-178944 0c-3845,0 -6991,-3146 -6991,-6991l0 -66635c0,-3845 3146,-6991 6991,-6991z"/>
  <path class="fil1" d="M26230 21834l142210 0c2481,0 4511,2030 4511,4511l0 25161c0,2481 -2030,4511 -4511,4511l-142210 0c-2481,0 -4511,-2030 -4511,-4511l0 -25161c0,-2481 2030,-4511 4511,-4511z"/>
  <path class="fil0" d="M26230 23975l142210 0c1303,0 2370,1067 2370,2370l0 25161c0,1303 -1067,2370 -2370,2370l-142210 0c-1304,0 -2370,-1067 -2370,-2370l0 -25161c0,-1303 1066,-2370 2370,-2370z"/>
  <path class="fil2" d="M120819 20894c3002,-204 6006,76 8974,546 2466,391 1974,3986 -809,3441 -3733,-730 -7639,-814 -11296,350 -3580,1138 -5007,4165 -4834,7762 153,3168 -510,6076 -2106,8820 -1243,2138 -2927,3969 -4731,5644 -4783,4443 -5193,10300 -4157,16407 442,2608 -2812,3184 -3631,932 -5428,-14938 -3992,-30325 5513,-43364 1609,-2208 3789,-3832 6521,-4296 3901,-663 7694,1225 10556,3758z"/>
  <path class="fil1" d="M120389 22150c3071,-269 6151,9 9213,494 857,135 775,1268 -384,1041 -3892,-761 -7994,-859 -11900,384 -4064,1293 -5886,4733 -5681,8983 289,6003 -2605,9942 -6449,13512 -5067,4707 -5657,10856 -4530,17504 197,1159 -973,1165 -1283,311 -5013,-13794 -4342,-28931 5352,-42229 4072,-5585 10441,-4878 15662,0z"/>
  <path class="fil2" d="M112585 40586c-1892,8554 -12062,11437 -19446,13214 -2309,556 -3431,-2781 -1068,-3544 2850,-921 6893,-1963 9004,-4177 731,-767 1225,-1649 1515,-2667 804,-2825 -753,-4956 -3006,-6492 -8799,-5998 -12031,-14234 -10300,-24575 336,-2012 3062,-2205 3753,-182 1633,4786 5719,7088 10078,9040 8434,3775 11449,10440 9470,19383z"/>
  <path class="fil0" d="M111459 40337c-1598,7223 -9623,10183 -18590,12342 -891,215 -1406,-1015 -443,-1326 4920,-1589 9908,-2829 11273,-7625 913,-3209 -653,-5843 -3466,-7761 -9043,-6165 -11335,-14332 -9812,-23431 133,-799 1206,-933 1525,0 1759,5154 6058,7642 10698,9719 7762,3475 10717,9484 8815,18082z"/>
  <path class="fil3" d="M28687 48114l10908 0c6871,0 10457,-3110 10457,-8852 0,-5943 -3812,-9203 -11034,-9203l-10331 0 0 18055zm9102 -14093c4013,0 5994,1680 5994,5141 0,3585 -1881,5015 -5994,5015l-2959 0 0 -10156 2959 0zm21708 14394c7649,0 11611,-3160 11611,-9203 0,-6144 -3862,-9479 -11159,-9479 -7373,0 -11385,3360 -11385,9278 0,6119 3762,9404 10933,9404zm-4664 -9178c0,-3762 1856,-5843 4915,-5843 3310,0 5091,2056 5091,5968 0,3586 -1705,5417 -5041,5417 -3285,0 -4965,-1856 -4965,-5542zm29407 -3110l6369 0c-276,-4188 -3561,-6344 -9805,-6344 -7222,0 -11184,3536 -11184,9680 0,5567 3862,8952 10658,8952 6871,0 10356,-2132 10808,-6921l-6395 0c-326,2106 -1705,3209 -3962,3209 -3084,0 -4815,-1956 -4815,-5491 0,-3687 1781,-5718 4890,-5718 1956,0 3110,878 3436,2633z"/>
  <path class="fil4" d="M127755 46650c0,539 -32,952 -100,1241 -69,288 -157,488 -270,601 -107,119 -270,226 -483,314 -219,94 -470,175 -758,238 -282,69 -595,119 -934,157 -339,37 -677,56 -1022,56 -915,0 -1711,-119 -2388,-351 -670,-232 -1228,-589 -1673,-1072 -439,-483 -765,-1090 -972,-1830 -207,-734 -313,-1605 -313,-2607l0 -8393 -1987 0c-232,0 -414,-144 -533,-433 -125,-288 -188,-771 -188,-1448 0,-357 13,-658 44,-902 31,-245 81,-439 144,-583 57,-138 138,-238 232,-301 88,-63 201,-94 320,-94l1968 0 0 -3667c0,-119 31,-232 100,-332 69,-94 194,-176 370,-244 175,-69 420,-119 721,-151 301,-31 670,-44 1115,-44 452,0 828,13 1129,44 300,32 539,82 714,151 169,68 295,150 364,244 75,100 113,213 113,332l0 3667 3553 0c126,0 232,31 320,94 94,63 169,163 232,301 63,144 107,338 138,583 31,244 44,545 44,902 0,677 -63,1160 -182,1448 -125,289 -301,433 -533,433l-3572 0 0 7697c0,896 137,1567 420,2012 281,445 783,670 1504,670 244,0 464,-18 658,-62 194,-44 370,-94 520,-151 157,-50 282,-100 389,-144 100,-44 200,-63 282,-63 75,0 144,19 213,63 63,44 119,125 157,257 31,126 69,301 100,520 31,226 44,502 44,847zm15190 -7058c0,564 -125,978 -376,1247 -251,270 -595,408 -1040,408l-9979 0c0,695 81,1322 251,1892 163,565 426,1047 783,1442 364,395 827,696 1398,903 570,206 1247,313 2043,313 809,0 1517,-56 2131,-175 608,-119 1141,-245 1586,-389 445,-144 815,-270 1109,-389 295,-119 533,-175 715,-175 113,0 207,19 276,63 75,43 138,119 188,231 44,107 81,264 100,464 19,201 25,458 25,759 0,269 -6,501 -19,689 -12,188 -31,351 -56,483 -25,138 -56,251 -106,338 -51,94 -113,182 -195,270 -81,81 -294,200 -652,351 -357,150 -808,294 -1360,439 -551,144 -1178,269 -1886,376 -709,106 -1467,163 -2276,163 -1460,0 -2733,-182 -3829,-552 -1091,-364 -2006,-921 -2746,-1667 -733,-746 -1278,-1693 -1642,-2827 -357,-1141 -539,-2476 -539,-4005 0,-1454 188,-2764 570,-3936 377,-1166 928,-2157 1655,-2972 721,-814 1599,-1435 2633,-1861 1040,-433 2206,-646 3503,-646 1373,0 2545,201 3517,608 978,401 1773,965 2400,1680 621,715 1085,1567 1379,2545 295,978 439,2043 439,3197l0 733zm-4475 -1316c37,-1298 -226,-2320 -784,-3059 -558,-746 -1416,-1116 -2582,-1116 -589,0 -1103,113 -1536,332 -438,220 -802,514 -1090,890 -289,376 -508,815 -659,1323 -156,514 -244,1053 -269,1630l6920 0zm17033 5346c0,928 -176,1749 -527,2463 -344,709 -839,1298 -1479,1781 -639,476 -1391,833 -2262,1071 -872,239 -1812,358 -2827,358 -615,0 -1204,-44 -1762,-138 -558,-94 -1053,-213 -1498,-358 -438,-137 -808,-282 -1103,-432 -294,-151 -508,-288 -639,-420 -138,-132 -245,-332 -314,-608 -75,-269 -112,-677 -112,-1216 0,-351 12,-633 37,-846 25,-213 63,-389 107,-514 50,-125 113,-213 188,-257 69,-44 163,-63 276,-63 131,0 332,75 595,232 263,157 589,326 984,508 389,188 846,363 1366,520 521,163 1116,245 1774,245 414,0 790,-44 1110,-132 326,-82 608,-207 846,-370 238,-157 420,-357 545,-608 119,-244 182,-526 182,-846 0,-370 -113,-683 -339,-947 -231,-263 -532,-495 -902,-689 -376,-194 -802,-376 -1272,-552 -470,-169 -959,-357 -1455,-570 -495,-207 -984,-445 -1454,-714 -470,-270 -896,-596 -1272,-991 -370,-388 -671,-865 -903,-1410 -225,-552 -338,-1216 -338,-1987 0,-784 156,-1498 464,-2156 307,-652 746,-1216 1322,-1680 583,-464 1285,-827 2112,-1084 834,-257 1762,-383 2796,-383 520,0 1015,38 1504,107 483,75 928,169 1317,276 394,113 727,225 996,357 270,125 464,238 583,326 119,94 201,182 251,276 44,94 81,200 106,332 25,125 51,288 69,476 19,188 25,426 25,708 0,333 -6,602 -25,809 -18,207 -50,376 -94,495 -44,126 -100,207 -175,251 -75,44 -163,63 -257,63 -113,0 -289,-63 -521,-195 -231,-125 -526,-263 -877,-407 -351,-144 -758,-282 -1216,-407 -464,-132 -990,-195 -1580,-195 -420,0 -783,44 -1090,126 -307,87 -558,213 -758,369 -195,157 -345,345 -439,558 -101,213 -151,445 -151,683 0,383 119,702 351,959 232,257 539,483 922,677 376,195 814,383 1297,552 483,169 978,357 1473,558 495,200 990,438 1473,708 483,270 921,602 1298,990 382,395 689,859 921,1404 232,546 351,1191 351,1937zm9931 3028c0,539 -31,952 -100,1241 -69,288 -157,488 -269,601 -107,119 -270,226 -483,314 -219,94 -470,175 -758,238 -283,69 -596,119 -934,157 -339,37 -677,56 -1022,56 -915,0 -1711,-119 -2388,-351 -671,-232 -1229,-589 -1674,-1072 -438,-483 -764,-1090 -971,-1830 -207,-734 -314,-1605 -314,-2607l0 -8393 -1987 0c-231,0 -413,-144 -532,-433 -126,-288 -188,-771 -188,-1448 0,-357 12,-658 44,-902 31,-245 81,-439 144,-583 56,-138 138,-238 232,-301 87,-63 200,-94 319,-94l1968 0 0 -3667c0,-119 32,-232 101,-332 69,-94 194,-176 369,-244 176,-69 420,-119 721,-151 301,-31 671,-44 1116,-44 451,0 827,13 1128,44 301,32 539,82 715,151 169,68 294,150 363,244 75,100 113,213 113,332l0 3667 3554 0c125,0 232,31 320,94 94,63 169,163 232,301 62,144 106,338 137,583 32,244 44,545 44,902 0,677 -62,1160 -181,1448 -126,289 -301,433 -533,433l-3573 0 0 7697c0,896 138,1567 420,2012 282,445 784,670 1504,670 245,0 464,-18 658,-62 195,-44 370,-94 521,-151 156,-50 282,-100 388,-144 101,-44 201,-63 282,-63 76,0 145,19 214,63 62,44 119,125 156,257 31,126 69,301 100,520 32,226 44,502 44,847z"/>
  <g id="_2831613984416">
   <path class="fil4" d="M49890 62956c0,60 -1,111 -5,153 -3,41 -9,77 -17,107 -6,30 -16,55 -28,77 -12,21 -30,45 -57,72 -25,27 -76,62 -151,105 -75,41 -166,82 -274,121 -109,38 -231,71 -370,96 -139,26 -289,39 -451,39 -315,0 -599,-48 -853,-146 -254,-97 -471,-243 -648,-436 -179,-193 -315,-434 -410,-725 -95,-289 -142,-626 -142,-1010 0,-392 52,-739 156,-1043 105,-304 251,-559 438,-766 187,-207 412,-362 675,-469 261,-107 551,-161 867,-161 127,0 250,11 369,33 120,21 229,49 330,84 101,34 191,74 272,119 80,46 137,85 169,117 32,33 54,59 66,80 12,22 22,49 28,81 7,35 13,73 17,118 3,46 5,100 5,167 0,71 -3,131 -8,181 -5,50 -13,90 -24,120 -12,31 -27,54 -43,67 -17,15 -36,22 -57,22 -35,0 -80,-20 -135,-62 -54,-41 -125,-87 -211,-138 -87,-51 -190,-98 -310,-139 -119,-41 -262,-62 -428,-62 -182,0 -345,38 -489,112 -143,75 -265,181 -366,320 -101,139 -177,307 -230,504 -52,196 -77,418 -77,665 0,270 28,505 84,703 55,197 134,361 238,489 102,127 227,223 373,285 146,64 310,95 492,95 166,0 309,-19 431,-58 120,-39 223,-83 310,-129 87,-48 158,-90 214,-128 56,-37 98,-57 130,-57 23,0 42,5 56,15 14,9 26,28 36,57 9,28 16,68 21,119 5,52 7,120 7,206zm5368 -1349c0,67 -4,123 -11,168 -7,45 -17,81 -32,109 -14,27 -31,47 -49,59 -20,12 -39,18 -61,18l-1109 0 0 1207c0,23 -6,45 -18,62 -11,18 -32,34 -60,46 -29,14 -67,23 -114,31 -47,7 -107,11 -178,11 -71,0 -131,-4 -178,-11 -48,-8 -85,-17 -114,-31 -28,-12 -49,-28 -63,-46 -13,-17 -19,-39 -19,-62l0 -1207 -1101 0c-22,0 -42,-6 -60,-18 -17,-12 -33,-32 -47,-59 -15,-28 -26,-64 -34,-109 -9,-45 -13,-101 -13,-168 0,-64 4,-120 11,-166 8,-47 17,-83 31,-111 12,-27 28,-46 43,-58 18,-13 36,-19 58,-19l1112 0 0 -1207c0,-23 6,-45 19,-65 14,-21 35,-37 63,-50 29,-14 66,-23 114,-31 47,-7 107,-11 178,-11 71,0 131,4 178,11 47,8 85,17 114,31 28,13 49,29 60,50 12,20 18,42 18,65l0 1207 1120 0c18,0 36,6 54,19 19,12 34,31 47,58 13,28 23,64 30,111 7,46 11,102 11,166zm5470 0c0,67 -4,123 -11,168 -7,45 -17,81 -32,109 -14,27 -31,47 -49,59 -20,12 -39,18 -61,18l-1109 0 0 1207c0,23 -6,45 -18,62 -11,18 -32,34 -60,46 -29,14 -67,23 -114,31 -47,7 -107,11 -178,11 -71,0 -131,-4 -178,-11 -48,-8 -85,-17 -114,-31 -28,-12 -49,-28 -63,-46 -13,-17 -19,-39 -19,-62l0 -1207 -1101 0c-22,0 -42,-6 -60,-18 -17,-12 -33,-32 -47,-59 -15,-28 -26,-64 -34,-109 -9,-45 -13,-101 -13,-168 0,-64 4,-120 11,-166 8,-47 17,-83 31,-111 12,-27 28,-46 44,-58 17,-13 35,-19 57,-19l1112 0 0 -1207c0,-23 6,-45 19,-65 14,-21 35,-37 63,-50 29,-14 66,-23 114,-31 47,-7 107,-11 178,-11 71,0 131,4 178,11 47,8 85,17 114,31 28,13 49,29 60,50 12,20 18,42 18,65l0 1207 1120 0c18,0 36,6 54,19 19,12 34,31 47,58 13,28 23,64 30,111 7,46 11,102 11,166zm5813 1613c0,105 -6,185 -19,241 -13,56 -30,95 -52,117 -21,23 -53,44 -94,61 -42,18 -91,34 -147,46 -55,13 -116,23 -181,30 -66,8 -132,11 -198,11 -178,0 -332,-23 -464,-68 -130,-45 -238,-114 -324,-208 -85,-93 -148,-211 -189,-355 -40,-142 -60,-311 -60,-506l0 -1627 -386 0c-45,0 -80,-28 -103,-84 -24,-56 -37,-150 -37,-281 0,-69 3,-128 9,-175 6,-48 16,-85 28,-113 11,-27 27,-47 45,-59 17,-12 39,-18 62,-18l382 0 0 -711c0,-23 6,-45 19,-64 13,-19 38,-34 72,-48 34,-13 81,-23 140,-29 58,-6 130,-9 216,-9 88,0 161,3 219,9 58,6 104,16 138,29 33,14 58,29 71,48 15,19 22,41 22,64l0 711 689 0c24,0 45,6 62,18 18,12 33,32 45,59 12,28 21,65 27,113 6,47 8,106 8,175 0,131 -12,225 -35,281 -24,56 -58,84 -103,84l-693 0 0 1492c0,174 27,304 81,391 55,86 152,130 292,130 47,0 90,-4 128,-12 37,-9 71,-19 101,-30 30,-9 54,-19 75,-28 19,-8 39,-12 55,-12 14,0 28,4 41,12 12,9 23,25 30,50 6,25 14,59 20,101 6,44 8,97 8,164zm5238 -1368c0,109 -24,189 -73,241 -49,53 -115,80 -202,80l-1935 0c0,134 16,256 49,367 31,109 82,203 151,279 71,77 161,135 272,175 110,40 242,61 396,61 157,0 294,-11 413,-34 118,-23 222,-47 308,-75 86,-28 158,-53 215,-76 57,-23 103,-34 139,-34 22,0 40,4 53,12 15,9 27,24 37,45 8,21 15,51 19,90 4,39 5,89 5,147 0,53 -1,98 -4,134 -2,37 -6,68 -11,94 -5,27 -11,48 -20,65 -10,19 -22,36 -38,53 -16,15 -57,39 -126,68 -70,29 -157,57 -264,85 -107,28 -229,52 -366,73 -138,21 -285,31 -442,31 -283,0 -530,-35 -742,-106 -212,-71 -389,-179 -533,-324 -142,-145 -248,-328 -318,-548 -70,-221 -105,-480 -105,-777 0,-282 37,-536 111,-764 73,-226 180,-418 321,-576 140,-158 310,-278 510,-361 202,-84 428,-125 680,-125 266,0 494,39 682,118 190,78 344,187 466,326 120,138 210,304 267,493 57,190 85,397 85,620l0 143zm-868 -256c7,-251 -44,-450 -152,-593 -108,-145 -275,-216 -501,-216 -114,0 -214,21 -298,64 -85,42 -155,100 -211,173 -56,73 -99,158 -128,256 -30,100 -47,204 -52,316l1342 0zm5595 1037c0,180 -34,339 -102,478 -67,137 -163,252 -287,345 -124,93 -270,162 -439,208 -169,46 -351,69 -548,69 -119,0 -233,-8 -342,-26 -108,-19 -204,-42 -290,-70 -85,-26 -157,-54 -214,-83 -57,-30 -99,-56 -124,-82 -27,-26 -48,-64 -61,-118 -14,-52 -22,-131 -22,-236 0,-68 3,-122 8,-164 4,-41 12,-75 20,-100 10,-24 22,-41 37,-49 13,-9 31,-13 53,-13 26,0 65,15 116,45 51,31 114,64 190,99 76,36 165,70 266,101 100,31 216,47 344,47 80,0 153,-8 215,-25 63,-16 118,-40 164,-72 46,-31 81,-69 106,-118 23,-47 35,-102 35,-164 0,-72 -22,-133 -66,-184 -45,-51 -103,-96 -175,-133 -73,-38 -155,-73 -247,-107 -91,-33 -186,-70 -282,-111 -96,-40 -191,-86 -282,-139 -91,-52 -174,-115 -246,-192 -72,-75 -130,-167 -175,-273 -44,-107 -66,-236 -66,-386 0,-151 30,-290 90,-418 59,-126 145,-236 256,-326 113,-90 250,-160 410,-210 162,-50 342,-74 542,-74 101,0 197,7 292,21 94,14 180,33 255,53 77,22 141,44 194,69 52,25 90,47 113,64 23,18 39,35 48,53 9,18 16,39 21,65 5,24 10,55 13,92 4,36 5,83 5,137 0,65 -1,117 -5,157 -3,40 -9,73 -18,96 -8,25 -19,40 -34,49 -14,8 -31,12 -50,12 -22,0 -56,-12 -101,-38 -45,-24 -102,-51 -170,-79 -68,-28 -147,-54 -236,-79 -90,-25 -192,-37 -306,-37 -82,0 -152,8 -212,24 -59,17 -108,41 -147,72 -37,30 -67,66 -85,108 -19,41 -29,86 -29,132 0,75 23,136 68,186 45,50 105,94 179,132 73,37 158,74 251,107 94,32 190,69 286,108 96,39 192,85 286,137 93,52 179,117 252,192 74,77 133,167 178,273 45,105 68,231 68,375zm4218 587c0,105 -6,185 -19,241 -14,56 -31,95 -53,117 -20,23 -52,44 -93,61 -43,18 -91,34 -147,46 -55,13 -116,23 -182,30 -65,8 -131,11 -198,11 -177,0 -332,-23 -463,-68 -130,-45 -238,-114 -324,-208 -86,-93 -149,-211 -189,-355 -40,-142 -61,-311 -61,-506l0 -1627 -385 0c-45,0 -80,-28 -103,-84 -25,-56 -37,-150 -37,-281 0,-69 3,-128 9,-175 6,-48 15,-85 28,-113 11,-27 26,-47 45,-59 17,-12 39,-18 62,-18l381 0 0 -711c0,-23 6,-45 20,-64 13,-19 37,-34 72,-48 34,-13 81,-23 139,-29 59,-6 130,-9 217,-9 87,0 160,3 219,9 58,6 104,16 138,29 33,14 57,29 71,48 14,19 21,41 21,64l0 711 690 0c24,0 45,6 62,18 18,12 33,32 45,59 12,28 21,65 26,113 7,47 9,106 9,175 0,131 -12,225 -35,281 -25,56 -59,84 -103,84l-694 0 0 1492c0,174 27,304 82,391 55,86 152,130 292,130 47,0 90,-4 127,-12 38,-9 72,-19 101,-30 31,-9 55,-19 76,-28 19,-8 39,-12 54,-12 15,0 28,4 42,12 12,9 23,25 30,50 6,25 14,59 19,101 7,44 9,97 9,164zm3192 313c0,23 -7,44 -21,62 -14,18 -38,33 -73,45 -34,11 -81,20 -136,27 -58,6 -131,8 -218,8 -88,0 -161,-2 -218,-8 -56,-7 -102,-16 -136,-27 -35,-12 -59,-27 -73,-45 -14,-18 -22,-39 -22,-62l0 -3173c0,-23 8,-44 22,-62 14,-18 38,-34 73,-46 34,-14 80,-23 136,-31 57,-7 130,-11 218,-11 87,0 160,4 218,11 55,8 102,17 136,31 35,12 59,28 73,46 14,18 21,39 21,62l0 3173zm73 -4260c0,181 -36,305 -110,375 -74,69 -211,103 -411,103 -202,0 -339,-33 -409,-100 -70,-67 -105,-187 -105,-360 0,-181 36,-306 109,-377 72,-69 209,-104 412,-104 199,0 336,34 407,102 72,67 107,187 107,361zm5604 4260c0,23 -7,44 -22,62 -13,18 -37,33 -70,45 -34,11 -80,20 -139,27 -58,6 -130,8 -215,8 -89,0 -162,-2 -220,-8 -59,-7 -105,-16 -139,-27 -33,-12 -57,-27 -70,-45 -15,-18 -22,-39 -22,-62l0 -1813c0,-154 -11,-276 -34,-363 -22,-89 -55,-164 -97,-226 -43,-64 -99,-112 -166,-147 -68,-35 -146,-52 -236,-52 -114,0 -228,42 -345,126 -115,82 -237,204 -362,362l0 2113c0,23 -7,44 -22,62 -13,18 -38,33 -73,45 -34,11 -80,20 -136,27 -57,6 -130,8 -218,8 -87,0 -160,-2 -217,-8 -56,-7 -103,-16 -136,-27 -36,-12 -60,-27 -73,-45 -15,-18 -22,-39 -22,-62l0 -3180c0,-24 6,-44 18,-63 11,-18 33,-32 63,-44 32,-11 71,-21 119,-27 49,-6 111,-9 184,-9 76,0 138,3 188,9 50,6 89,16 117,27 27,12 46,26 58,44 12,19 19,39 19,63l0 367c175,-190 353,-331 536,-426 181,-95 371,-142 567,-142 217,0 399,35 548,107 148,70 267,168 359,290 91,122 157,266 197,430 40,164 61,361 61,590l0 1964zm5488 -2958c0,114 -13,198 -40,253 -25,55 -57,83 -96,83l-373 0c52,57 89,121 112,193 23,73 34,148 34,226 0,185 -32,349 -93,492 -62,144 -150,265 -266,364 -114,98 -254,172 -416,224 -163,51 -344,76 -543,76 -102,0 -199,-12 -292,-38 -93,-24 -164,-53 -214,-86 -29,31 -54,67 -76,111 -23,42 -34,90 -34,142 0,69 30,126 91,170 59,44 144,68 254,73l773 28c180,7 342,33 483,77 141,43 260,105 356,186 96,79 170,175 221,285 51,112 77,240 77,382 0,157 -35,304 -104,443 -69,139 -172,260 -310,362 -138,102 -311,182 -519,242 -208,59 -450,89 -728,89 -270,0 -501,-22 -693,-65 -191,-42 -348,-102 -469,-177 -123,-77 -212,-167 -268,-273 -55,-105 -83,-221 -83,-347 0,-78 9,-154 30,-224 21,-72 50,-140 89,-206 39,-64 87,-127 144,-186 58,-59 122,-116 196,-171 -102,-55 -181,-129 -237,-222 -56,-94 -84,-197 -84,-309 0,-140 33,-268 96,-383 65,-116 148,-219 251,-313 -84,-82 -150,-182 -200,-297 -50,-117 -75,-262 -75,-434 0,-186 33,-352 98,-498 65,-146 156,-268 273,-369 115,-101 255,-178 415,-231 162,-54 341,-81 535,-81 100,0 196,7 287,18 91,12 177,27 254,48l1008 0c40,0 73,27 99,79 24,52 37,140 37,264zm-1151 753c0,-171 -47,-304 -142,-399 -95,-95 -229,-142 -403,-142 -87,0 -165,14 -231,45 -66,29 -121,69 -166,120 -44,51 -77,110 -97,179 -22,68 -32,138 -32,211 0,162 47,289 142,383 95,94 226,141 395,141 90,0 169,-14 235,-42 67,-30 121,-68 165,-118 45,-50 78,-107 101,-173 22,-66 33,-134 33,-205zm210 2534c0,-106 -42,-188 -127,-244 -87,-57 -203,-89 -353,-92l-638 -19c-61,45 -111,89 -147,130 -38,42 -67,81 -90,119 -22,38 -37,75 -44,110 -7,35 -11,73 -11,110 0,118 60,209 180,270 120,63 289,93 507,93 136,0 250,-14 343,-42 92,-26 166,-63 224,-108 57,-45 97,-95 121,-150 23,-56 35,-115 35,-177zm11693 -4719c0,69 -2,124 -7,166 -5,42 -13,75 -21,97 -10,23 -21,37 -33,46 -11,8 -24,12 -39,12 -17,0 -35,-4 -54,-12 -21,-9 -45,-17 -76,-27 -29,-10 -64,-18 -104,-27 -40,-8 -88,-12 -143,-12 -63,0 -119,10 -165,30 -46,20 -85,53 -115,96 -31,44 -54,101 -67,171 -15,70 -22,155 -22,257l0 292 582 0c22,0 42,6 60,18 18,12 33,32 45,59 11,28 20,65 26,113 7,47 9,106 9,175 0,131 -12,225 -35,281 -25,56 -59,84 -105,84l-582 0 0 2571c0,23 -7,44 -22,62 -13,18 -38,33 -71,45 -34,11 -80,20 -139,27 -60,6 -133,8 -218,8 -86,0 -158,-2 -216,-8 -59,-7 -106,-16 -140,-27 -34,-12 -59,-27 -72,-45 -13,-18 -19,-39 -19,-62l0 -2571 -398 0c-45,0 -79,-28 -101,-84 -23,-56 -34,-150 -34,-281 0,-69 3,-128 9,-175 6,-48 14,-85 25,-113 11,-27 25,-47 43,-59 17,-12 37,-18 62,-18l394 0 0 -267c0,-217 21,-406 64,-569 43,-162 109,-298 201,-406 92,-109 209,-190 350,-245 141,-54 309,-81 501,-81 92,0 180,7 263,23 83,16 149,33 196,50 48,18 80,35 96,50 17,15 31,39 42,68 10,30 18,68 23,114 5,48 7,105 7,174z"/>
   <path class="fil4" d="M110019 60649c0,85 -2,156 -7,211 -5,54 -12,97 -21,127 -9,30 -23,52 -37,65 -16,12 -36,17 -60,17 -18,0 -40,-4 -64,-13 -24,-8 -50,-17 -81,-26 -29,-10 -62,-19 -97,-27 -36,-9 -75,-12 -118,-12 -50,0 -100,10 -149,30 -50,21 -103,51 -156,95 -53,43 -109,100 -168,170 -58,72 -120,159 -187,264l0 1983c0,23 -7,44 -22,62 -13,18 -38,33 -73,45 -34,11 -80,20 -136,27 -57,6 -130,8 -218,8 -87,0 -160,-2 -217,-8 -56,-7 -102,-16 -136,-27 -36,-12 -60,-27 -73,-45 -15,-18 -22,-39 -22,-62l0 -3180c0,-24 6,-44 18,-63 11,-18 33,-32 63,-44 32,-11 71,-21 119,-27 49,-6 111,-9 184,-9 76,0 139,3 188,9 50,6 89,16 117,27 27,12 46,26 58,44 13,19 19,39 19,63l0 396c82,-119 161,-217 234,-293 74,-77 145,-139 211,-184 67,-45 133,-76 200,-93 66,-19 133,-27 200,-27 30,0 64,1 99,5 35,3 73,9 111,18 38,9 72,18 100,28 29,11 49,22 63,34 12,12 22,25 28,39 6,14 11,34 16,59 4,25 8,63 10,112 3,50 4,117 4,202zm4844 2895c0,33 -12,58 -35,78 -25,19 -62,32 -113,41 -51,8 -127,12 -228,12 -107,0 -184,-4 -233,-12 -49,-9 -84,-22 -103,-41 -21,-20 -31,-45 -31,-78l0 -253c-131,140 -279,248 -447,326 -167,78 -353,116 -557,116 -168,0 -323,-22 -464,-65 -141,-44 -263,-110 -366,-196 -104,-87 -184,-194 -241,-322 -57,-129 -85,-278 -85,-449 0,-186 36,-346 108,-482 73,-138 181,-250 325,-339 143,-89 321,-155 535,-197 212,-43 460,-65 743,-65l309 0 0 -192c0,-100 -9,-187 -30,-263 -19,-74 -53,-137 -100,-187 -46,-50 -107,-86 -184,-110 -77,-24 -173,-36 -286,-36 -150,0 -283,17 -400,50 -118,33 -221,71 -311,111 -90,40 -166,78 -227,110 -60,33 -109,50 -147,50 -26,0 -49,-8 -69,-24 -21,-17 -37,-41 -50,-72 -13,-30 -23,-69 -30,-114 -7,-45 -11,-95 -11,-148 0,-75 6,-133 18,-175 11,-43 34,-81 67,-116 34,-34 91,-72 175,-113 83,-41 180,-80 292,-115 112,-37 233,-66 365,-88 132,-23 268,-34 408,-34 249,0 462,24 640,73 176,49 322,124 435,225 114,101 198,231 250,390 53,158 78,348 78,565l0 2139zm-883 -1364l-341 0c-145,0 -268,11 -370,31 -102,22 -185,54 -249,98 -64,42 -111,93 -140,154 -30,61 -45,130 -45,208 0,134 43,238 127,313 84,77 200,115 350,115 125,0 241,-32 346,-96 106,-65 213,-158 322,-282l0 -541zm8580 1353c0,23 -7,44 -22,62 -13,18 -37,33 -70,45 -34,11 -79,20 -136,27 -57,6 -130,8 -218,8 -91,0 -165,-2 -222,-8 -57,-7 -104,-16 -138,-27 -34,-12 -58,-27 -71,-45 -14,-18 -20,-39 -20,-62l0 -1885c0,-106 -10,-204 -30,-291 -20,-89 -51,-164 -93,-226 -41,-64 -93,-112 -155,-147 -64,-35 -138,-52 -225,-52 -107,0 -215,42 -324,126 -109,82 -227,204 -355,362l0 2113c0,23 -7,44 -22,62 -13,18 -37,33 -72,45 -34,11 -81,20 -138,27 -57,6 -129,8 -214,8 -88,0 -161,-2 -219,-8 -57,-7 -103,-16 -137,-27 -35,-12 -60,-27 -73,-45 -15,-18 -22,-39 -22,-62l0 -1885c0,-106 -9,-204 -30,-291 -20,-89 -50,-164 -91,-226 -41,-64 -93,-112 -156,-147 -64,-35 -140,-52 -225,-52 -109,0 -218,42 -327,126 -109,82 -227,204 -352,362l0 2113c0,23 -8,44 -22,62 -14,18 -38,33 -73,45 -34,11 -81,20 -136,27 -58,6 -131,8 -218,8 -88,0 -161,-2 -218,-8 -56,-7 -102,-16 -136,-27 -35,-12 -59,-27 -73,-45 -14,-18 -22,-39 -22,-62l0 -3180c0,-24 6,-44 19,-63 11,-18 32,-32 63,-44 31,-11 70,-21 119,-27 49,-6 111,-9 183,-9 77,0 139,3 189,9 50,6 89,16 117,27 26,12 46,26 58,44 12,19 18,39 18,63l0 367c175,-190 350,-331 525,-426 176,-95 358,-142 547,-142 132,0 250,13 354,41 105,27 197,66 280,117 81,51 152,112 211,182 60,72 110,151 150,239 95,-103 188,-190 280,-263 91,-73 182,-134 271,-180 88,-46 177,-80 267,-102 89,-23 179,-34 272,-34 211,0 389,35 534,107 145,70 262,168 350,290 90,122 153,266 191,430 38,164 57,336 57,520l0 2034zm5559 -1681c0,109 -24,189 -73,241 -49,53 -115,80 -202,80l-1935 0c0,134 16,256 48,367 32,109 83,203 152,279 71,77 161,135 271,175 111,40 242,61 397,61 157,0 294,-11 413,-34 118,-23 221,-47 308,-75 86,-28 158,-53 215,-76 57,-23 103,-34 139,-34 21,0 40,4 53,12 15,9 27,24 36,45 9,21 16,51 20,90 4,39 5,89 5,147 0,53 -1,98 -4,134 -2,37 -6,68 -11,94 -5,27 -11,48 -20,65 -10,19 -22,36 -38,53 -16,15 -57,39 -127,68 -69,29 -156,57 -263,85 -107,28 -229,52 -366,73 -138,21 -285,31 -442,31 -283,0 -530,-35 -742,-106 -212,-71 -389,-179 -533,-324 -142,-145 -248,-328 -318,-548 -70,-221 -105,-480 -105,-777 0,-282 36,-536 111,-764 73,-226 180,-418 321,-576 139,-158 310,-278 510,-361 202,-84 428,-125 680,-125 266,0 493,39 682,118 189,78 344,187 465,326 121,138 211,304 268,493 57,190 85,397 85,620l0 143zm-868 -256c7,-251 -44,-450 -152,-593 -108,-145 -275,-216 -501,-216 -114,0 -214,21 -298,64 -85,42 -155,100 -211,173 -56,73 -99,158 -128,256 -30,100 -47,204 -52,316l1342 0zm8180 -1251c0,27 -4,59 -11,98 -7,37 -20,92 -39,162l-846 2878c-12,40 -28,73 -46,97 -20,26 -49,45 -88,60 -40,13 -96,23 -168,28 -73,5 -168,7 -284,7 -116,0 -212,-2 -285,-8 -74,-7 -131,-17 -173,-31 -42,-14 -72,-34 -92,-59 -18,-25 -32,-56 -42,-94l-536 -1933 -8 -32 -7 32 -491 1933c-9,40 -23,73 -40,97 -18,26 -49,45 -91,60 -43,13 -101,23 -175,28 -73,5 -169,7 -285,7 -119,0 -215,-2 -287,-8 -73,-7 -130,-17 -171,-31 -42,-14 -72,-34 -91,-59 -20,-25 -33,-56 -43,-94l-842 -2878c-22,-68 -36,-122 -42,-161 -6,-39 -8,-72 -8,-99 0,-23 6,-43 19,-62 13,-18 37,-31 72,-42 34,-11 80,-19 138,-23 59,-5 132,-8 219,-8 95,0 172,3 231,8 60,4 106,13 139,24 33,12 56,28 69,48 14,21 23,45 31,73l634 2336 7 42 8 -42 591 -2336c7,-28 18,-52 34,-73 14,-20 37,-36 69,-48 30,-11 74,-20 130,-24 56,-5 128,-8 215,-8 89,0 161,3 215,9 55,6 98,14 130,25 32,11 55,25 67,43 14,18 25,39 31,62l637 2354 11 38 7 -42 605 -2336c5,-28 15,-52 28,-73 15,-20 39,-36 72,-48 33,-11 78,-20 135,-24 57,-5 129,-8 216,-8 88,0 160,3 216,8 55,4 99,12 131,23 33,11 55,24 66,42 12,19 18,39 18,62zm5471 1566c0,270 -35,517 -107,740 -72,223 -179,415 -325,577 -144,161 -325,285 -544,374 -219,88 -474,131 -766,131 -283,0 -529,-38 -738,-118 -209,-77 -383,-192 -520,-341 -138,-150 -240,-333 -307,-552 -67,-218 -99,-467 -99,-748 0,-270 36,-518 108,-741 73,-225 181,-417 327,-578 144,-159 326,-283 543,-372 217,-87 472,-131 764,-131 285,0 532,39 741,115 209,78 382,191 518,341 138,149 238,333 305,552 67,217 100,468 100,751zm-919 35c0,-157 -12,-301 -38,-432 -25,-133 -67,-247 -128,-344 -59,-98 -138,-174 -237,-229 -99,-55 -223,-81 -374,-81 -134,0 -250,24 -351,72 -100,49 -183,121 -247,214 -64,94 -113,207 -145,338 -33,133 -48,282 -48,451 0,157 13,302 39,433 26,133 69,247 127,344 59,97 138,173 238,226 100,54 224,81 372,81 137,0 255,-25 355,-73 100,-49 183,-119 247,-212 65,-94 112,-205 144,-337 30,-132 46,-282 46,-451zm5421 -1297c0,85 -2,156 -7,211 -5,54 -12,97 -21,127 -9,30 -23,52 -37,65 -16,12 -36,17 -60,17 -18,0 -40,-4 -64,-13 -24,-8 -50,-17 -81,-26 -29,-10 -62,-19 -97,-27 -36,-9 -75,-12 -118,-12 -50,0 -100,10 -149,30 -50,21 -103,51 -156,95 -53,43 -109,100 -168,170 -58,72 -120,159 -187,264l0 1983c0,23 -7,44 -22,62 -13,18 -37,33 -73,45 -34,11 -80,20 -136,27 -57,6 -130,8 -218,8 -87,0 -160,-2 -217,-8 -56,-7 -102,-16 -136,-27 -36,-12 -60,-27 -73,-45 -15,-18 -22,-39 -22,-62l0 -3180c0,-24 6,-44 18,-63 11,-18 33,-32 63,-44 32,-11 71,-21 119,-27 49,-6 111,-9 184,-9 77,0 139,3 188,9 50,6 89,16 117,27 27,12 46,26 58,44 13,19 19,39 19,63l0 396c82,-119 161,-217 234,-293 75,-77 145,-139 211,-184 67,-45 133,-76 200,-93 66,-19 133,-27 200,-27 30,0 64,1 99,5 35,3 73,9 111,18 38,9 72,18 100,28 29,11 49,22 63,34 12,12 22,25 28,39 6,14 11,34 16,59 4,25 8,63 10,112 3,50 4,117 4,202zm5252 2887c0,24 -6,44 -19,63 -13,18 -36,31 -72,42 -34,11 -81,19 -141,26 -59,6 -136,8 -232,8 -97,0 -176,-2 -237,-7 -61,-5 -111,-12 -149,-23 -39,-11 -70,-26 -92,-45 -22,-18 -40,-44 -57,-74l-1058 -1676 0 1683c0,23 -7,44 -21,62 -14,18 -38,33 -73,45 -34,11 -81,20 -136,27 -58,6 -131,8 -218,8 -88,0 -161,-2 -218,-8 -56,-7 -102,-16 -136,-27 -35,-12 -59,-27 -73,-45 -14,-18 -22,-39 -22,-62l0 -4687c0,-24 8,-45 22,-64 14,-18 38,-35 73,-48 34,-13 80,-23 136,-30 57,-7 130,-11 218,-11 87,0 160,4 218,11 55,7 102,17 136,30 35,13 59,30 73,48 14,19 21,40 21,64l0 2790 941 -1265c20,-29 41,-54 65,-76 23,-20 55,-37 94,-49 38,-11 87,-21 145,-27 59,-6 133,-9 223,-9 87,0 162,3 222,9 60,6 109,16 146,27 37,12 62,26 76,44 14,19 22,41 22,66 0,35 -9,74 -27,115 -19,40 -45,82 -81,128l-928 1056 1078 1664c28,47 49,89 62,123 13,34 19,65 19,94z"/>
  </g>
 </g>
</svg>
