<?xml version="1.0" encoding="UTF-8"?>
<!DOCTYPE svg PUBLIC "-//W3C//DTD SVG 1.1//EN" "http://www.w3.org/Graphics/SVG/1.1/DTD/svg11.dtd">
<!-- Creator: CorelDRAW X7 -->
<svg xmlns="http://www.w3.org/2000/svg" xml:space="preserve" width="91.8227mm" height="33.6724mm" version="1.1" style="shape-rendering:geometricPrecision; text-rendering:geometricPrecision; image-rendering:optimizeQuality; fill-rule:evenodd; clip-rule:evenodd"
viewBox="0 0 4251 1559"
 xmlns:xlink="http://www.w3.org/1999/xlink">
 <defs>
  <style type="text/css">
   <![CDATA[
    .fil2 {fill:#FEFEFE}
    .fil1 {fill:#FEFEFE}
    .fil0 {fill:#39356C}
    .fil3 {fill:#5EE045}
    .fil6 {fill:#A9ABAE;fill-rule:nonzero}
    .fil4 {fill:#39356C;fill-rule:nonzero}
    .fil5 {fill:#5EE045;fill-rule:nonzero}
   ]]>
  </style>
 </defs>
 <g id="Capa_x0020_1">
  <metadata id="CorelCorpID_0Corel-Layer"/>
  <path class="fil0" d="M127 312l3997 0c70,0 127,57 127,127l0 707c0,70 -57,127 -127,127l-3997 0c-70,0 -127,-57 -127,-127l0 -707c0,-70 57,-127 127,-127z"/>
  <path class="fil1" d="M127 372l3997 0c37,0 67,30 67,67l0 707c0,37 -30,67 -67,67l-3997 0c-37,0 -67,-30 -67,-67l0 -707c0,-37 30,-67 67,-67z"/>
  <path class="fil2" d="M2786 286c84,-6 169,2 252,15 69,11 56,112 -23,97 -105,-21 -214,-23 -317,9 -101,32 -141,118 -136,219 4,89 -14,170 -59,248 -35,60 -83,111 -133,158 -135,125 -146,290 -117,461 12,74 -79,90 -102,27 -153,-420 -112,-853 155,-1219 45,-62 106,-108 183,-121 110,-19 216,34 297,106z"/>
  <path class="fil0" d="M2774 321c86,-8 173,0 259,14 24,4 21,35 -11,29 -109,-21 -225,-24 -335,11 -114,36 -165,133 -159,252 8,169 -74,280 -182,380 -142,132 -159,305 -127,492 6,33 -27,33 -36,9 -141,-388 -122,-813 150,-1187 115,-157 294,-137 441,0z"/>
  <path class="fil2" d="M2554 839c-53,241 -339,322 -546,372 -65,15 -97,-79 -30,-100 80,-26 193,-55 253,-118 20,-21 34,-46 42,-74 23,-80 -21,-140 -84,-183 -247,-169 -338,-400 -290,-691 10,-56 86,-62 106,-5 46,135 161,199 283,254 237,106 322,294 266,545z"/>
  <path class="fil3" d="M2523 832c-45,203 -271,286 -523,347 -25,6 -39,-29 -12,-37 138,-45 278,-80 317,-215 25,-90 -19,-164 -98,-218 -254,-173 -319,-403 -276,-658 4,-23 34,-27 43,0 50,144 170,214 301,273 218,97 301,266 248,508z"/>
  <path class="fil4" d="M196 1051l307 0c193,0 293,-88 293,-249 0,-167 -107,-259 -310,-259l-290 0 0 508zm256 -396c113,0 168,47 168,144 0,101 -53,141 -168,141l-83 0 0 -285 83 0zm610 404c215,0 326,-89 326,-259 0,-172 -108,-266 -313,-266 -208,0 -320,94 -320,261 0,172 105,264 307,264zm-131 -258c0,-106 52,-164 138,-164 93,0 143,58 143,168 0,100 -48,152 -142,152 -92,0 -139,-52 -139,-156zm827 -87l179 0c-8,-118 -101,-179 -276,-179 -203,0 -314,100 -314,272 0,157 108,252 299,252 193,0 291,-60 304,-194l-180 0c-9,59 -48,90 -111,90 -87,0 -136,-55 -136,-155 0,-103 51,-160 138,-160 55,0 87,24 97,74z"/>
  <path class="fil5" d="M2981 1010c0,15 -1,26 -3,34 -2,9 -4,14 -8,17 -3,4 -7,7 -13,9 -6,3 -13,5 -22,7 -7,2 -16,3 -26,4 -9,1 -19,2 -28,2 -26,0 -49,-4 -68,-10 -18,-7 -34,-17 -47,-30 -12,-14 -21,-31 -27,-52 -6,-20 -9,-45 -9,-73l0 -236 -56 0c-6,0 -11,-4 -15,-12 -3,-8 -5,-22 -5,-41 0,-10 0,-18 1,-25 1,-7 3,-12 4,-16 2,-4 4,-7 7,-9 2,-2 6,-3 9,-3l55 0 0 -103c0,-3 1,-6 3,-9 2,-3 6,-5 10,-7 5,-2 12,-3 21,-4 8,-1 19,-1 31,-1 13,0 23,0 32,1 8,1 15,2 20,4 5,2 8,4 10,7 2,3 3,6 3,9l0 103 100 0c4,0 7,1 9,3 3,2 5,5 7,9 1,4 3,9 4,16 0,7 1,15 1,25 0,19 -2,33 -5,41 -4,8 -9,12 -15,12l-101 0 0 217c0,25 4,44 12,56 8,13 22,19 42,19 7,0 13,-1 19,-2 5,-1 10,-2 14,-4 5,-1 8,-3 11,-4 3,-1 6,-2 8,-2 2,0 4,1 6,2 2,1 4,3 5,7 1,4 2,9 3,15 0,6 1,14 1,24zm427 -199c0,16 -4,28 -11,35 -7,8 -17,12 -29,12l-281 0c0,19 3,37 8,53 4,16 11,29 22,40 10,11 23,20 39,26 16,6 35,9 57,9 23,0 43,-2 60,-5 17,-4 32,-7 45,-11 12,-4 23,-8 31,-11 8,-4 15,-5 20,-5 3,0 6,0 8,2 2,1 4,3 5,6 1,3 2,8 3,13 0,6 1,13 1,21 0,8 -1,15 -1,20 0,5 -1,10 -2,13 0,4 -1,7 -3,10 -1,3 -3,5 -5,8 -2,2 -8,5 -18,9 -10,5 -23,9 -39,13 -15,4 -33,7 -53,10 -19,3 -41,5 -64,5 -41,0 -76,-5 -107,-16 -31,-10 -57,-26 -77,-46 -21,-21 -36,-48 -47,-80 -10,-32 -15,-70 -15,-113 0,-40 6,-77 16,-110 11,-33 26,-61 47,-84 20,-23 45,-40 74,-52 29,-12 62,-18 98,-18 39,0 72,5 99,17 28,11 50,27 68,47 17,20 30,44 38,72 9,27 13,57 13,90l0 20zm-126 -37c1,-36 -6,-65 -22,-86 -16,-21 -40,-31 -73,-31 -16,0 -31,3 -43,9 -12,6 -22,15 -30,25 -9,11 -15,23 -19,37 -4,15 -7,30 -8,46l195 0zm479 150c0,26 -5,50 -15,70 -10,20 -24,36 -42,50 -18,13 -39,23 -63,30 -25,7 -51,10 -80,10 -17,0 -33,-1 -49,-4 -16,-3 -30,-6 -42,-10 -13,-4 -23,-8 -31,-12 -9,-4 -15,-8 -18,-12 -4,-4 -7,-9 -9,-17 -2,-8 -3,-19 -3,-34 0,-10 0,-18 1,-24 1,-6 2,-11 3,-15 1,-3 3,-6 5,-7 2,-1 5,-2 8,-2 4,0 9,3 17,7 7,4 16,9 27,14 11,6 24,11 39,15 14,4 31,7 50,7 11,0 22,-1 31,-4 9,-2 17,-6 24,-10 6,-5 11,-10 15,-17 3,-7 5,-15 5,-24 0,-11 -3,-19 -10,-27 -6,-7 -15,-14 -25,-19 -11,-6 -22,-11 -36,-16 -13,-4 -27,-10 -41,-16 -14,-6 -27,-12 -40,-20 -14,-7 -26,-17 -36,-28 -11,-11 -19,-24 -26,-39 -6,-16 -9,-34 -9,-56 0,-22 4,-42 13,-61 9,-18 21,-34 37,-47 16,-13 36,-23 59,-30 24,-8 50,-11 79,-11 15,0 29,1 42,3 14,2 26,5 37,8 11,3 21,6 28,10 8,3 13,6 17,9 3,2 5,5 7,8 1,2 2,5 3,9 0,3 1,8 2,13 0,6 0,12 0,20 0,9 0,17 0,23 -1,6 -2,10 -3,14 -1,3 -3,6 -5,7 -2,1 -4,2 -7,2 -3,0 -8,-2 -15,-6 -6,-3 -14,-7 -24,-11 -10,-4 -22,-8 -35,-12 -13,-3 -27,-5 -44,-5 -12,0 -22,1 -31,3 -8,3 -15,6 -21,11 -5,4 -10,9 -12,15 -3,6 -4,13 -4,20 0,10 3,19 9,27 7,7 16,13 26,19 11,5 23,10 37,15 13,5 27,10 41,16 14,5 28,12 42,20 13,7 25,17 36,28 11,11 19,24 26,39 6,15 10,33 10,54zm279 86c0,15 -1,26 -3,34 -2,9 -4,14 -7,17 -3,4 -8,7 -14,9 -6,3 -13,5 -21,7 -8,2 -17,3 -27,4 -9,1 -19,2 -28,2 -26,0 -48,-4 -67,-10 -19,-7 -35,-17 -47,-30 -13,-14 -22,-31 -28,-52 -6,-20 -9,-45 -9,-73l0 -236 -55 0c-7,0 -12,-4 -15,-12 -4,-8 -6,-22 -6,-41 0,-10 1,-18 2,-25 0,-7 2,-12 4,-16 1,-4 3,-7 6,-9 3,-2 6,-3 9,-3l55 0 0 -103c0,-3 1,-6 3,-9 2,-3 6,-5 11,-7 5,-2 11,-3 20,-4 8,-1 19,-1 31,-1 13,0 24,0 32,1 8,1 15,2 20,4 5,2 8,4 10,7 2,3 3,6 3,9l0 103 100 0c4,0 7,1 9,3 3,2 5,5 7,9 2,4 3,9 4,16 1,7 1,15 1,25 0,19 -2,33 -5,41 -4,8 -9,12 -15,12l-101 0 0 217c0,25 4,44 12,56 8,13 22,19 43,19 6,0 13,-1 18,-2 6,-1 10,-2 15,-4 4,-1 8,-3 11,-4 2,-1 5,-2 8,-2 2,0 4,1 6,2 1,1 3,3 4,7 1,4 2,9 3,15 1,6 1,14 1,24z"/>
  <g id="_2831609520800">
   <path class="fil6" d="M792 1468c0,2 0,3 0,4 0,1 0,2 -1,3 0,1 0,2 0,2 -1,1 -1,2 -2,2 -1,1 -2,2 -4,3 -2,2 -5,3 -8,4 -3,1 -7,2 -10,2 -4,1 -9,2 -13,2 -9,0 -17,-2 -24,-5 -7,-2 -13,-6 -18,-12 -5,-5 -9,-12 -12,-20 -3,-8 -4,-18 -4,-29 0,-11 2,-20 5,-29 3,-8 7,-16 12,-21 5,-6 11,-11 19,-14 7,-3 15,-4 24,-4 4,0 7,0 11,1 3,0 6,1 9,2 3,1 5,2 8,3 2,2 3,3 4,4 1,1 2,1 2,2 0,1 1,1 1,2 0,1 0,2 0,4 0,1 1,2 1,4 0,2 -1,4 -1,5 0,2 0,3 0,4 -1,1 -1,1 -2,2 0,0 -1,0 -1,0 -1,0 -2,0 -4,-1 -2,-2 -3,-3 -6,-4 -2,-2 -5,-3 -9,-4 -3,-1 -7,-2 -12,-2 -5,0 -9,1 -13,3 -4,2 -8,5 -11,9 -3,4 -5,9 -6,14 -2,6 -2,12 -2,19 0,8 0,14 2,20 2,5 4,10 7,14 3,3 6,6 10,8 4,1 9,2 14,2 5,0 9,0 12,-1 4,-2 6,-3 9,-4 2,-1 4,-3 6,-4 1,-1 3,-1 4,-1 0,0 1,0 1,0 1,0 1,1 1,2 0,1 1,2 1,3 0,2 0,4 0,6zm151 -38c0,2 0,3 0,5 -1,1 -1,2 -1,3 -1,1 -1,1 -2,1 0,1 -1,1 -1,1l-32 0 0 34c0,1 0,1 0,2 0,0 -1,1 -2,1 -1,0 -2,1 -3,1 -1,0 -3,0 -5,0 -2,0 -4,0 -5,0 -1,0 -2,-1 -3,-1 -1,0 -2,-1 -2,-1 0,-1 -1,-1 -1,-2l0 -34 -31 0c0,0 -1,0 -1,-1 -1,0 -1,0 -2,-1 0,-1 0,-2 0,-3 -1,-2 -1,-3 -1,-5 0,-2 0,-3 0,-5 1,-1 1,-2 1,-3 1,-1 1,-1 2,-1 0,-1 1,-1 1,-1l31 0 0 -34c0,-1 1,-1 1,-2 0,0 1,-1 2,-1 1,-1 2,-1 3,-1 1,0 3,0 5,0 2,0 4,0 5,0 1,0 2,0 3,1 1,0 2,1 2,1 0,1 0,1 0,2l0 34 32 0c0,0 1,0 1,1 1,0 1,0 2,1 0,1 0,2 1,3 0,2 0,3 0,5zm154 0c0,2 -1,3 -1,5 0,1 0,2 -1,3 0,1 0,1 -1,1 -1,1 -1,1 -2,1l-31 0 0 34c0,1 0,1 0,2 -1,0 -1,1 -2,1 -1,0 -2,1 -3,1 -2,0 -3,0 -5,0 -2,0 -4,0 -5,0 -2,0 -3,-1 -4,-1 0,0 -1,-1 -1,-1 -1,-1 -1,-1 -1,-2l0 -34 -31 0c0,0 -1,0 -1,-1 -1,0 -1,0 -2,-1 0,-1 0,-2 -1,-3 0,-2 0,-3 0,-5 0,-2 0,-3 0,-5 0,-1 1,-2 1,-3 0,-1 1,-1 1,-1 1,-1 1,-1 2,-1l31 0 0 -34c0,-1 0,-1 1,-2 0,0 1,-1 1,-1 1,-1 2,-1 4,-1 1,0 3,0 5,0 2,0 3,0 5,0 1,0 2,0 3,1 1,0 1,1 2,1 0,1 0,1 0,2l0 34 32 0c0,0 1,0 1,1 1,0 1,0 1,1 1,1 1,2 1,3 0,2 1,3 1,5zm163 45c0,3 0,6 -1,7 0,2 0,3 -1,3 -1,1 -1,2 -3,2 -1,1 -2,1 -4,1 -1,1 -3,1 -5,1 -2,0 -4,1 -5,1 -5,0 -10,-1 -13,-2 -4,-2 -7,-4 -10,-6 -2,-3 -4,-6 -5,-10 -1,-4 -2,-9 -2,-14l0 -46 -10 0c-2,0 -3,-1 -3,-3 -1,-1 -1,-4 -1,-7 0,-2 0,-4 0,-5 0,-2 0,-3 1,-4 0,0 0,-1 1,-1 0,0 1,-1 2,-1l10 0 0 -20c0,0 1,-1 1,-1 0,-1 1,-1 2,-2 1,0 2,0 4,-1 2,0 4,0 6,0 2,0 5,0 6,0 2,1 3,1 4,1 1,1 2,1 2,2 0,0 1,1 1,1l0 20 19 0c1,0 1,1 2,1 0,0 1,1 1,1 0,1 1,2 1,4 0,1 0,3 0,5 0,3 0,6 -1,7 -1,2 -2,3 -3,3l-19 0 0 42c0,5 0,8 2,11 1,2 4,3 8,3 1,0 3,0 4,0 1,0 2,0 3,-1 0,0 1,0 2,-1 0,0 1,0 1,0 1,0 1,0 1,0 1,1 1,1 1,2 0,1 1,2 1,3 0,1 0,2 0,4zm147 -38c0,3 0,5 -2,7 -1,1 -3,2 -5,2l-55 0c0,4 1,7 1,10 1,3 3,6 5,8 2,2 4,4 7,5 3,1 7,2 12,2 4,0 8,-1 11,-1 3,-1 6,-2 9,-2 2,-1 4,-2 6,-2 1,-1 3,-1 4,-1 0,0 1,0 1,0 1,0 1,1 1,1 0,1 1,2 1,3 0,1 0,2 0,4 0,1 0,3 0,4 0,1 0,1 0,2 -1,1 -1,2 -1,2 0,1 -1,1 -1,2 -1,0 -2,1 -4,1 -2,1 -4,2 -7,3 -3,1 -7,1 -10,2 -4,0 -8,1 -13,1 -8,0 -15,-1 -21,-3 -6,-2 -11,-5 -15,-9 -4,-4 -7,-10 -9,-16 -2,-6 -3,-13 -3,-22 0,-8 2,-15 4,-21 2,-6 5,-12 9,-16 4,-5 8,-8 14,-10 6,-3 12,-4 19,-4 8,0 14,1 19,3 6,3 10,6 13,10 4,3 6,8 8,13 1,6 2,12 2,18l0 4zm-24 -7c0,-7 -1,-13 -4,-17 -3,-4 -8,-6 -15,-6 -3,0 -6,1 -8,2 -2,1 -4,3 -6,5 -1,2 -3,4 -3,7 -1,3 -2,6 -2,9l38 0zm157 29c0,5 -1,9 -3,13 -2,4 -4,7 -8,10 -3,3 -7,5 -12,6 -5,1 -10,2 -16,2 -3,0 -6,0 -9,-1 -3,0 -6,-1 -8,-2 -3,-1 -5,-1 -6,-2 -2,-1 -3,-2 -4,-3 -1,0 -1,-1 -2,-3 0,-1 0,-4 0,-7 0,-1 0,-3 0,-4 0,-1 0,-2 1,-3 0,-1 0,-1 1,-1 0,-1 1,-1 1,-1 1,0 2,1 3,2 2,0 4,1 6,2 2,1 4,2 7,3 3,1 6,2 10,2 2,0 4,-1 6,-1 2,-1 3,-1 5,-2 1,-1 2,-2 3,-4 0,-1 1,-2 1,-4 0,-2 -1,-4 -2,-5 -2,-2 -3,-3 -5,-4 -2,-1 -5,-2 -7,-3 -3,-1 -5,-2 -8,-3 -3,-1 -5,-3 -8,-4 -3,-2 -5,-3 -7,-5 -2,-3 -4,-5 -5,-8 -1,-3 -2,-7 -2,-11 0,-4 1,-8 3,-12 1,-3 4,-6 7,-9 3,-2 7,-4 12,-6 4,-1 9,-2 15,-2 3,0 5,0 8,1 3,0 5,1 7,1 2,1 4,1 6,2 1,1 2,1 3,2 0,0 1,1 1,1 0,1 1,1 1,2 0,1 0,2 0,3 0,1 0,2 0,4 0,1 0,3 0,4 0,1 0,2 0,3 -1,0 -1,1 -1,1 -1,0 -1,0 -2,0 0,0 -1,0 -3,-1 -1,0 -3,-1 -4,-2 -2,-1 -5,-1 -7,-2 -3,-1 -5,-1 -9,-1 -2,0 -4,0 -6,1 -1,0 -3,1 -4,2 -1,0 -2,2 -2,3 -1,1 -1,2 -1,3 0,2 1,4 2,6 1,1 3,2 5,3 2,1 4,2 7,3 3,1 5,2 8,3 3,1 5,3 8,4 3,2 5,4 7,6 2,2 4,4 5,7 1,3 2,7 2,11zm119 16c0,3 0,6 -1,7 0,2 -1,3 -1,3 -1,1 -2,2 -3,2 -1,1 -3,1 -4,1 -2,1 -3,1 -5,1 -2,0 -4,1 -6,1 -5,0 -9,-1 -13,-2 -3,-2 -6,-4 -9,-6 -2,-3 -4,-6 -5,-10 -1,-4 -2,-9 -2,-14l0 -46 -11 0c-1,0 -2,-1 -3,-3 0,-1 -1,-4 -1,-7 0,-2 0,-4 1,-5 0,-2 0,-3 0,-4 1,0 1,-1 2,-1 0,0 1,-1 1,-1l11 0 0 -20c0,0 0,-1 1,-1 0,-1 1,-1 2,-2 1,0 2,0 4,-1 1,0 3,0 6,0 2,0 4,0 6,0 1,1 3,1 4,1 1,1 1,1 2,2 0,0 0,1 0,1l0 20 20 0c0,0 1,1 1,1 1,0 1,1 2,1 0,1 0,2 0,4 1,1 1,3 1,5 0,3 -1,6 -1,7 -1,2 -2,3 -3,3l-20 0 0 42c0,5 1,8 3,11 1,2 4,3 8,3 1,0 2,0 3,0 1,0 2,0 3,-1 1,0 2,0 2,-1 1,0 1,0 2,0 0,0 1,0 1,0 0,1 1,1 1,2 0,1 0,2 0,3 1,1 1,2 1,4zm89 9c0,1 0,1 0,2 -1,0 -1,1 -2,1 -1,0 -2,1 -4,1 -2,0 -4,0 -6,0 -3,0 -5,0 -6,0 -2,0 -3,-1 -4,-1 -1,0 -2,-1 -2,-1 -1,-1 -1,-1 -1,-2l0 -89c0,-1 0,-1 1,-2 0,0 1,-1 2,-1 1,0 2,-1 4,-1 1,0 3,0 6,0 2,0 4,0 6,0 2,0 3,1 4,1 1,0 1,1 2,1 0,1 0,1 0,2l0 89zm2 -120c0,5 -1,9 -3,11 -2,2 -6,3 -11,3 -6,0 -10,-1 -12,-3 -2,-2 -3,-5 -3,-10 0,-5 1,-9 3,-11 2,-2 6,-3 12,-3 6,0 9,1 11,3 2,2 3,5 3,10zm158 120c0,1 0,1 -1,2 0,0 -1,1 -2,1 -1,0 -2,1 -3,1 -2,0 -4,0 -7,0 -2,0 -4,0 -6,0 -1,0 -3,-1 -4,-1 -1,0 -1,-1 -2,-1 0,-1 0,-1 0,-2l0 -51c0,-4 -1,-8 -1,-10 -1,-3 -2,-5 -3,-6 -1,-2 -3,-4 -5,-5 -1,0 -4,-1 -6,-1 -3,0 -7,1 -10,4 -3,2 -7,5 -10,10l0 59c0,1 0,1 -1,2 0,0 -1,1 -2,1 -1,0 -2,1 -4,1 -1,0 -3,0 -6,0 -2,0 -4,0 -6,0 -1,0 -3,-1 -4,-1 -1,0 -1,-1 -2,-1 0,-1 0,-1 0,-2l0 -89c0,-1 0,-2 0,-2 1,-1 1,-1 2,-1 1,-1 2,-1 3,-1 2,0 3,0 6,0 2,0 3,0 5,0 1,0 2,0 3,1 1,0 1,0 2,1 0,0 0,1 0,2l0 10c5,-5 10,-9 15,-12 5,-3 11,-4 16,-4 6,0 11,1 16,3 4,2 7,5 10,8 2,4 4,8 5,12 1,5 2,10 2,17l0 55zm154 -83c0,3 0,6 -1,7 -1,2 -1,2 -3,2l-10 0c1,2 2,4 3,6 1,2 1,4 1,6 0,5 -1,10 -3,14 -1,4 -4,7 -7,10 -3,3 -7,5 -12,7 -4,1 -9,2 -15,2 -3,0 -6,-1 -8,-1 -3,-1 -5,-2 -6,-3 -1,1 -2,2 -2,3 -1,2 -1,3 -1,4 0,2 1,4 2,5 2,1 4,2 7,2l22 1c5,0 10,1 14,2 4,1 7,3 10,5 2,3 5,5 6,8 1,4 2,7 2,11 0,4 -1,9 -3,13 -2,3 -5,7 -9,10 -3,3 -8,5 -14,7 -6,1 -13,2 -21,2 -7,0 -14,-1 -19,-2 -5,-1 -10,-3 -13,-5 -4,-2 -6,-4 -8,-7 -1,-3 -2,-7 -2,-10 0,-2 0,-5 1,-7 0,-2 1,-3 2,-5 1,-2 3,-4 4,-6 2,-1 4,-3 6,-4 -3,-2 -5,-4 -7,-7 -1,-2 -2,-5 -2,-8 0,-4 1,-8 2,-11 2,-3 5,-6 8,-9 -3,-2 -5,-5 -6,-8 -2,-3 -2,-8 -2,-12 0,-6 1,-10 3,-14 1,-4 4,-8 7,-11 3,-3 7,-5 12,-6 4,-2 9,-3 15,-3 3,0 5,1 8,1 3,0 5,1 7,1l28 0c2,0 3,1 3,3 1,1 1,3 1,7zm-32 21c0,-5 -1,-8 -4,-11 -3,-3 -6,-4 -11,-4 -3,0 -5,0 -7,1 -2,1 -3,2 -5,4 -1,1 -2,3 -2,5 -1,2 -1,3 -1,6 0,4 1,8 4,10 2,3 6,4 11,4 2,0 5,0 7,-1 1,-1 3,-2 4,-3 1,-2 2,-3 3,-5 1,-2 1,-4 1,-6zm6 71c0,-3 -1,-5 -4,-6 -2,-2 -5,-3 -10,-3l-18 -1c-1,2 -3,3 -4,4 -1,1 -2,2 -2,3 -1,1 -1,3 -1,3 -1,1 -1,3 -1,4 0,3 2,5 5,7 4,2 8,3 15,3 3,0 7,-1 9,-1 3,-1 5,-2 6,-3 2,-2 3,-3 4,-5 1,-1 1,-3 1,-5zm329 -132c0,2 -1,3 -1,4 0,2 0,2 0,3 -1,1 -1,1 -1,1 0,1 -1,1 -1,1 -1,0 -1,0 -2,-1 0,0 -1,0 -2,0 -1,-1 -2,-1 -3,-1 -1,0 -2,0 -4,0 -2,0 -3,0 -5,0 -1,1 -2,2 -3,3 -1,1 -1,3 -2,5 0,2 0,4 0,7l0 8 16 0c1,0 1,1 2,1 0,0 1,1 1,1 0,1 1,2 1,4 0,1 0,3 0,5 0,3 0,6 -1,7 -1,2 -2,3 -3,3l-16 0 0 72c0,1 0,1 -1,2 0,0 -1,1 -2,1 -1,0 -2,1 -4,1 -1,0 -3,0 -6,0 -2,0 -4,0 -6,0 -2,0 -3,-1 -4,-1 -1,0 -2,-1 -2,-1 0,-1 0,-1 0,-2l0 -72 -12 0c-1,0 -2,-1 -2,-3 -1,-1 -1,-4 -1,-7 0,-2 0,-4 0,-5 0,-2 0,-3 1,-4 0,0 0,-1 1,-1 0,0 1,-1 1,-1l12 0 0 -7c0,-6 0,-12 1,-16 2,-5 3,-9 6,-12 3,-3 6,-5 10,-6 4,-2 9,-3 14,-3 3,0 5,0 7,1 3,0 4,1 6,1 1,1 2,1 3,2 0,0 0,1 1,2 0,0 0,2 0,3 0,1 1,3 1,5z"/>
   <path class="fil6" d="M2482 1403c0,2 0,4 0,6 0,2 0,3 -1,4 0,0 0,1 -1,1 0,1 -1,1 -1,1 -1,0 -1,0 -2,0 -1,-1 -2,-1 -2,-1 -1,-1 -2,-1 -3,-1 -1,0 -2,0 -3,0 -2,0 -3,0 -5,1 -1,0 -2,1 -4,2 -2,1 -3,3 -5,5 -1,2 -3,4 -5,7l0 56c0,1 0,1 -1,2 0,0 -1,1 -2,1 -1,0 -2,1 -3,1 -2,0 -4,0 -7,0 -2,0 -4,0 -6,0 -1,0 -3,-1 -4,-1 -1,0 -1,-1 -2,-1 0,-1 0,-1 0,-2l0 -89c0,-1 0,-2 0,-2 1,-1 1,-1 2,-1 1,-1 2,-1 3,-1 2,0 4,0 6,0 2,0 3,0 5,0 1,0 2,0 3,1 1,0 1,0 2,1 0,0 0,1 0,2l0 11c3,-3 5,-6 7,-8 2,-3 4,-4 6,-6 2,-1 4,-2 5,-2 2,-1 4,-1 6,-1 1,0 2,0 3,0 1,0 2,0 3,1 1,0 2,0 3,1 1,0 1,0 2,0 0,1 0,1 0,2 1,0 1,1 1,1 0,1 0,2 0,3 0,2 0,4 0,6zm136 81c0,1 0,2 -1,3 0,0 -1,1 -3,1 -1,0 -3,0 -6,0 -3,0 -5,0 -7,0 -1,0 -2,-1 -3,-1 0,-1 0,-2 0,-3l0 -7c-4,4 -8,7 -13,9 -5,3 -10,4 -16,4 -4,0 -9,-1 -13,-2 -4,-1 -7,-3 -10,-6 -3,-2 -5,-5 -7,-9 -1,-3 -2,-7 -2,-12 0,-5 1,-10 3,-14 2,-4 5,-7 9,-9 4,-3 9,-5 15,-6 6,-1 13,-2 21,-2l9 0 0 -5c0,-3 -1,-5 -1,-7 -1,-3 -2,-4 -3,-6 -1,-1 -3,-2 -5,-3 -2,-1 -5,-1 -8,-1 -5,0 -8,1 -12,2 -3,0 -6,2 -8,3 -3,1 -5,2 -7,3 -1,1 -3,1 -4,1 -1,0 -1,0 -2,-1 0,0 -1,-1 -1,-2 -1,0 -1,-1 -1,-3 0,-1 0,-2 0,-4 0,-2 0,-4 0,-5 1,-1 1,-2 2,-3 1,-1 3,-2 5,-3 2,-1 5,-3 8,-3 3,-2 7,-2 10,-3 4,-1 8,-1 12,-1 7,0 13,1 18,2 5,2 9,4 12,6 3,3 6,7 7,11 2,5 2,10 2,16l0 60zm-24 -38l-10 0c-4,0 -8,0 -10,1 -3,1 -6,1 -7,3 -2,1 -4,2 -4,4 -1,2 -2,4 -2,6 0,4 2,7 4,9 2,2 6,3 10,3 3,0 7,-1 10,-3 2,-2 5,-4 9,-8l0 -15zm241 38c0,1 0,1 -1,2 0,0 -1,1 -2,1 -1,0 -2,1 -4,1 -1,0 -3,0 -6,0 -2,0 -4,0 -6,0 -2,0 -3,-1 -4,-1 -1,0 -2,-1 -2,-1 0,-1 0,-1 0,-2l0 -53c0,-3 -1,-6 -1,-8 -1,-3 -2,-5 -3,-6 -1,-2 -3,-4 -4,-5 -2,0 -4,-1 -7,-1 -3,0 -6,1 -9,4 -3,2 -6,5 -10,10l0 59c0,1 0,1 0,2 -1,0 -1,1 -2,1 -1,0 -3,1 -4,1 -2,0 -4,0 -6,0 -3,0 -5,0 -6,0 -2,0 -3,-1 -4,-1 -1,0 -2,-1 -2,-1 -1,-1 -1,-1 -1,-2l0 -53c0,-3 0,-6 -1,-8 0,-3 -1,-5 -2,-6 -1,-2 -3,-4 -5,-5 -2,0 -4,-1 -6,-1 -3,0 -6,1 -9,4 -3,2 -7,5 -10,10l0 59c0,1 0,1 -1,2 0,0 -1,1 -2,1 -1,0 -2,1 -4,1 -1,0 -3,0 -6,0 -2,0 -4,0 -6,0 -1,0 -3,-1 -4,-1 -1,0 -1,-1 -2,-1 0,-1 0,-1 0,-2l0 -89c0,-1 0,-2 0,-2 0,-1 1,-1 2,-1 1,-1 2,-1 3,-1 2,0 3,0 5,0 3,0 4,0 6,0 1,0 2,0 3,1 1,0 1,0 2,1 0,0 0,1 0,2l0 10c5,-5 10,-9 15,-12 5,-3 10,-4 15,-4 4,0 7,0 10,1 3,1 6,2 8,4 2,1 4,3 6,5 2,2 3,4 4,6 3,-3 6,-5 8,-7 3,-2 5,-4 8,-5 2,-1 5,-2 7,-3 3,-1 5,-1 8,-1 6,0 11,1 15,3 4,2 7,5 10,8 2,4 4,8 5,12 1,5 2,10 2,15l0 57zm156 -47c0,3 -1,5 -2,7 -1,1 -3,2 -6,2l-54 0c0,4 0,7 1,10 1,3 3,6 5,8 2,2 4,4 7,5 3,1 7,2 11,2 5,0 9,-1 12,-1 3,-1 6,-2 9,-2 2,-1 4,-2 6,-2 1,-1 3,-1 4,-1 0,0 1,0 1,0 0,0 1,1 1,1 0,1 0,2 1,3 0,1 0,2 0,4 0,1 0,3 0,4 0,1 -1,1 -1,2 0,1 0,2 0,2 -1,1 -1,1 -1,2 -1,0 -2,1 -4,1 -2,1 -4,2 -7,3 -3,1 -7,1 -11,2 -3,0 -8,1 -12,1 -8,0 -15,-1 -21,-3 -6,-2 -11,-5 -15,-9 -4,-4 -7,-10 -9,-16 -2,-6 -3,-13 -3,-22 0,-8 1,-15 3,-21 2,-6 5,-12 9,-16 4,-5 9,-8 15,-10 5,-3 12,-4 19,-4 7,0 14,1 19,3 5,3 10,6 13,10 3,3 6,8 8,13 1,6 2,12 2,18l0 4zm-24 -7c0,-7 -2,-13 -5,-17 -3,-4 -7,-6 -14,-6 -3,0 -6,1 -8,2 -3,1 -4,3 -6,5 -2,2 -3,4 -4,7 0,3 -1,6 -1,9l38 0zm230 -35c0,0 -1,1 -1,2 0,1 0,3 -1,5l-24 81c0,1 0,2 -1,2 0,1 -1,2 -2,2 -2,1 -3,1 -5,1 -2,0 -5,0 -8,0 -3,0 -6,0 -8,0 -2,0 -4,-1 -5,-1 -1,0 -2,-1 -3,-2 0,0 0,-1 -1,-2l-15 -55 0 -1 0 1 -14 55c0,1 -1,2 -1,2 -1,1 -2,2 -3,2 -1,1 -3,1 -5,1 -2,0 -4,0 -8,0 -3,0 -6,0 -8,0 -2,0 -3,-1 -5,-1 -1,0 -2,-1 -2,-2 -1,0 -1,-1 -1,-2l-24 -81c-1,-2 -1,-4 -1,-5 0,-1 0,-2 0,-2 0,-1 0,-2 0,-2 1,-1 1,-1 2,-1 1,-1 2,-1 4,-1 2,0 4,0 6,0 3,0 5,0 7,0 1,0 3,0 4,1 1,0 1,0 2,1 0,1 0,1 0,2l18 66 0 1 1 -1 16 -66c0,-1 1,-1 1,-2 1,-1 1,-1 2,-1 1,-1 2,-1 4,-1 1,0 3,0 6,0 2,0 4,0 6,0 1,0 3,0 4,1 1,0 1,0 1,1 1,0 1,1 1,2l18 66 1 1 0 -1 17 -66c0,-1 0,-1 1,-2 0,-1 1,-1 2,-1 1,-1 2,-1 3,-1 2,0 4,0 6,0 3,0 5,0 7,0 1,0 2,0 3,1 1,0 2,0 2,1 0,0 1,1 1,2zm153 44c0,7 -1,14 -3,20 -2,7 -5,12 -9,17 -4,4 -9,8 -15,10 -6,3 -13,4 -22,4 -8,0 -14,-1 -20,-4 -6,-2 -11,-5 -15,-9 -4,-4 -7,-10 -9,-16 -1,-6 -2,-13 -2,-21 0,-7 1,-14 3,-21 2,-6 5,-11 9,-16 4,-4 9,-8 15,-10 6,-3 13,-4 22,-4 8,0 15,1 20,3 6,3 11,6 15,10 4,4 7,9 9,15 1,7 2,14 2,22zm-25 1c0,-5 -1,-9 -2,-13 0,-3 -1,-7 -3,-9 -2,-3 -4,-5 -7,-7 -3,-1 -6,-2 -10,-2 -4,0 -7,1 -10,2 -3,1 -5,3 -7,6 -2,3 -3,6 -4,10 -1,3 -2,7 -2,12 0,5 1,9 2,12 0,4 1,7 3,10 2,3 4,5 7,6 3,2 6,3 10,3 4,0 7,-1 10,-2 3,-2 5,-4 7,-6 2,-3 3,-6 4,-10 1,-4 2,-8 2,-12zm152 -37c0,2 0,4 0,6 0,2 -1,3 -1,4 0,0 -1,1 -1,1 0,1 -1,1 -2,1 0,0 -1,0 -1,0 -1,-1 -2,-1 -3,-1 0,-1 -1,-1 -2,-1 -1,0 -3,0 -4,0 -1,0 -3,0 -4,1 -1,0 -3,1 -4,2 -2,1 -3,3 -5,5 -2,2 -3,4 -5,7l0 56c0,1 0,1 -1,2 0,0 -1,1 -2,1 -1,0 -2,1 -4,1 -1,0 -3,0 -6,0 -2,0 -4,0 -6,0 -2,0 -3,-1 -4,-1 -1,0 -1,-1 -2,-1 0,-1 0,-1 0,-2l0 -89c0,-1 0,-2 0,-2 0,-1 1,-1 2,-1 1,-1 2,-1 3,-1 2,0 3,0 5,0 2,0 4,0 6,0 1,0 2,0 3,1 1,0 1,0 2,1 0,0 0,1 0,2l0 11c2,-3 5,-6 7,-8 2,-3 4,-4 6,-6 1,-1 3,-2 5,-2 2,-1 4,-1 6,-1 1,0 2,0 3,0 1,0 2,0 3,1 1,0 2,0 3,1 0,0 1,0 1,0 1,1 1,1 1,2 0,0 0,1 1,1 0,1 0,2 0,3 0,2 0,4 0,6zm148 81c0,1 -1,1 -1,2 0,0 -1,1 -2,1 -1,0 -2,1 -4,1 -2,0 -4,0 -6,0 -3,0 -5,0 -7,0 -2,0 -3,0 -4,-1 -1,0 -2,0 -3,-1 -1,-1 -1,-1 -2,-2l-29 -47 0 47c0,1 0,1 -1,2 0,0 -1,1 -2,1 -1,0 -2,1 -4,1 -1,0 -3,0 -6,0 -2,0 -4,0 -6,0 -2,0 -3,-1 -4,-1 -1,0 -1,-1 -2,-1 0,-1 0,-1 0,-2l0 -132c0,0 0,-1 0,-1 1,-1 1,-1 2,-2 1,0 2,0 4,-1 2,0 4,0 6,0 3,0 5,0 6,0 2,1 3,1 4,1 1,1 2,1 2,2 1,0 1,1 1,1l0 79 26 -36c1,-1 1,-1 2,-2 1,0 2,-1 3,-1 1,-1 2,-1 4,-1 1,0 3,0 6,0 2,0 5,0 6,0 2,0 3,0 4,1 1,0 2,0 2,1 1,0 1,1 1,2 0,1 0,2 -1,3 0,1 -1,2 -2,4l-26 29 30 47c1,1 2,3 2,4 0,1 1,1 1,2z"/>
  </g>
 </g>
</svg>
