<?xml version="1.0" encoding="UTF-8"?>
<!DOCTYPE svg PUBLIC "-//W3C//DTD SVG 1.1//EN" "http://www.w3.org/Graphics/SVG/1.1/DTD/svg11.dtd">
<!-- Creator: CorelDRAW X7 -->
<svg xmlns="http://www.w3.org/2000/svg" xml:space="preserve" width="91.8227mm" height="33.6724mm" version="1.1" style="shape-rendering:geometricPrecision; text-rendering:geometricPrecision; image-rendering:optimizeQuality; fill-rule:evenodd; clip-rule:evenodd"
viewBox="0 0 51130 18750"
 xmlns:xlink="http://www.w3.org/1999/xlink">
 <defs>
  <style type="text/css">
   <![CDATA[
    .fil1 {fill:#FEFEFE}
    .fil0 {fill:#39356C}
    .fil2 {fill:#5EE045}
    .fil3 {fill:#FEFEFE;fill-rule:nonzero}
    .fil5 {fill:#A9ABAE;fill-rule:nonzero}
    .fil4 {fill:#5EE045;fill-rule:nonzero}
   ]]>
  </style>
 </defs>
 <g id="Capa_x0020_1">
  <metadata id="CorelCorpID_0Corel-Layer"/>
  <path class="fil0" d="M1525 3752l48080 0c839,0 1525,686 1525,1525l0 8506c0,839 -686,1525 -1525,1525l-48080 0c-839,0 -1525,-686 -1525,-1525l0 -8506c0,-839 686,-1525 1525,-1525z"/>
  <path class="fil1" d="M33505 3434c1015,-69 2030,26 3033,184 834,132 668,1348 -273,1164 -1262,-247 -2583,-275 -3819,118 -1210,385 -1693,1408 -1634,2624 51,1071 -173,2055 -712,2982 -421,723 -990,1342 -1600,1908 -1617,1502 -1755,3483 -1405,5548 149,881 -951,1076 -1228,314 -1835,-5050 -1349,-10252 1864,-14660 544,-747 1281,-1296 2205,-1453 1319,-224 2601,414 3569,1271z"/>
  <path class="fil0" d="M33359 3858c1039,-91 2080,3 3115,167 290,46 262,429 -130,352 -1316,-257 -2702,-290 -4023,130 -1374,437 -1990,1600 -1921,3037 98,2030 -881,3361 -2180,4568 -1713,1592 -1913,3671 -1531,5918 66,392 -330,394 -434,106 -1695,-4664 -1468,-9782 1809,-14278 1377,-1888 3530,-1649 5295,0z"/>
  <path class="fil1" d="M30721 10091c-640,2892 -4078,3867 -6575,4468 -780,188 -1160,-940 -361,-1198 964,-312 2331,-664 3044,-1413 248,-259 415,-557 513,-901 272,-955 -255,-1676 -1017,-2195 -2974,-2028 -4067,-4812 -3482,-8308 114,-681 1035,-746 1269,-62 552,1618 1933,2396 3407,3056 2852,1277 3871,3530 3202,6553z"/>
  <path class="fil2" d="M30340 10007c-540,2442 -3253,3443 -6285,4173 -301,73 -475,-343 -150,-448 1664,-538 3350,-957 3812,-2578 308,-1085 -221,-1976 -1172,-2624 -3058,-2085 -3833,-4846 -3318,-7922 45,-270 408,-315 516,0 595,1742 2048,2584 3617,3286 2624,1175 3623,3206 2980,6113z"/>
  <path class="fil3" d="M2356 12636l3688 0c2323,0 3535,-1051 3535,-2992 0,-2010 -1289,-3112 -3730,-3112l-3493 0 0 6104zm3077 -4764c1357,0 2027,568 2027,1738 0,1212 -636,1695 -2027,1695l-1000 0 0 -3433 1000 0zm7339 4866c2586,0 3926,-1068 3926,-3111 0,-2077 -1306,-3205 -3773,-3205 -2492,0 -3849,1136 -3849,3137 0,2069 1272,3179 3696,3179zm-1576 -3103c0,-1271 627,-1975 1661,-1975 1119,0 1721,695 1721,2018 0,1212 -576,1831 -1704,1831 -1110,0 -1678,-628 -1678,-1874zm9942 -1051l2153 0c-93,-1416 -1204,-2145 -3315,-2145 -2442,0 -3781,1195 -3781,3273 0,1882 1306,3026 3603,3026 2323,0 3502,-720 3654,-2340l-2162 0c-110,712 -576,1085 -1339,1085 -1043,0 -1628,-661 -1628,-1856 0,-1247 602,-1933 1653,-1933 661,0 1051,296 1162,890z"/>
  <path class="fil4" d="M35849 12141c0,183 -10,322 -33,420 -24,97 -53,165 -92,203 -36,41 -91,77 -163,106 -74,32 -159,60 -256,81 -96,23 -201,40 -316,53 -114,13 -229,19 -345,19 -310,0 -579,-40 -808,-119 -226,-78 -415,-199 -565,-362 -149,-163 -259,-369 -329,-619 -70,-248 -106,-542 -106,-881l0 -2838 -672 0c-78,0 -140,-49 -180,-146 -42,-98 -63,-261 -63,-490 0,-120 4,-222 14,-305 11,-82 28,-148 49,-197 19,-47 47,-80 79,-102 29,-21 67,-31 108,-31l665 0 0 -1240c0,-40 11,-78 34,-112 23,-32 66,-60 125,-83 59,-23 142,-40 244,-51 101,-10 226,-15 377,-15 153,0 280,5 381,15 102,11 183,28 242,51 57,23 100,51 123,83 25,34 38,72 38,112l0 1240 1202 0c42,0 78,10 108,31 31,22 57,55 78,102 21,49 36,115 47,197 10,83 14,185 14,305 0,229 -21,392 -61,490 -42,97 -102,146 -180,146l-1208 0 0 2602c0,303 47,530 142,681 95,150 265,226 509,226 82,0 156,-6 222,-21 66,-15 125,-32 176,-51 53,-17 95,-34 131,-48 34,-15 68,-22 96,-22 25,0 48,7 72,22 21,14 40,42 53,86 10,43 23,102 34,176 10,77 14,170 14,286zm5136 -2386c0,191 -42,331 -127,422 -85,91 -201,138 -352,138l-3373 0c0,235 27,447 84,640 55,190 144,354 265,487 123,134 280,235 473,305 193,70 422,106 691,106 273,0 512,-19 720,-59 206,-40 386,-83 536,-132 151,-48 276,-91 375,-131 100,-40 180,-59 242,-59 38,0 70,6 93,21 26,15 47,40 64,78 15,36 27,89 34,157 6,68 8,155 8,257 0,91 -2,169 -6,233 -4,63 -11,118 -19,163 -9,46 -19,85 -36,114 -17,32 -38,62 -66,91 -28,28 -100,68 -220,119 -121,51 -274,100 -460,148 -187,49 -399,92 -638,128 -240,36 -496,55 -769,55 -494,0 -924,-62 -1295,-187 -369,-123 -678,-311 -928,-564 -248,-252 -433,-572 -555,-955 -121,-386 -183,-837 -183,-1354 0,-492 64,-935 193,-1331 127,-394 314,-729 560,-1005 243,-275 540,-485 890,-629 351,-146 746,-218 1184,-218 464,0 861,68 1189,205 331,136 600,327 812,568 209,242 366,530 466,861 99,330 148,690 148,1080l0 248zm-1513 -445c13,-438 -76,-784 -265,-1034 -188,-252 -479,-377 -873,-377 -199,0 -373,38 -519,112 -148,74 -271,174 -369,301 -97,127 -171,276 -222,447 -53,174 -83,356 -91,551l2339 0zm5759 1808c0,313 -60,591 -178,833 -117,239 -284,438 -500,601 -216,162 -471,282 -765,363 -295,80 -613,121 -956,121 -208,0 -407,-15 -596,-47 -188,-32 -356,-72 -506,-121 -148,-46 -273,-95 -373,-146 -100,-51 -172,-97 -216,-142 -47,-44 -83,-112 -106,-206 -25,-91 -38,-228 -38,-411 0,-118 4,-214 13,-286 8,-72 21,-131 36,-173 17,-43 38,-73 63,-87 23,-15 55,-22 93,-22 45,0 113,26 202,79 89,53 199,110 332,172 132,63 286,122 462,175 176,56 378,83 600,83 140,0 267,-15 375,-44 110,-28 206,-70 286,-125 81,-53 142,-121 185,-206 40,-83 61,-178 61,-286 0,-125 -38,-231 -114,-320 -79,-89 -180,-168 -306,-233 -127,-66 -271,-127 -430,-187 -159,-57 -324,-120 -491,-193 -168,-69 -333,-150 -492,-241 -159,-91 -303,-201 -430,-335 -125,-131 -227,-292 -305,-477 -77,-186 -115,-411 -115,-671 0,-265 53,-507 157,-729 104,-221 252,-412 447,-568 197,-157 435,-280 714,-367 282,-87 596,-129 945,-129 176,0 344,12 509,36 163,25 314,57 445,93 134,38 246,76 337,121 91,42 157,80 197,110 40,32 68,61 85,93 15,32 27,68 36,113 8,42 17,97 23,161 7,63 9,144 9,239 0,112 -2,203 -9,273 -6,70 -17,128 -32,168 -14,42 -34,70 -59,85 -25,14 -55,21 -87,21 -38,0 -97,-21 -176,-66 -78,-42 -178,-89 -296,-138 -119,-48 -257,-95 -412,-137 -156,-45 -334,-66 -534,-66 -142,0 -264,15 -368,42 -104,30 -189,72 -257,125 -65,53 -116,117 -148,189 -34,72 -51,150 -51,231 0,129 40,237 119,324 78,87 182,163 311,229 127,66 276,129 439,186 163,58 331,121 498,189 167,68 335,148 498,240 163,91 311,203 439,334 129,134 233,291 311,475 79,184 119,403 119,655zm3357 1023c0,183 -10,322 -33,420 -24,97 -53,165 -92,203 -36,41 -91,77 -163,106 -74,32 -159,60 -256,81 -95,23 -201,40 -316,53 -114,13 -229,19 -345,19 -310,0 -579,-40 -808,-119 -226,-78 -415,-199 -565,-362 -149,-163 -259,-369 -329,-619 -70,-248 -106,-542 -106,-881l0 -2838 -672 0c-78,0 -140,-49 -180,-146 -42,-98 -63,-261 -63,-490 0,-120 4,-222 15,-305 10,-82 27,-148 48,-197 19,-47 47,-80 79,-102 29,-21 67,-31 108,-31l665 0 0 -1240c0,-40 11,-78 34,-112 23,-32 66,-60 125,-83 59,-23 142,-40 244,-51 102,-10 227,-15 377,-15 153,0 280,5 381,15 102,11 183,28 242,51 57,23 100,51 123,83 25,34 38,72 38,112l0 1240 1202 0c42,0 78,10 108,31 31,22 57,55 78,102 21,49 36,115 47,197 10,83 14,185 14,305 0,229 -21,392 -61,490 -42,97 -102,146 -180,146l-1208 0 0 2602c0,303 47,530 142,681 95,150 265,226 509,226 82,0 156,-6 222,-21 66,-15 125,-32 176,-51 53,-17 95,-34 131,-48 34,-15 68,-22 96,-22 25,0 48,7 72,22 21,14 40,42 53,86 10,43 23,102 34,176 10,77 14,170 14,286z"/>
  <g id="_2831603384288">
   <path class="fil5" d="M9524 17655c0,20 0,37 -1,51 -2,14 -4,26 -6,36 -2,10 -5,19 -9,26 -5,7 -11,16 -20,25 -8,9 -26,21 -51,35 -25,14 -56,28 -93,41 -36,13 -78,24 -125,33 -46,8 -97,13 -152,13 -107,0 -203,-17 -289,-50 -86,-32 -159,-82 -219,-147 -60,-65 -106,-147 -138,-245 -32,-98 -48,-212 -48,-342 0,-132 17,-250 53,-352 35,-103 84,-189 148,-259 63,-70 139,-123 228,-159 88,-36 186,-54 293,-54 43,0 85,4 125,11 40,7 77,16 111,28 34,12 65,25 92,41 27,15 47,28 57,39 11,11 18,20 23,27 4,8 7,17 9,28 3,11 5,24 6,40 1,15 1,33 1,56 0,24 0,44 -2,61 -2,17 -5,31 -8,41 -4,10 -9,18 -15,22 -5,5 -12,8 -19,8 -12,0 -27,-7 -46,-21 -18,-14 -42,-30 -71,-47 -29,-17 -64,-33 -105,-47 -40,-14 -88,-21 -145,-21 -61,0 -116,13 -165,38 -48,26 -89,61 -124,108 -34,47 -60,104 -77,171 -18,66 -27,141 -27,225 0,91 10,170 29,237 19,67 45,122 80,165 35,43 77,76 127,97 49,21 104,32 166,32 56,0 104,-7 146,-20 40,-13 75,-28 104,-43 30,-16 54,-31 73,-43 19,-13 33,-20 44,-20 7,0 14,2 19,5 5,3 9,10 12,19 3,10 5,23 7,41 2,17 2,40 2,70zm1815 -457c0,23 -1,42 -4,57 -2,15 -5,28 -10,37 -5,9 -11,16 -17,20 -7,4 -13,6 -21,6l-374 0 0 408c0,8 -3,15 -7,21 -3,6 -10,12 -20,16 -10,4 -22,8 -38,10 -16,2 -37,4 -60,4 -25,0 -45,-2 -61,-4 -16,-2 -29,-6 -38,-10 -10,-4 -17,-10 -21,-16 -5,-6 -7,-13 -7,-21l0 -408 -372 0c-8,0 -14,-2 -21,-6 -5,-4 -11,-11 -16,-20 -5,-9 -8,-22 -11,-37 -3,-15 -4,-34 -4,-57 0,-21 1,-40 4,-56 2,-16 5,-28 10,-37 4,-9 9,-16 15,-20 5,-4 12,-6 19,-6l376 0 0 -408c0,-8 2,-16 7,-23 4,-7 11,-12 21,-16 9,-5 22,-8 38,-11 16,-2 36,-3 61,-3 23,0 44,1 60,3 16,3 28,6 38,11 10,4 17,9 20,16 4,7 7,15 7,23l0 408 378 0c6,0 12,2 19,6 6,4 11,11 15,20 5,9 8,21 10,37 3,16 4,35 4,56zm1850 0c0,23 -2,42 -4,57 -3,15 -6,28 -11,37 -5,9 -11,16 -17,20 -6,4 -13,6 -20,6l-375 0 0 408c0,8 -2,15 -6,21 -4,6 -11,12 -20,16 -10,4 -23,8 -39,10 -16,2 -36,4 -60,4 -24,0 -44,-2 -61,-4 -15,-2 -28,-6 -38,-10 -10,-4 -17,-10 -21,-16 -5,-6 -7,-13 -7,-21l0 -408 -372 0c-7,0 -14,-2 -20,-6 -6,-4 -11,-11 -16,-20 -5,-9 -9,-22 -12,-37 -3,-15 -4,-34 -4,-57 0,-21 1,-40 4,-56 2,-16 6,-28 10,-37 4,-9 10,-16 15,-20 6,-4 12,-6 19,-6l376 0 0 -408c0,-8 2,-16 7,-23 4,-7 11,-12 21,-16 10,-5 23,-8 38,-11 17,-2 37,-3 61,-3 24,0 44,1 60,3 16,3 29,6 39,11 9,4 16,9 20,16 4,7 6,15 6,23l0 408 378 0c7,0 13,2 19,6 6,4 11,11 16,20 4,9 7,21 10,37 2,16 4,35 4,56zm1965 546c0,35 -2,62 -7,81 -4,19 -10,32 -17,40 -7,7 -18,14 -32,20 -14,6 -31,12 -50,16 -18,4 -39,8 -61,10 -22,3 -44,4 -67,4 -60,0 -112,-8 -156,-23 -44,-15 -81,-39 -110,-71 -29,-31 -50,-71 -64,-120 -14,-48 -20,-105 -20,-171l0 -550 -131 0c-15,0 -27,-9 -35,-28 -8,-19 -12,-51 -12,-95 0,-24 1,-43 3,-59 2,-16 5,-29 9,-39 4,-9 9,-15 15,-19 6,-4 14,-6 21,-6l130 0 0 -241c0,-8 2,-15 6,-22 5,-6 13,-11 24,-16 12,-4 28,-8 48,-10 19,-2 44,-2 73,-2 29,0 54,0 74,2 19,2 35,6 47,10 11,5 19,10 23,16 5,7 8,14 8,22l0 241 233 0c8,0 15,2 21,6 6,4 11,10 15,19 4,10 7,23 9,39 2,16 3,35 3,59 0,44 -4,76 -12,95 -8,19 -20,28 -35,28l-234 0 0 505c0,59 9,103 27,132 19,29 52,44 99,44 16,0 30,-1 43,-4 13,-3 24,-6 34,-10 11,-4 19,-7 26,-10 6,-3 13,-4 18,-4 5,0 10,1 14,4 4,3 8,9 10,17 3,8 5,20 7,34 2,15 3,33 3,56zm1771 -463c0,37 -8,64 -25,82 -16,17 -39,27 -68,27l-654 0c0,45 5,86 16,124 11,37 28,68 51,94 24,26 55,46 92,59 37,14 82,21 134,21 53,0 99,-4 140,-12 40,-7 75,-16 104,-25 29,-10 53,-18 72,-26 20,-7 35,-11 47,-11 8,0 14,1 18,4 5,3 9,8 13,15 3,7 5,18 6,31 2,13 2,30 2,49 0,18 0,33 -1,46 -1,12 -2,23 -4,31 -2,9 -4,17 -7,22 -3,7 -7,12 -13,18 -5,5 -19,13 -42,23 -24,10 -53,19 -90,29 -36,9 -77,18 -123,25 -47,7 -97,10 -150,10 -95,0 -179,-12 -251,-36 -71,-24 -131,-60 -180,-109 -48,-49 -84,-111 -107,-186 -24,-74 -36,-162 -36,-262 0,-96 13,-182 38,-258 24,-77 61,-142 108,-195 47,-54 105,-94 173,-122 68,-29 144,-43 230,-43 90,0 166,14 230,40 64,27 116,64 158,110 40,47 71,103 90,167 19,64 29,134 29,210l0 48zm-294 -86c3,-85 -14,-152 -51,-201 -37,-49 -93,-73 -169,-73 -39,0 -73,7 -101,22 -29,14 -53,33 -72,58 -19,25 -33,54 -43,87 -10,34 -16,69 -17,107l453 0zm1892 350c0,61 -12,115 -35,162 -22,46 -55,85 -97,117 -41,31 -91,54 -148,70 -57,15 -119,23 -185,23 -41,0 -79,-3 -116,-9 -36,-6 -69,-14 -98,-23 -29,-9 -53,-19 -72,-29 -20,-9 -34,-19 -42,-27 -9,-9 -16,-22 -21,-40 -5,-18 -7,-44 -7,-80 0,-23 1,-41 2,-55 2,-14 4,-26 7,-34 3,-8 8,-14 13,-17 4,-3 10,-4 18,-4 8,0 21,5 39,15 17,11 38,22 64,34 26,12 56,23 90,34 34,10 73,16 116,16 27,0 52,-3 73,-9 21,-5 40,-13 55,-24 16,-10 28,-24 36,-40 8,-16 12,-35 12,-55 0,-25 -7,-45 -22,-63 -15,-17 -35,-32 -59,-45 -25,-13 -53,-24 -84,-36 -31,-11 -63,-23 -95,-37 -33,-14 -65,-29 -95,-47 -31,-18 -59,-39 -84,-65 -24,-26 -44,-57 -59,-93 -15,-36 -22,-79 -22,-130 0,-51 10,-98 30,-141 20,-43 49,-80 87,-110 38,-31 84,-55 138,-72 55,-16 116,-25 184,-25 34,0 66,3 98,7 32,5 61,12 87,18 26,8 47,15 65,24 18,8 30,15 38,21 8,6 13,12 17,18 3,7 5,14 7,22 1,8 3,19 4,31 1,13 2,28 2,47 0,22 -1,39 -2,53 -1,13 -3,25 -6,32 -3,9 -7,14 -12,17 -4,3 -10,4 -16,4 -8,0 -19,-4 -35,-13 -15,-8 -34,-17 -57,-27 -23,-9 -50,-18 -80,-26 -30,-9 -65,-13 -103,-13 -28,0 -52,3 -72,8 -20,6 -36,14 -50,24 -12,11 -22,23 -28,37 -7,14 -10,29 -10,45 0,25 8,46 23,63 15,17 35,31 60,44 25,13 54,25 85,36 32,11 64,24 97,37 32,13 65,29 96,46 32,18 61,40 86,65 25,26 45,57 60,92 15,36 23,78 23,127zm1426 199c0,35 -2,62 -7,81 -4,19 -10,32 -17,40 -7,7 -18,14 -32,20 -14,6 -31,12 -50,16 -18,4 -39,8 -61,10 -22,3 -44,4 -67,4 -60,0 -112,-8 -157,-23 -43,-15 -80,-39 -109,-71 -29,-31 -50,-71 -64,-120 -14,-48 -21,-105 -21,-171l0 -550 -130 0c-15,0 -27,-9 -35,-28 -8,-19 -12,-51 -12,-95 0,-24 1,-43 3,-59 2,-16 5,-29 9,-39 4,-9 9,-15 15,-19 6,-4 14,-6 21,-6l129 0 0 -241c0,-8 3,-15 7,-22 5,-6 13,-11 24,-16 12,-4 28,-8 48,-10 19,-2 44,-2 73,-2 29,0 54,0 74,2 19,2 35,6 47,10 11,5 19,10 23,16 5,7 8,14 8,22l0 241 233 0c8,0 15,2 21,6 6,4 11,10 15,19 4,10 7,23 9,39 2,16 3,35 3,59 0,44 -4,76 -12,95 -8,19 -20,28 -35,28l-234 0 0 505c0,59 9,103 27,132 19,29 52,44 99,44 16,0 30,-1 43,-4 13,-3 24,-6 34,-10 11,-4 19,-7 26,-10 6,-3 13,-4 18,-4 5,0 10,1 14,4 4,3 8,9 10,17 3,8 5,20 7,34 2,15 3,33 3,56zm1079 105c0,8 -2,15 -7,21 -5,7 -13,11 -25,16 -11,3 -27,7 -46,9 -19,2 -44,3 -73,3 -30,0 -55,-1 -74,-3 -19,-2 -35,-6 -46,-9 -12,-5 -20,-9 -25,-16 -5,-6 -7,-13 -7,-21l0 -1072c0,-8 2,-15 7,-21 5,-6 13,-12 25,-16 11,-4 27,-8 46,-10 19,-3 44,-4 74,-4 29,0 54,1 73,4 19,2 35,6 46,10 12,4 20,10 25,16 5,6 7,13 7,21l0 1072zm25 -1440c0,61 -12,103 -37,127 -26,23 -72,35 -139,35 -69,0 -115,-11 -139,-34 -23,-23 -35,-63 -35,-122 0,-61 12,-103 37,-127 24,-23 70,-35 139,-35 67,0 114,11 138,34 24,23 36,63 36,122zm1894 1440c0,8 -2,15 -7,21 -4,7 -13,11 -24,16 -11,3 -27,7 -47,9 -19,2 -44,3 -72,3 -30,0 -55,-1 -75,-3 -20,-2 -35,-6 -47,-9 -11,-5 -19,-9 -23,-16 -5,-6 -8,-13 -8,-21l0 -612c0,-53 -4,-94 -11,-123 -8,-30 -19,-56 -33,-77 -15,-21 -34,-38 -56,-49 -23,-12 -49,-18 -80,-18 -39,0 -77,14 -117,43 -39,28 -80,69 -122,122l0 714c0,8 -3,15 -8,21 -4,7 -12,11 -24,16 -12,3 -27,7 -46,9 -20,2 -44,3 -74,3 -29,0 -54,-1 -73,-3 -19,-2 -35,-6 -46,-9 -12,-5 -21,-9 -25,-16 -5,-6 -7,-13 -7,-21l0 -1075c0,-8 2,-15 6,-21 3,-6 11,-11 21,-15 11,-4 24,-7 40,-9 17,-2 38,-3 62,-3 26,0 47,1 64,3 17,2 30,5 40,9 9,4 15,9 19,15 4,6 7,13 7,21l0 124c59,-64 119,-111 181,-144 61,-32 125,-48 192,-48 73,0 135,12 185,37 50,23 90,56 121,98 31,41 53,89 67,145 13,55 20,122 20,200l0 663zm1856 -1000c0,39 -5,67 -14,86 -8,18 -19,28 -32,28l-126 0c17,19 30,41 38,65 7,25 11,50 11,77 0,62 -11,118 -31,166 -21,49 -51,90 -90,123 -39,33 -86,58 -141,76 -55,17 -116,26 -183,26 -35,0 -68,-5 -99,-13 -32,-8 -56,-18 -72,-29 -10,10 -19,22 -26,37 -8,14 -12,30 -12,48 0,24 10,43 31,58 20,14 49,23 86,24l261 10c61,2 116,11 163,26 48,14 88,35 121,63 32,26 57,59 75,96 17,38 26,81 26,129 0,53 -12,103 -35,150 -24,47 -59,88 -105,122 -47,35 -105,62 -176,82 -70,20 -152,30 -246,30 -91,0 -169,-7 -234,-22 -65,-14 -118,-34 -159,-60 -41,-26 -71,-56 -90,-92 -19,-36 -29,-75 -29,-117 0,-27 4,-52 11,-76 7,-24 17,-47 30,-69 13,-22 29,-44 49,-63 19,-20 41,-40 66,-58 -35,-19 -61,-44 -80,-75 -19,-32 -29,-67 -29,-105 0,-47 11,-90 33,-129 22,-39 50,-74 84,-106 -28,-28 -50,-62 -67,-101 -17,-39 -25,-88 -25,-146 0,-63 11,-119 33,-168 22,-50 52,-91 92,-125 39,-35 86,-60 140,-79 55,-18 116,-27 181,-27 34,0 66,2 97,6 31,4 60,10 86,17l341 0c14,0 25,9 33,26 8,18 13,48 13,89zm-389 255c0,-58 -16,-103 -48,-135 -32,-32 -78,-48 -136,-48 -30,0 -56,5 -78,15 -23,10 -42,24 -57,41 -15,17 -26,37 -33,60 -7,23 -10,47 -10,72 0,54 16,98 48,129 32,32 76,48 133,48 31,0 57,-5 80,-14 22,-10 41,-23 56,-40 15,-17 26,-36 34,-59 7,-22 11,-45 11,-69zm71 857c0,-36 -15,-64 -43,-83 -29,-19 -69,-30 -120,-31l-215 -6c-21,15 -38,30 -50,44 -13,14 -23,27 -30,40 -8,13 -13,25 -15,37 -3,12 -4,25 -4,37 0,40 20,71 61,92 41,21 98,31 171,31 46,0 85,-5 116,-14 31,-9 57,-21 76,-37 19,-15 33,-32 41,-51 8,-19 12,-38 12,-59zm3953 -1596c0,24 -1,42 -2,57 -2,14 -5,25 -7,32 -4,8 -7,13 -12,16 -3,3 -8,4 -13,4 -5,0 -12,-1 -18,-4 -7,-3 -15,-6 -26,-9 -10,-4 -21,-7 -35,-9 -14,-3 -30,-5 -48,-5 -22,0 -40,4 -56,11 -16,6 -29,17 -39,32 -10,15 -18,34 -23,58 -5,24 -7,52 -7,87l0 99 197 0c7,0 14,2 20,6 6,4 11,10 15,19 4,10 7,23 9,39 2,16 3,35 3,59 0,44 -4,76 -12,95 -8,19 -20,28 -35,28l-197 0 0 869c0,8 -3,15 -7,21 -5,7 -13,11 -24,16 -12,3 -27,7 -48,9 -20,2 -44,3 -73,3 -29,0 -54,-1 -73,-3 -20,-2 -36,-6 -48,-9 -11,-5 -19,-9 -24,-16 -4,-6 -6,-13 -6,-21l0 -869 -135 0c-15,0 -27,-9 -34,-28 -8,-19 -11,-51 -11,-95 0,-24 0,-43 2,-59 2,-16 5,-29 9,-39 4,-9 8,-15 14,-19 6,-4 13,-6 21,-6l134 0 0 -91c0,-73 7,-137 21,-192 15,-55 37,-101 68,-138 31,-36 71,-64 119,-82 47,-19 104,-28 169,-28 31,0 61,3 89,8 28,5 50,11 66,17 16,6 27,12 33,17 5,5 10,13 14,23 3,10 6,23 8,38 1,17 2,36 2,59z"/>
   <path class="fil5" d="M29853 16875c0,28 -1,52 -2,71 -2,18 -4,32 -7,43 -3,10 -8,17 -13,22 -5,4 -12,5 -20,5 -6,0 -14,-1 -22,-4 -8,-3 -17,-6 -27,-9 -10,-3 -21,-6 -33,-9 -12,-3 -25,-4 -40,-4 -17,0 -33,3 -50,10 -17,7 -35,18 -53,32 -18,15 -37,34 -57,58 -19,24 -40,54 -63,89l0 670c0,8 -2,15 -7,21 -5,7 -13,11 -25,16 -11,3 -27,7 -46,9 -19,2 -44,3 -74,3 -29,0 -54,-1 -73,-3 -19,-2 -35,-6 -46,-9 -12,-5 -20,-9 -25,-16 -5,-6 -7,-13 -7,-21l0 -1075c0,-8 2,-15 6,-21 4,-6 11,-11 21,-15 11,-4 24,-7 41,-9 16,-2 37,-3 62,-3 26,0 47,1 63,3 17,2 30,5 40,9 9,4 15,9 20,15 4,6 6,13 6,21l0 134c28,-40 54,-73 79,-99 25,-26 49,-47 71,-62 23,-15 45,-26 68,-32 22,-6 45,-9 67,-9 11,0 22,1 34,2 12,1 25,3 37,6 13,3 25,6 34,10 10,3 17,7 22,11 4,4 7,9 9,13 2,5 4,12 5,20 2,9 3,21 4,38 1,17 1,40 1,69zm1638 978c0,11 -4,20 -12,26 -8,7 -21,12 -38,14 -17,3 -43,5 -77,5 -36,0 -63,-2 -79,-5 -16,-2 -28,-7 -35,-14 -7,-6 -10,-15 -10,-26l0 -85c-45,47 -95,83 -151,110 -57,26 -120,39 -189,39 -56,0 -109,-7 -157,-22 -47,-15 -88,-37 -123,-66 -35,-30 -62,-66 -82,-109 -19,-44 -29,-94 -29,-152 0,-63 13,-117 37,-163 25,-46 61,-84 110,-115 48,-30 108,-52 181,-66 72,-14 155,-22 251,-22l105 0 0 -65c0,-34 -4,-63 -11,-89 -6,-25 -18,-46 -33,-63 -16,-17 -37,-29 -63,-37 -26,-8 -58,-12 -97,-12 -50,0 -95,6 -135,17 -40,11 -75,23 -105,37 -30,14 -56,26 -76,37 -21,12 -37,17 -50,17 -9,0 -17,-3 -24,-8 -7,-6 -12,-14 -16,-24 -5,-10 -8,-24 -11,-39 -2,-15 -3,-32 -3,-50 0,-25 2,-45 6,-59 3,-15 11,-27 22,-39 12,-12 31,-24 60,-38 28,-14 60,-28 98,-39 38,-13 79,-23 124,-30 44,-8 90,-12 138,-12 84,0 156,9 216,25 59,17 109,42 147,76 39,34 67,78 85,132 17,53 26,118 26,191l0 723zm-298 -461l-116 0c-49,0 -90,4 -125,11 -34,7 -62,18 -84,33 -22,14 -38,31 -47,52 -11,20 -16,44 -16,70 0,45 15,81 43,106 28,26 68,39 118,39 43,0 82,-11 118,-33 35,-22 72,-53 109,-95l0 -183zm2900 457c0,8 -2,15 -7,21 -5,7 -13,11 -24,16 -11,3 -27,7 -46,9 -19,2 -44,3 -74,3 -30,0 -55,-1 -75,-3 -19,-2 -35,-6 -46,-9 -12,-5 -20,-9 -24,-16 -5,-6 -7,-13 -7,-21l0 -637c0,-36 -3,-69 -10,-98 -7,-30 -18,-56 -32,-77 -14,-21 -31,-38 -52,-49 -22,-12 -47,-18 -76,-18 -36,0 -73,14 -110,43 -37,28 -76,69 -120,122l0 714c0,8 -2,15 -7,21 -4,7 -13,11 -25,16 -11,3 -27,7 -46,9 -19,2 -44,3 -72,3 -30,0 -55,-1 -74,-3 -20,-2 -35,-6 -47,-9 -12,-5 -20,-9 -24,-16 -5,-6 -8,-13 -8,-21l0 -637c0,-36 -3,-69 -10,-98 -7,-30 -17,-56 -31,-77 -14,-21 -31,-38 -53,-49 -21,-12 -47,-18 -76,-18 -37,0 -73,14 -110,43 -37,28 -77,69 -119,122l0 714c0,8 -3,15 -8,21 -4,7 -13,11 -24,16 -12,3 -28,7 -46,9 -20,2 -44,3 -74,3 -30,0 -54,-1 -74,-3 -19,-2 -34,-6 -46,-9 -12,-5 -20,-9 -24,-16 -5,-6 -8,-13 -8,-21l0 -1075c0,-8 2,-15 6,-21 4,-6 12,-11 22,-15 10,-4 24,-7 40,-9 17,-2 37,-3 62,-3 26,0 47,1 64,3 17,2 30,5 39,9 9,4 16,9 20,15 4,6 6,13 6,21l0 124c59,-64 119,-111 178,-144 59,-32 121,-48 185,-48 44,0 84,5 119,14 36,9 67,23 95,40 27,17 51,38 71,62 21,24 37,50 51,80 32,-35 64,-64 94,-89 31,-24 62,-45 92,-61 30,-15 60,-27 91,-34 30,-8 60,-12 92,-12 71,0 131,12 180,37 49,23 88,56 118,98 31,41 52,89 65,145 13,55 19,114 19,176l0 687zm1880 -568c0,37 -9,64 -25,82 -17,17 -39,27 -68,27l-655 0c0,45 6,86 17,124 11,37 28,68 51,94 24,26 54,46 92,59 37,14 82,21 134,21 53,0 99,-4 140,-12 39,-7 74,-16 104,-25 29,-10 53,-18 72,-26 20,-7 35,-11 47,-11 8,0 14,1 18,4 5,3 9,8 13,15 2,7 5,18 6,31 1,13 2,30 2,49 0,18 -1,33 -1,46 -1,12 -2,23 -4,31 -2,9 -4,17 -7,22 -3,7 -7,12 -13,18 -5,5 -19,13 -43,23 -23,10 -53,19 -89,29 -36,9 -77,18 -123,25 -47,7 -97,10 -150,10 -95,0 -179,-12 -251,-36 -71,-24 -131,-60 -180,-109 -48,-49 -84,-111 -108,-186 -23,-74 -35,-162 -35,-262 0,-96 12,-182 38,-258 24,-77 60,-142 108,-195 47,-54 105,-94 173,-122 68,-29 144,-43 229,-43 90,0 167,14 231,40 64,27 116,64 157,110 41,47 72,103 91,167 19,64 29,134 29,210l0 48zm-294 -86c3,-85 -15,-152 -51,-201 -37,-49 -93,-73 -170,-73 -38,0 -72,7 -100,22 -29,14 -53,33 -72,58 -19,25 -33,54 -43,87 -10,34 -16,69 -18,107l454 0zm2766 -423c0,9 -2,19 -4,33 -3,12 -7,31 -13,55l-286 973c-4,13 -10,24 -16,32 -6,9 -16,16 -30,21 -13,4 -32,7 -56,9 -25,2 -57,3 -96,3 -39,0 -72,-1 -97,-3 -25,-2 -44,-6 -58,-11 -14,-5 -25,-11 -31,-20 -6,-8 -11,-19 -15,-31l-181 -654 -2 -11 -3 11 -166 654c-3,13 -8,24 -13,32 -7,9 -17,16 -31,21 -15,4 -34,7 -59,9 -25,2 -57,3 -97,3 -40,0 -72,-1 -97,-3 -24,-2 -44,-6 -57,-11 -14,-5 -25,-11 -31,-20 -7,-8 -11,-19 -15,-31l-285 -973c-7,-23 -11,-42 -14,-55 -2,-13 -2,-24 -2,-33 0,-8 2,-15 6,-21 5,-6 13,-11 24,-15 12,-3 28,-6 47,-7 20,-2 45,-3 74,-3 32,0 58,1 78,3 21,1 36,4 47,8 11,4 19,9 24,16 4,7 7,15 10,25l214 789 3 15 2 -15 200 -789c3,-10 6,-18 12,-25 5,-7 12,-12 23,-16 10,-4 25,-7 44,-8 19,-2 43,-3 73,-3 30,0 54,1 73,3 18,2 32,5 44,9 10,3 18,8 22,14 5,6 8,13 10,21l216 796 4 13 2 -15 205 -789c1,-10 5,-18 9,-25 5,-7 13,-12 24,-16 11,-4 27,-7 46,-8 19,-2 44,-3 73,-3 30,0 54,1 73,3 19,1 34,4 44,7 11,4 19,9 22,15 5,6 7,13 7,21zm1849 529c0,91 -11,175 -36,250 -24,76 -60,141 -110,195 -48,55 -110,97 -184,127 -74,29 -160,44 -259,44 -95,0 -178,-13 -249,-40 -71,-26 -130,-65 -176,-115 -46,-51 -81,-113 -104,-187 -22,-73 -33,-158 -33,-253 0,-91 12,-175 36,-250 25,-76 62,-141 111,-195 49,-54 110,-96 184,-126 73,-30 159,-45 258,-45 96,0 180,14 250,39 71,27 129,65 176,116 46,50 80,112 103,186 22,74 33,158 33,254zm-310 12c0,-53 -4,-102 -13,-146 -9,-45 -23,-84 -43,-117 -20,-32 -47,-58 -80,-77 -34,-18 -76,-27 -127,-27 -45,0 -85,8 -119,24 -33,17 -61,41 -83,73 -22,31 -38,70 -49,114 -11,45 -17,95 -17,152 0,53 5,102 14,147 9,44 23,83 43,116 19,33 46,58 80,76 34,19 76,28 126,28 46,0 86,-9 120,-25 34,-17 62,-40 84,-72 21,-31 37,-69 48,-113 10,-45 16,-96 16,-153zm1833 -438c0,28 -1,52 -3,71 -2,18 -4,32 -7,43 -3,10 -8,17 -13,22 -5,4 -12,5 -20,5 -6,0 -13,-1 -22,-4 -7,-3 -16,-6 -27,-9 -10,-3 -21,-6 -33,-9 -12,-3 -25,-4 -39,-4 -17,0 -34,3 -51,10 -17,7 -35,18 -53,32 -18,15 -37,34 -56,58 -20,24 -41,54 -64,89l0 670c0,8 -2,15 -7,21 -5,7 -13,11 -25,16 -11,3 -27,7 -46,9 -19,2 -44,3 -73,3 -30,0 -55,-1 -74,-3 -19,-2 -34,-6 -46,-9 -12,-5 -20,-9 -25,-16 -5,-6 -7,-13 -7,-21l0 -1075c0,-8 2,-15 6,-21 4,-6 11,-11 22,-15 10,-4 23,-7 40,-9 16,-2 37,-3 62,-3 26,0 47,1 64,3 16,2 30,5 39,9 9,4 16,9 20,15 4,6 6,13 6,21l0 134c28,-40 55,-73 79,-99 25,-26 49,-47 71,-62 23,-15 46,-26 68,-32 22,-6 45,-9 68,-9 10,0 21,1 33,2 12,1 25,3 38,6 12,3 24,6 33,10 10,3 17,7 22,11 4,4 7,9 9,13 2,5 4,12 6,20 1,9 3,21 3,38 1,17 2,40 2,69zm1775 976c0,7 -2,14 -6,21 -5,6 -13,10 -25,14 -11,4 -27,7 -47,9 -20,2 -46,3 -79,3 -33,0 -59,-1 -80,-3 -20,-2 -37,-4 -50,-8 -14,-3 -24,-8 -31,-15 -8,-6 -14,-15 -20,-25l-357 -566 0 568c0,8 -3,15 -8,21 -4,7 -12,11 -24,16 -12,3 -27,7 -46,9 -20,2 -44,3 -74,3 -29,0 -54,-1 -73,-3 -19,-2 -35,-6 -46,-9 -12,-5 -21,-9 -25,-16 -5,-6 -7,-13 -7,-21l0 -1584c0,-8 2,-15 7,-22 4,-6 13,-12 25,-16 11,-4 27,-8 46,-10 19,-3 44,-4 73,-4 30,0 54,1 74,4 19,2 34,6 46,10 12,4 20,10 24,16 5,7 8,14 8,22l0 943 318 -428c7,-10 14,-18 22,-25 8,-7 18,-13 31,-17 14,-4 30,-7 50,-9 19,-2 45,-3 75,-3 30,0 55,1 75,3 20,2 37,5 49,9 13,4 21,9 26,15 5,6 7,14 7,22 0,12 -3,26 -9,39 -6,14 -15,28 -27,44l-314 356 365 563c9,16 16,30 21,42 4,11 6,22 6,32z"/>
  </g>
 </g>
</svg>
